<svg xmlns="http://www.w3.org/2000/svg" xmlns:xlink="http://www.w3.org/1999/xlink" width="800" zoomAndPan="magnify" viewBox="0 0 600 157.92" height="200" preserveAspectRatio="xMidYMid meet" version="1.2"><defs/><g id="1572fd1692"><g style="fill:#ffbd59;fill-opacity:1;"><g transform="translate(4.425907, 134.48187)"><path style="stroke:none" d="M 53.25 -71.859375 C 53.332031 -70.671875 53.332031 -69.296875 53.25 -67.734375 C 53.15625 -65.066406 52.738281 -62.441406 52 -59.859375 C 51.269531 -57.285156 50.304688 -54.804688 49.109375 -52.421875 C 46.617188 -47.816406 43.304688 -43.769531 39.171875 -40.28125 C 37.972656 -39.269531 36.59375 -38.257812 35.03125 -37.25 C 35.488281 -36.875 35.859375 -36.550781 36.140625 -36.28125 C 37.703125 -34.625 38.941406 -32.785156 39.859375 -30.765625 C 40.785156 -28.734375 41.335938 -26.660156 41.515625 -24.546875 C 41.609375 -23.535156 41.609375 -22.4375 41.515625 -21.25 C 41.515625 -20.320312 41.378906 -19.304688 41.109375 -18.203125 C 40.648438 -16.085938 39.9375 -14.15625 38.96875 -12.40625 C 38 -10.664062 36.875 -9.0625 35.59375 -7.59375 L 35.03125 -7.03125 C 34.9375 -6.9375 34.84375 -6.820312 34.75 -6.6875 C 34.664062 -6.550781 34.578125 -6.4375 34.484375 -6.34375 L 33.796875 -5.796875 L 33.375 -5.515625 L 33.109375 -5.234375 C 32.460938 -4.773438 32 -4.457031 31.71875 -4.28125 L 30.34375 -3.453125 C 28.59375 -2.617188 26.800781 -1.925781 24.96875 -1.375 C 23.3125 -0.914062 21.65625 -0.570312 20 -0.34375 C 18.34375 -0.113281 16.734375 0.046875 15.171875 0.140625 C 13.515625 0.234375 11.90625 0.28125 10.34375 0.28125 C 8.78125 0.28125 7.171875 0.234375 5.515625 0.140625 L 5.65625 -0.6875 L 5.515625 -0.6875 L 6.625 -93.390625 C 8.738281 -94.023438 10.921875 -94.640625 13.171875 -95.234375 C 15.421875 -95.835938 17.789062 -96.320312 20.28125 -96.6875 C 21.46875 -96.875 22.726562 -97.015625 24.0625 -97.109375 C 25.394531 -97.203125 26.753906 -97.25 28.140625 -97.25 C 29.515625 -97.15625 30.914062 -96.96875 32.34375 -96.6875 C 33.769531 -96.414062 35.21875 -95.957031 36.6875 -95.3125 C 39.445312 -94.207031 41.929688 -92.644531 44.140625 -90.625 C 46.253906 -88.78125 48.046875 -86.523438 49.515625 -83.859375 C 50.898438 -81.472656 51.910156 -78.851562 52.546875 -76 C 52.640625 -75.445312 52.78125 -74.757812 52.96875 -73.9375 C 52.96875 -73.65625 52.988281 -73.332031 53.03125 -72.96875 C 53.082031 -72.601562 53.15625 -72.234375 53.25 -71.859375 Z M 28.28125 -22.0625 C 28.375 -22.53125 28.375 -22.898438 28.28125 -23.171875 C 28.28125 -24.003906 28.09375 -24.738281 27.71875 -25.375 C 27.445312 -26.019531 27.082031 -26.570312 26.625 -27.03125 C 26.25 -27.488281 25.695312 -27.859375 24.96875 -28.140625 C 24.320312 -28.503906 23.539062 -28.78125 22.625 -28.96875 C 21.613281 -29.15625 20.601562 -29.25 19.59375 -29.25 C 19.5 -29.25 19.40625 -29.25 19.3125 -29.25 C 19.21875 -29.25 19.125 -29.25 19.03125 -29.25 L 18.890625 -13.65625 C 19.910156 -13.84375 20.738281 -14.023438 21.375 -14.203125 C 21.925781 -14.296875 22.429688 -14.429688 22.890625 -14.609375 C 23.359375 -14.796875 23.773438 -14.984375 24.140625 -15.171875 C 24.328125 -15.359375 24.507812 -15.5 24.6875 -15.59375 C 24.875 -15.675781 25.015625 -15.765625 25.109375 -15.859375 L 25.25 -15.859375 L 25.25 -16 C 25.332031 -16 25.375 -16 25.375 -16 C 25.375 -16.09375 25.394531 -16.140625 25.4375 -16.140625 C 25.488281 -16.140625 25.515625 -16.140625 25.515625 -16.140625 L 25.796875 -16.421875 C 26.992188 -17.796875 27.773438 -19.3125 28.140625 -20.96875 C 28.234375 -21.425781 28.28125 -21.789062 28.28125 -22.0625 Z M 40 -68.28125 C 40.09375 -69.289062 40.09375 -70.117188 40 -70.765625 C 40 -70.941406 39.972656 -71.125 39.921875 -71.3125 C 39.878906 -71.5 39.859375 -71.679688 39.859375 -71.859375 C 39.765625 -72.410156 39.675781 -72.828125 39.59375 -73.109375 C 39.21875 -74.671875 38.664062 -76.097656 37.9375 -77.390625 C 36.457031 -80.140625 34.34375 -82.019531 31.59375 -83.03125 C 30.488281 -83.582031 29.109375 -83.878906 27.453125 -83.921875 C 25.796875 -83.972656 24.046875 -83.863281 22.203125 -83.59375 C 21.472656 -83.5 20.644531 -83.359375 19.71875 -83.171875 L 19.3125 -44.28125 C 23.726562 -45.75 27.546875 -47.816406 30.765625 -50.484375 C 33.515625 -52.785156 35.71875 -55.5 37.375 -58.625 C 39.03125 -61.75 39.90625 -64.96875 40 -68.28125 Z M 40 -68.28125 "/></g></g><g style="fill:#7ed957;fill-opacity:1;"><g transform="translate(63.470212, 134.48187)"><path style="stroke:none" d="M 69.515625 -66.625 C 72.367188 -56.875 72.832031 -46.894531 70.90625 -36.6875 C 69.976562 -31.632812 68.503906 -26.851562 66.484375 -22.34375 C 65.378906 -19.957031 64.113281 -17.660156 62.6875 -15.453125 C 61.257812 -13.242188 59.582031 -11.128906 57.65625 -9.109375 C 56.644531 -8.179688 55.585938 -7.257812 54.484375 -6.34375 C 53.378906 -5.425781 52.1875 -4.597656 50.90625 -3.859375 C 48.238281 -2.296875 45.429688 -1.238281 42.484375 -0.6875 C 39.453125 -0.132812 36.460938 -0.0859375 33.515625 -0.546875 C 30.671875 -1.003906 27.914062 -1.878906 25.25 -3.171875 C 22.757812 -4.273438 20.363281 -5.835938 18.0625 -7.859375 C 16.039062 -9.609375 14.160156 -11.632812 12.421875 -13.9375 C 10.847656 -16.144531 9.507812 -18.460938 8.40625 -20.890625 C 7.3125 -23.328125 6.441406 -25.789062 5.796875 -28.28125 C 5.148438 -30.757812 4.640625 -33.265625 4.265625 -35.796875 C 3.898438 -38.328125 3.71875 -40.878906 3.71875 -43.453125 C 3.71875 -45.929688 3.832031 -48.390625 4.0625 -50.828125 C 4.289062 -53.265625 4.59375 -55.679688 4.96875 -58.078125 C 5.425781 -60.460938 5.953125 -62.875 6.546875 -65.3125 C 7.148438 -67.75 7.957031 -70.164062 8.96875 -72.5625 C 9.976562 -74.945312 11.148438 -77.265625 12.484375 -79.515625 C 13.816406 -81.773438 15.40625 -83.914062 17.25 -85.9375 L 27.03125 -77.109375 C 24.738281 -74.535156 22.8125 -71.363281 21.25 -67.59375 C 20.507812 -65.75 19.882812 -63.835938 19.375 -61.859375 C 18.875 -59.890625 18.4375 -57.890625 18.0625 -55.859375 C 17.332031 -51.722656 16.96875 -47.628906 16.96875 -43.578125 C 16.96875 -39.535156 17.519531 -35.628906 18.625 -31.859375 C 19.632812 -27.992188 21.148438 -24.59375 23.171875 -21.65625 C 24.273438 -20.1875 25.472656 -18.898438 26.765625 -17.796875 C 28.140625 -16.691406 29.515625 -15.769531 30.890625 -15.03125 C 34.023438 -13.5625 37.0625 -13.101562 40 -13.65625 C 42.945312 -14.207031 45.660156 -15.816406 48.140625 -18.484375 C 50.617188 -20.867188 52.6875 -23.945312 54.34375 -27.71875 C 56 -31.3125 57.195312 -35.128906 57.9375 -39.171875 C 59.40625 -47.265625 58.988281 -55.21875 56.6875 -63.03125 C 56.59375 -63.5 56.476562 -63.960938 56.34375 -64.421875 C 56.207031 -64.878906 56.046875 -65.335938 55.859375 -65.796875 L 55.3125 -67.171875 L 54.765625 -68.5625 C 54.304688 -69.65625 53.890625 -70.523438 53.515625 -71.171875 C 53.335938 -71.546875 53.128906 -71.9375 52.890625 -72.34375 C 52.660156 -72.757812 52.410156 -73.148438 52.140625 -73.515625 C 51.128906 -74.992188 50.023438 -76.285156 48.828125 -77.390625 C 47.722656 -78.398438 46.484375 -79.222656 45.109375 -79.859375 C 44.921875 -79.953125 44.734375 -80.019531 44.546875 -80.0625 C 44.367188 -80.113281 44.1875 -80.140625 44 -80.140625 C 43.90625 -80.234375 43.765625 -80.300781 43.578125 -80.34375 C 43.398438 -80.394531 43.21875 -80.421875 43.03125 -80.421875 C 42.019531 -80.597656 41.148438 -80.734375 40.421875 -80.828125 C 38.578125 -80.921875 36.78125 -80.875 35.03125 -80.6875 C 33.375 -80.414062 31.8125 -79.957031 30.34375 -79.3125 C 28.96875 -78.757812 27.863281 -78.023438 27.03125 -77.109375 L 17.25 -85.9375 C 18.34375 -87.21875 19.554688 -88.316406 20.890625 -89.234375 C 22.222656 -90.160156 23.582031 -90.898438 24.96875 -91.453125 C 26.34375 -92.097656 27.71875 -92.601562 29.09375 -92.96875 C 30.476562 -93.332031 31.863281 -93.609375 33.25 -93.796875 C 36 -94.160156 38.753906 -94.207031 41.515625 -93.9375 C 42.710938 -93.84375 44.09375 -93.660156 45.65625 -93.390625 C 46.300781 -93.296875 47.035156 -93.109375 47.859375 -92.828125 C 48.234375 -92.734375 48.601562 -92.617188 48.96875 -92.484375 C 49.332031 -92.347656 49.703125 -92.234375 50.078125 -92.140625 C 52.921875 -90.941406 55.445312 -89.332031 57.65625 -87.3125 C 59.675781 -85.476562 61.515625 -83.316406 63.171875 -80.828125 C 64.003906 -79.546875 64.695312 -78.398438 65.25 -77.390625 C 65.613281 -76.742188 65.929688 -76.117188 66.203125 -75.515625 C 66.484375 -74.921875 66.71875 -74.347656 66.90625 -73.796875 L 67.734375 -72 L 68.28125 -70.203125 C 68.550781 -69.648438 68.78125 -69.078125 68.96875 -68.484375 C 69.15625 -67.890625 69.335938 -67.269531 69.515625 -66.625 Z M 69.515625 -66.625 "/></g></g><g style="fill:#cb6ce6;fill-opacity:1;"><g transform="translate(139.474675, 134.48187)"><path style="stroke:none" d="M 69.515625 -66.625 C 72.367188 -56.875 72.832031 -46.894531 70.90625 -36.6875 C 69.976562 -31.632812 68.503906 -26.851562 66.484375 -22.34375 C 65.378906 -19.957031 64.113281 -17.660156 62.6875 -15.453125 C 61.257812 -13.242188 59.582031 -11.128906 57.65625 -9.109375 C 56.644531 -8.179688 55.585938 -7.257812 54.484375 -6.34375 C 53.378906 -5.425781 52.1875 -4.597656 50.90625 -3.859375 C 48.238281 -2.296875 45.429688 -1.238281 42.484375 -0.6875 C 39.453125 -0.132812 36.460938 -0.0859375 33.515625 -0.546875 C 30.671875 -1.003906 27.914062 -1.878906 25.25 -3.171875 C 22.757812 -4.273438 20.363281 -5.835938 18.0625 -7.859375 C 16.039062 -9.609375 14.160156 -11.632812 12.421875 -13.9375 C 10.847656 -16.144531 9.507812 -18.460938 8.40625 -20.890625 C 7.3125 -23.328125 6.441406 -25.789062 5.796875 -28.28125 C 5.148438 -30.757812 4.640625 -33.265625 4.265625 -35.796875 C 3.898438 -38.328125 3.71875 -40.878906 3.71875 -43.453125 C 3.71875 -45.929688 3.832031 -48.390625 4.0625 -50.828125 C 4.289062 -53.265625 4.59375 -55.679688 4.96875 -58.078125 C 5.425781 -60.460938 5.953125 -62.875 6.546875 -65.3125 C 7.148438 -67.75 7.957031 -70.164062 8.96875 -72.5625 C 9.976562 -74.945312 11.148438 -77.265625 12.484375 -79.515625 C 13.816406 -81.773438 15.40625 -83.914062 17.25 -85.9375 L 27.03125 -77.109375 C 24.738281 -74.535156 22.8125 -71.363281 21.25 -67.59375 C 20.507812 -65.75 19.882812 -63.835938 19.375 -61.859375 C 18.875 -59.890625 18.4375 -57.890625 18.0625 -55.859375 C 17.332031 -51.722656 16.96875 -47.628906 16.96875 -43.578125 C 16.96875 -39.535156 17.519531 -35.628906 18.625 -31.859375 C 19.632812 -27.992188 21.148438 -24.59375 23.171875 -21.65625 C 24.273438 -20.1875 25.472656 -18.898438 26.765625 -17.796875 C 28.140625 -16.691406 29.515625 -15.769531 30.890625 -15.03125 C 34.023438 -13.5625 37.0625 -13.101562 40 -13.65625 C 42.945312 -14.207031 45.660156 -15.816406 48.140625 -18.484375 C 50.617188 -20.867188 52.6875 -23.945312 54.34375 -27.71875 C 56 -31.3125 57.195312 -35.128906 57.9375 -39.171875 C 59.40625 -47.265625 58.988281 -55.21875 56.6875 -63.03125 C 56.59375 -63.5 56.476562 -63.960938 56.34375 -64.421875 C 56.207031 -64.878906 56.046875 -65.335938 55.859375 -65.796875 L 55.3125 -67.171875 L 54.765625 -68.5625 C 54.304688 -69.65625 53.890625 -70.523438 53.515625 -71.171875 C 53.335938 -71.546875 53.128906 -71.9375 52.890625 -72.34375 C 52.660156 -72.757812 52.410156 -73.148438 52.140625 -73.515625 C 51.128906 -74.992188 50.023438 -76.285156 48.828125 -77.390625 C 47.722656 -78.398438 46.484375 -79.222656 45.109375 -79.859375 C 44.921875 -79.953125 44.734375 -80.019531 44.546875 -80.0625 C 44.367188 -80.113281 44.1875 -80.140625 44 -80.140625 C 43.90625 -80.234375 43.765625 -80.300781 43.578125 -80.34375 C 43.398438 -80.394531 43.21875 -80.421875 43.03125 -80.421875 C 42.019531 -80.597656 41.148438 -80.734375 40.421875 -80.828125 C 38.578125 -80.921875 36.78125 -80.875 35.03125 -80.6875 C 33.375 -80.414062 31.8125 -79.957031 30.34375 -79.3125 C 28.96875 -78.757812 27.863281 -78.023438 27.03125 -77.109375 L 17.25 -85.9375 C 18.34375 -87.21875 19.554688 -88.316406 20.890625 -89.234375 C 22.222656 -90.160156 23.582031 -90.898438 24.96875 -91.453125 C 26.34375 -92.097656 27.71875 -92.601562 29.09375 -92.96875 C 30.476562 -93.332031 31.863281 -93.609375 33.25 -93.796875 C 36 -94.160156 38.753906 -94.207031 41.515625 -93.9375 C 42.710938 -93.84375 44.09375 -93.660156 45.65625 -93.390625 C 46.300781 -93.296875 47.035156 -93.109375 47.859375 -92.828125 C 48.234375 -92.734375 48.601562 -92.617188 48.96875 -92.484375 C 49.332031 -92.347656 49.703125 -92.234375 50.078125 -92.140625 C 52.921875 -90.941406 55.445312 -89.332031 57.65625 -87.3125 C 59.675781 -85.476562 61.515625 -83.316406 63.171875 -80.828125 C 64.003906 -79.546875 64.695312 -78.398438 65.25 -77.390625 C 65.613281 -76.742188 65.929688 -76.117188 66.203125 -75.515625 C 66.484375 -74.921875 66.71875 -74.347656 66.90625 -73.796875 L 67.734375 -72 L 68.28125 -70.203125 C 68.550781 -69.648438 68.78125 -69.078125 68.96875 -68.484375 C 69.15625 -67.890625 69.335938 -67.269531 69.515625 -66.625 Z M 69.515625 -66.625 "/></g></g><g style="fill:#ff914d;fill-opacity:1;"><g transform="translate(215.479142, 134.48187)"><path style="stroke:none" d="M 41.796875 -30.890625 C 44.554688 -27.671875 46.765625 -23.992188 48.421875 -19.859375 C 49.890625 -15.816406 50.804688 -11.679688 51.171875 -7.453125 L 37.9375 -6.484375 C 37.75 -9.421875 37.101562 -12.269531 36 -15.03125 C 34.894531 -17.789062 33.46875 -20.226562 31.71875 -22.34375 C 28.414062 -26.300781 24.375 -28.644531 19.59375 -29.375 C 19.5 -29.289062 19.453125 -29.25 19.453125 -29.25 L 19.859375 1.375 L 6.625 1.65625 L 5.515625 -97.390625 L 18.765625 -97.390625 L 19.3125 -46.625 C 25.9375 -53.238281 31.203125 -60.9375 35.109375 -69.71875 C 39.015625 -78.507812 41.148438 -87.546875 41.515625 -96.828125 L 54.765625 -96.28125 C 54.484375 -89.75 53.46875 -83.3125 51.71875 -76.96875 C 49.976562 -70.625 47.585938 -64.554688 44.546875 -58.765625 C 40.773438 -51.679688 36.222656 -45.242188 30.890625 -39.453125 C 30.984375 -39.453125 31.078125 -39.425781 31.171875 -39.375 C 31.265625 -39.332031 31.359375 -39.265625 31.453125 -39.171875 C 35.398438 -37.148438 38.847656 -34.390625 41.796875 -30.890625 Z M 41.796875 -30.890625 "/></g></g><g style="fill:#ffa9a9;fill-opacity:1;"><g transform="translate(273.410729, 134.48187)"><path style="stroke:none" d="M 27.859375 -81.515625 L 26.890625 -14.625 C 28.546875 -14.625 30.175781 -14.597656 31.78125 -14.546875 C 33.394531 -14.503906 34.984375 -14.484375 36.546875 -14.484375 L 36.421875 -1.234375 C 31.265625 -1.234375 26.203125 -1.28125 21.234375 -1.375 C 16.273438 -1.46875 11.359375 -1.332031 6.484375 -0.96875 L 5.515625 -14.0625 C 6.898438 -14.25 8.257812 -14.363281 9.59375 -14.40625 C 10.925781 -14.457031 12.28125 -14.484375 13.65625 -14.484375 L 14.625 -81.515625 C 13.238281 -81.429688 11.878906 -81.363281 10.546875 -81.3125 C 9.210938 -81.269531 7.859375 -81.203125 6.484375 -81.109375 L 5.515625 -94.34375 C 10.847656 -94.71875 16.085938 -94.878906 21.234375 -94.828125 C 26.390625 -94.785156 31.492188 -94.71875 36.546875 -94.625 L 36.421875 -81.390625 C 35.035156 -81.390625 33.609375 -81.410156 32.140625 -81.453125 C 30.671875 -81.492188 29.242188 -81.515625 27.859375 -81.515625 Z M 27.859375 -81.515625 "/></g></g><g style="fill:#38b6ff;fill-opacity:1;"><g transform="translate(315.623718, 134.48187)"><path style="stroke:none" d="M 56 -96.140625 L 56.140625 -60.6875 C 56.140625 -57.65625 56.140625 -54.664062 56.140625 -51.71875 C 56.140625 -48.78125 56.09375 -45.796875 56 -42.765625 L 56 -37.25 C 55.90625 -35.675781 55.859375 -34.175781 55.859375 -32.75 C 55.859375 -31.332031 55.816406 -29.890625 55.734375 -28.421875 L 55.59375 -24 L 55.453125 -19.71875 C 55.359375 -18.25 55.285156 -16.800781 55.234375 -15.375 C 55.191406 -13.945312 55.125 -12.546875 55.03125 -11.171875 L 42.34375 -9.109375 C 40.414062 -13.796875 38.53125 -18.066406 36.6875 -21.921875 C 34.851562 -25.785156 32.96875 -29.601562 31.03125 -33.375 L 28.140625 -39.171875 C 27.585938 -40.085938 27.082031 -41.03125 26.625 -42 C 26.164062 -42.96875 25.707031 -43.910156 25.25 -44.828125 C 24.226562 -46.941406 23.257812 -48.921875 22.34375 -50.765625 C 22.15625 -51.222656 21.945312 -51.703125 21.71875 -52.203125 C 21.488281 -52.710938 21.238281 -53.242188 20.96875 -53.796875 L 20.421875 -55.171875 L 19.71875 -56.546875 L 19.59375 -52.96875 C 19.40625 -47.351562 19.21875 -41.835938 19.03125 -36.421875 C 18.9375 -30.898438 18.867188 -25.398438 18.828125 -19.921875 C 18.785156 -14.453125 18.765625 -8.960938 18.765625 -3.453125 L 5.515625 -3.453125 C 5.515625 -8.960938 5.535156 -14.5 5.578125 -20.0625 C 5.628906 -25.632812 5.703125 -31.175781 5.796875 -36.6875 C 5.972656 -42.113281 6.15625 -47.675781 6.34375 -53.375 L 6.484375 -58.078125 L 6.890625 -66.203125 L 7.3125 -74.484375 L 7.71875 -82.625 L 20.421875 -84.96875 C 21.335938 -82.851562 22.273438 -80.828125 23.234375 -78.890625 C 24.203125 -76.960938 25.191406 -75.082031 26.203125 -73.25 L 28.96875 -67.734375 C 29.238281 -67.265625 29.488281 -66.800781 29.71875 -66.34375 C 29.957031 -65.882812 30.210938 -65.425781 30.484375 -64.96875 L 31.171875 -63.453125 L 31.71875 -62.078125 L 32.421875 -60.546875 L 33.109375 -59.171875 C 33.285156 -58.710938 33.488281 -58.226562 33.71875 -57.71875 C 33.957031 -57.21875 34.164062 -56.738281 34.34375 -56.28125 C 35.175781 -54.53125 36.097656 -52.691406 37.109375 -50.765625 C 37.566406 -49.835938 38.023438 -48.914062 38.484375 -48 C 38.941406 -47.082031 39.398438 -46.164062 39.859375 -45.25 L 42.765625 -39.59375 L 42.765625 -42.90625 C 42.765625 -45.84375 42.785156 -48.78125 42.828125 -51.71875 C 42.878906 -54.664062 42.90625 -57.609375 42.90625 -60.546875 L 42.765625 -96.140625 Z M 56 -96.140625 "/></g></g><g style="fill:#ff6d4d;fill-opacity:1;"><g transform="translate(377.279981, 134.48187)"><path style="stroke:none" d="M 71.3125 -64.28125 L 58.203125 -66.203125 C 58.296875 -67.222656 58.207031 -68.375 57.9375 -69.65625 C 57.84375 -70.300781 57.679688 -70.945312 57.453125 -71.59375 C 57.222656 -72.238281 56.921875 -72.878906 56.546875 -73.515625 C 56.273438 -74.253906 55.929688 -74.921875 55.515625 -75.515625 C 55.109375 -76.117188 54.671875 -76.695312 54.203125 -77.25 C 53.378906 -78.351562 52.414062 -79.410156 51.3125 -80.421875 C 50.300781 -81.242188 49.335938 -81.796875 48.421875 -82.078125 C 48.421875 -82.078125 48.28125 -82.117188 48 -82.203125 L 47.453125 -82.34375 L 47.03125 -82.484375 L 46.484375 -82.484375 C 46.117188 -82.578125 45.75 -82.644531 45.375 -82.6875 C 45.007812 -82.738281 44.691406 -82.765625 44.421875 -82.765625 C 41.660156 -82.941406 38.992188 -82.390625 36.421875 -81.109375 C 33.835938 -79.910156 31.460938 -78.113281 29.296875 -75.71875 C 27.140625 -73.332031 25.328125 -70.625 23.859375 -67.59375 C 23.128906 -66.207031 22.441406 -64.644531 21.796875 -62.90625 C 21.242188 -61.425781 20.738281 -59.816406 20.28125 -58.078125 C 19.445312 -54.765625 18.984375 -51.359375 18.890625 -47.859375 C 18.710938 -44.460938 18.828125 -41.015625 19.234375 -37.515625 C 19.648438 -34.023438 20.457031 -30.757812 21.65625 -27.71875 C 22.207031 -25.976562 22.851562 -24.460938 23.59375 -23.171875 C 24.320312 -21.703125 25.144531 -20.414062 26.0625 -19.3125 C 26.988281 -18.207031 28.003906 -17.195312 29.109375 -16.28125 C 30.117188 -15.539062 31.265625 -14.847656 32.546875 -14.203125 C 33.097656 -13.929688 33.71875 -13.703125 34.40625 -13.515625 C 35.101562 -13.328125 35.773438 -13.191406 36.421875 -13.109375 L 37.515625 -12.96875 C 37.703125 -12.96875 37.882812 -12.96875 38.0625 -12.96875 C 38.25 -12.96875 38.4375 -12.96875 38.625 -12.96875 C 38.894531 -12.875 39.238281 -12.847656 39.65625 -12.890625 C 40.070312 -12.941406 40.460938 -12.96875 40.828125 -12.96875 C 41.015625 -12.96875 41.175781 -12.988281 41.3125 -13.03125 C 41.445312 -13.082031 41.609375 -13.109375 41.796875 -13.109375 C 41.890625 -13.109375 42.023438 -13.109375 42.203125 -13.109375 C 42.390625 -13.109375 42.578125 -13.148438 42.765625 -13.234375 C 43.035156 -13.328125 43.3125 -13.375 43.59375 -13.375 L 44 -13.515625 L 44.421875 -13.796875 C 44.691406 -13.890625 44.96875 -13.976562 45.25 -14.0625 C 45.425781 -14.15625 45.5625 -14.222656 45.65625 -14.265625 C 45.75 -14.316406 45.890625 -14.390625 46.078125 -14.484375 L 46.484375 -14.765625 C 46.484375 -14.765625 46.53125 -14.785156 46.625 -14.828125 C 46.71875 -14.867188 46.765625 -14.9375 46.765625 -15.03125 C 47.035156 -15.21875 47.3125 -15.40625 47.59375 -15.59375 C 49.519531 -17.332031 51.035156 -19.628906 52.140625 -22.484375 C 52.691406 -23.773438 53.148438 -25.128906 53.515625 -26.546875 C 53.890625 -27.972656 54.164062 -29.421875 54.34375 -30.890625 L 37.375 -31.71875 L 38.078125 -44.828125 L 68.421875 -43.453125 L 67.734375 -30.203125 L 67.59375 -30.203125 C 67.3125 -28.085938 66.914062 -25.972656 66.40625 -23.859375 C 65.90625 -21.742188 65.242188 -19.628906 64.421875 -17.515625 C 64.234375 -16.960938 64 -16.410156 63.71875 -15.859375 C 63.445312 -15.304688 63.21875 -14.753906 63.03125 -14.203125 C 62.851562 -14.023438 62.691406 -13.796875 62.546875 -13.515625 C 62.410156 -13.242188 62.253906 -12.96875 62.078125 -12.6875 L 61.65625 -11.859375 C 61.5625 -11.765625 61.46875 -11.648438 61.375 -11.515625 C 61.289062 -11.378906 61.203125 -11.265625 61.109375 -11.171875 L 60 -9.65625 L 58.90625 -8.140625 L 58.203125 -7.453125 L 57.515625 -6.765625 C 57.242188 -6.578125 56.992188 -6.367188 56.765625 -6.140625 C 56.535156 -5.910156 56.328125 -5.65625 56.140625 -5.375 L 54.484375 -4.28125 C 54.390625 -4.1875 54.273438 -4.066406 54.140625 -3.921875 C 54.003906 -3.785156 53.84375 -3.675781 53.65625 -3.59375 L 52.828125 -3.171875 C 52.554688 -2.984375 52.28125 -2.796875 52 -2.609375 C 51.726562 -2.429688 51.40625 -2.296875 51.03125 -2.203125 C 50.394531 -1.929688 49.800781 -1.65625 49.25 -1.375 C 49.0625 -1.28125 48.894531 -1.210938 48.75 -1.171875 C 48.613281 -1.128906 48.457031 -1.0625 48.28125 -0.96875 L 47.3125 -0.6875 L 45.375 -0.28125 C 45.101562 -0.1875 44.804688 -0.113281 44.484375 -0.0625 C 44.160156 -0.0195312 43.863281 0.046875 43.59375 0.140625 C 43.21875 0.140625 42.867188 0.160156 42.546875 0.203125 C 42.234375 0.253906 41.9375 0.28125 41.65625 0.28125 C 41.007812 0.28125 40.382812 0.300781 39.78125 0.34375 C 39.1875 0.382812 38.617188 0.363281 38.078125 0.28125 C 37.796875 0.28125 37.492188 0.28125 37.171875 0.28125 C 36.847656 0.28125 36.550781 0.28125 36.28125 0.28125 L 34.34375 0 C 33.144531 -0.1875 31.945312 -0.4375 30.75 -0.75 C 29.5625 -1.070312 28.367188 -1.507812 27.171875 -2.0625 C 24.867188 -3.164062 22.753906 -4.457031 20.828125 -5.9375 C 18.984375 -7.5 17.238281 -9.242188 15.59375 -11.171875 C 14.300781 -12.921875 13.054688 -14.851562 11.859375 -16.96875 C 11.304688 -17.976562 10.800781 -19.007812 10.34375 -20.0625 C 9.882812 -21.125 9.472656 -22.160156 9.109375 -23.171875 C 7.722656 -27.222656 6.707031 -31.453125 6.0625 -35.859375 C 5.507812 -39.910156 5.375 -44.140625 5.65625 -48.546875 C 5.84375 -52.867188 6.441406 -57.144531 7.453125 -61.375 C 8.003906 -63.5 8.644531 -65.523438 9.375 -67.453125 C 10.207031 -69.660156 11.082031 -71.679688 12 -73.515625 C 13.007812 -75.546875 14.113281 -77.476562 15.3125 -79.3125 C 16.601562 -81.238281 17.984375 -82.988281 19.453125 -84.5625 C 21.015625 -86.300781 22.710938 -87.90625 24.546875 -89.375 C 26.390625 -90.851562 28.414062 -92.097656 30.625 -93.109375 C 35.3125 -95.316406 40.140625 -96.28125 45.109375 -96 C 45.753906 -95.90625 46.375 -95.835938 46.96875 -95.796875 C 47.5625 -95.753906 48.179688 -95.6875 48.828125 -95.59375 L 49.65625 -95.453125 L 50.625 -95.171875 L 51.453125 -94.90625 C 51.910156 -94.8125 52.234375 -94.71875 52.421875 -94.625 C 53.890625 -94.164062 55.195312 -93.585938 56.34375 -92.890625 C 57.5 -92.203125 58.582031 -91.445312 59.59375 -90.625 C 61.519531 -89.0625 63.21875 -87.335938 64.6875 -85.453125 C 66.164062 -83.566406 67.457031 -81.519531 68.5625 -79.3125 C 69.019531 -78.300781 69.476562 -77.195312 69.9375 -76 C 70.394531 -74.800781 70.71875 -73.609375 70.90625 -72.421875 C 71.175781 -71.128906 71.359375 -69.816406 71.453125 -68.484375 C 71.546875 -67.148438 71.5 -65.75 71.3125 -64.28125 Z M 71.3125 -64.28125 "/></g></g></g></svg>