<svg xmlns="http://www.w3.org/2000/svg" xmlns:xlink="http://www.w3.org/1999/xlink" width="800" zoomAndPan="magnify" viewBox="0 0 600 157.92" height="200" preserveAspectRatio="xMidYMid meet" version="1.2"><defs/><g id="7d58b00068"><g style="fill:#ffa9a9;fill-opacity:1;"><g transform="translate(0.151899, 136.056072)"><path style="stroke:none" d="M 39.171875 -93.25 L 52.421875 -92.96875 L 51.3125 -10.890625 L 37.9375 -11.03125 L 38.484375 -44.546875 C 38.023438 -44.460938 37.703125 -44.421875 37.515625 -44.421875 C 36.410156 -44.234375 35.257812 -44.066406 34.0625 -43.921875 C 32.875 -43.785156 31.679688 -43.628906 30.484375 -43.453125 C 28.640625 -43.171875 26.820312 -42.890625 25.03125 -42.609375 C 23.238281 -42.335938 21.425781 -42.066406 19.59375 -41.796875 C 19.769531 -34.898438 19.972656 -28.003906 20.203125 -21.109375 C 20.429688 -14.210938 20.6875 -7.3125 20.96875 -0.40625 L 7.71875 0.140625 C 6.34375 -31.765625 5.609375 -63.722656 5.515625 -95.734375 L 18.765625 -95.734375 C 18.765625 -89.015625 18.804688 -82.253906 18.890625 -75.453125 C 18.984375 -68.648438 19.125 -61.890625 19.3125 -55.171875 C 20.78125 -55.359375 22.296875 -55.585938 23.859375 -55.859375 C 25.421875 -56.140625 26.984375 -56.367188 28.546875 -56.546875 C 29.742188 -56.734375 30.984375 -56.914062 32.265625 -57.09375 C 33.554688 -57.28125 34.800781 -57.421875 36 -57.515625 C 36.914062 -57.609375 37.789062 -57.703125 38.625 -57.796875 Z M 39.171875 -93.25 "/></g></g><g style="fill:#38b6ff;fill-opacity:1;"><g transform="translate(58.505148, 136.056072)"><path style="stroke:none" d="M 69.515625 -66.625 C 72.367188 -56.875 72.832031 -46.894531 70.90625 -36.6875 C 69.976562 -31.632812 68.503906 -26.851562 66.484375 -22.34375 C 65.378906 -19.957031 64.113281 -17.660156 62.6875 -15.453125 C 61.257812 -13.242188 59.582031 -11.128906 57.65625 -9.109375 C 56.644531 -8.179688 55.585938 -7.257812 54.484375 -6.34375 C 53.378906 -5.425781 52.1875 -4.597656 50.90625 -3.859375 C 48.238281 -2.296875 45.429688 -1.238281 42.484375 -0.6875 C 39.453125 -0.132812 36.460938 -0.0859375 33.515625 -0.546875 C 30.671875 -1.003906 27.914062 -1.878906 25.25 -3.171875 C 22.757812 -4.273438 20.363281 -5.835938 18.0625 -7.859375 C 16.039062 -9.609375 14.160156 -11.632812 12.421875 -13.9375 C 10.847656 -16.144531 9.507812 -18.460938 8.40625 -20.890625 C 7.3125 -23.328125 6.441406 -25.789062 5.796875 -28.28125 C 5.148438 -30.757812 4.640625 -33.265625 4.265625 -35.796875 C 3.898438 -38.328125 3.71875 -40.878906 3.71875 -43.453125 C 3.71875 -45.929688 3.832031 -48.390625 4.0625 -50.828125 C 4.289062 -53.265625 4.59375 -55.679688 4.96875 -58.078125 C 5.425781 -60.460938 5.953125 -62.875 6.546875 -65.3125 C 7.148438 -67.75 7.957031 -70.164062 8.96875 -72.5625 C 9.976562 -74.945312 11.148438 -77.265625 12.484375 -79.515625 C 13.816406 -81.773438 15.40625 -83.914062 17.25 -85.9375 L 27.03125 -77.109375 C 24.738281 -74.535156 22.8125 -71.363281 21.25 -67.59375 C 20.507812 -65.75 19.882812 -63.835938 19.375 -61.859375 C 18.875 -59.890625 18.4375 -57.890625 18.0625 -55.859375 C 17.332031 -51.722656 16.96875 -47.628906 16.96875 -43.578125 C 16.96875 -39.535156 17.519531 -35.628906 18.625 -31.859375 C 19.632812 -27.992188 21.148438 -24.59375 23.171875 -21.65625 C 24.273438 -20.1875 25.472656 -18.898438 26.765625 -17.796875 C 28.140625 -16.691406 29.515625 -15.769531 30.890625 -15.03125 C 34.023438 -13.5625 37.0625 -13.101562 40 -13.65625 C 42.945312 -14.207031 45.660156 -15.816406 48.140625 -18.484375 C 50.617188 -20.867188 52.6875 -23.945312 54.34375 -27.71875 C 56 -31.3125 57.195312 -35.128906 57.9375 -39.171875 C 59.40625 -47.265625 58.988281 -55.21875 56.6875 -63.03125 C 56.59375 -63.5 56.476562 -63.960938 56.34375 -64.421875 C 56.207031 -64.878906 56.046875 -65.335938 55.859375 -65.796875 L 55.3125 -67.171875 L 54.765625 -68.5625 C 54.304688 -69.65625 53.890625 -70.523438 53.515625 -71.171875 C 53.335938 -71.546875 53.128906 -71.9375 52.890625 -72.34375 C 52.660156 -72.757812 52.410156 -73.148438 52.140625 -73.515625 C 51.128906 -74.992188 50.023438 -76.285156 48.828125 -77.390625 C 47.722656 -78.398438 46.484375 -79.222656 45.109375 -79.859375 C 44.921875 -79.953125 44.734375 -80.019531 44.546875 -80.0625 C 44.367188 -80.113281 44.1875 -80.140625 44 -80.140625 C 43.90625 -80.234375 43.765625 -80.300781 43.578125 -80.34375 C 43.398438 -80.394531 43.21875 -80.421875 43.03125 -80.421875 C 42.019531 -80.597656 41.148438 -80.734375 40.421875 -80.828125 C 38.578125 -80.921875 36.78125 -80.875 35.03125 -80.6875 C 33.375 -80.414062 31.8125 -79.957031 30.34375 -79.3125 C 28.96875 -78.757812 27.863281 -78.023438 27.03125 -77.109375 L 17.25 -85.9375 C 18.34375 -87.21875 19.554688 -88.316406 20.890625 -89.234375 C 22.222656 -90.160156 23.582031 -90.898438 24.96875 -91.453125 C 26.34375 -92.097656 27.71875 -92.601562 29.09375 -92.96875 C 30.476562 -93.332031 31.863281 -93.609375 33.25 -93.796875 C 36 -94.160156 38.753906 -94.207031 41.515625 -93.9375 C 42.710938 -93.84375 44.09375 -93.660156 45.65625 -93.390625 C 46.300781 -93.296875 47.035156 -93.109375 47.859375 -92.828125 C 48.234375 -92.734375 48.601562 -92.617188 48.96875 -92.484375 C 49.332031 -92.347656 49.703125 -92.234375 50.078125 -92.140625 C 52.921875 -90.941406 55.445312 -89.332031 57.65625 -87.3125 C 59.675781 -85.476562 61.515625 -83.316406 63.171875 -80.828125 C 64.003906 -79.546875 64.695312 -78.398438 65.25 -77.390625 C 65.613281 -76.742188 65.929688 -76.117188 66.203125 -75.515625 C 66.484375 -74.921875 66.71875 -74.347656 66.90625 -73.796875 L 67.734375 -72 L 68.28125 -70.203125 C 68.550781 -69.648438 68.78125 -69.078125 68.96875 -68.484375 C 69.15625 -67.890625 69.335938 -67.269531 69.515625 -66.625 Z M 69.515625 -66.625 "/></g></g><g style="fill:#ff5757;fill-opacity:1;"><g transform="translate(134.509614, 136.056072)"><path style="stroke:none" d="M 76.6875 -1.9375 L 63.734375 0.140625 C 61.984375 -10.347656 60.394531 -20.832031 58.96875 -31.3125 C 57.539062 -41.789062 56.1875 -52.320312 54.90625 -62.90625 C 54.8125 -62.8125 54.738281 -62.691406 54.6875 -62.546875 C 54.644531 -62.410156 54.625 -62.253906 54.625 -62.078125 C 53.976562 -59.585938 53.332031 -57.054688 52.6875 -54.484375 C 52.050781 -51.910156 51.457031 -49.289062 50.90625 -46.625 L 48.140625 -34.765625 C 47.859375 -33.472656 47.554688 -32.179688 47.234375 -30.890625 C 46.921875 -29.609375 46.625 -28.320312 46.34375 -27.03125 C 46.070312 -25.75 45.773438 -24.460938 45.453125 -23.171875 C 45.128906 -21.890625 44.828125 -20.648438 44.546875 -19.453125 L 31.859375 -18.890625 L 29.515625 -25.796875 L 28.421875 -29.25 L 27.3125 -32.6875 L 25.109375 -39.71875 L 23.71875 -44.421875 L 21.65625 -51.453125 C 21.5625 -50.617188 21.515625 -49.765625 21.515625 -48.890625 C 21.515625 -48.023438 21.46875 -47.175781 21.375 -46.34375 C 21.101562 -39.257812 20.78125 -32.175781 20.40625 -25.09375 C 20.039062 -18.019531 19.535156 -10.894531 18.890625 -3.71875 L 5.65625 -4.96875 C 7.03125 -18.757812 7.878906 -32.734375 8.203125 -46.890625 C 8.523438 -61.054688 9.46875 -75.3125 11.03125 -89.65625 L 24 -90.625 C 25.289062 -85.9375 26.625 -81.222656 28 -76.484375 C 29.382812 -71.742188 30.765625 -67.03125 32.140625 -62.34375 L 36.421875 -48.28125 L 37.109375 -45.9375 L 37.9375 -49.65625 C 38.570312 -52.320312 39.210938 -54.960938 39.859375 -57.578125 C 40.503906 -60.203125 41.148438 -62.800781 41.796875 -65.375 C 42.441406 -68.039062 43.128906 -70.6875 43.859375 -73.3125 C 44.597656 -75.9375 45.378906 -78.535156 46.203125 -81.109375 C 47.035156 -83.773438 47.890625 -86.414062 48.765625 -89.03125 C 49.640625 -91.65625 50.582031 -94.253906 51.59375 -96.828125 L 64.421875 -95.171875 C 66.160156 -79.546875 68.019531 -63.960938 70 -48.421875 C 71.976562 -32.878906 74.207031 -17.382812 76.6875 -1.9375 Z M 76.6875 -1.9375 "/></g></g><g style="fill:#f3d166;fill-opacity:1;"><g transform="translate(217.131818, 136.056072)"><path style="stroke:none" d="M 22.890625 -14.203125 L 39.03125 -14.0625 L 38.890625 -0.828125 L 22.890625 -0.96875 C 21.796875 -0.96875 20.738281 -0.96875 19.71875 -0.96875 L 19.71875 -0.828125 L 6.484375 -0.546875 L 5.515625 -96.5625 L 12.96875 -96.5625 C 17.195312 -96.644531 21.398438 -96.707031 25.578125 -96.75 C 29.765625 -96.800781 33.972656 -96.828125 38.203125 -96.828125 L 38.078125 -83.59375 C 34.859375 -83.59375 31.660156 -83.59375 28.484375 -83.59375 C 25.304688 -83.59375 22.109375 -83.546875 18.890625 -83.453125 L 19.171875 -55.734375 C 20.554688 -55.816406 21.9375 -55.90625 23.3125 -56 C 25.0625 -56.09375 26.757812 -56.1875 28.40625 -56.28125 C 30.0625 -56.375 31.8125 -56.421875 33.65625 -56.421875 L 33.515625 -43.171875 C 31.953125 -43.171875 30.390625 -43.125 28.828125 -43.03125 C 27.265625 -42.945312 25.75 -42.859375 24.28125 -42.765625 C 22.4375 -42.671875 20.78125 -42.53125 19.3125 -42.34375 L 19.59375 -14.203125 C 20.695312 -14.203125 21.796875 -14.203125 22.890625 -14.203125 Z M 22.890625 -14.203125 "/></g></g></g></svg>