<svg xmlns="http://www.w3.org/2000/svg" xmlns:xlink="http://www.w3.org/1999/xlink" width="500" zoomAndPan="magnify" viewBox="0 0 375 374.999991" height="500" preserveAspectRatio="xMidYMid meet" version="1.2"><defs><clipPath id="247fbf0a72"><path d="M 51.136719 46.253906 L 355 46.253906 L 355 285.503906 L 51.136719 285.503906 Z M 51.136719 46.253906 "/></clipPath></defs><g id="ecc595168b"><path style=" stroke:none;fill-rule:nonzero;fill:#f9f3f3;fill-opacity:1;" d="M 1.660156 203.5625 C 2.882812 184.800781 21.292969 171.289062 39.824219 166.628906 C 30.886719 155.363281 34.375 136.816406 46.253906 128.15625 C 56.058594 121.015625 69.085938 121.300781 79.261719 126.699219 C 83.339844 107.480469 92.058594 88.453125 111.9375 80.332031 C 137.671875 69.820312 163.023438 81.335938 185.121094 94.550781 C 189.296875 81.222656 199.484375 70.0625 212.613281 63.214844 C 230.21875 54.03125 250.785156 53.878906 269.191406 61.433594 C 288.851562 69.507812 304.226562 84.800781 314.253906 102.570312 C 322.007812 116.324219 325.621094 133.339844 318.570312 147.078125 C 325.84375 147.742188 333.332031 151.105469 339.199219 154.375 C 348.359375 159.480469 355.988281 166.878906 361.523438 175.449219 C 372.046875 191.773438 374.417969 212.160156 369.117188 230.394531 C 359.226562 264.453125 320.070312 282.824219 285.199219 274.917969 C 286.007812 296.785156 266.976562 316.210938 242.957031 318.34375 C 214.433594 320.871094 190.1875 303.40625 177.558594 280.375 C 154.695312 296.152344 124.140625 300.644531 97.058594 291.824219 C 71.582031 283.539062 48.625 261.222656 49.765625 235.1875 C 28.949219 234.183594 0.183594 226.0625 1.660156 203.5625 Z M 1.660156 203.5625 "/><path style=" stroke:none;fill-rule:nonzero;fill:#a2b8d3;fill-opacity:1;" d="M 361.519531 175.449219 C 355.992188 166.875 348.355469 159.480469 339.199219 154.375 C 333.332031 151.105469 325.839844 147.738281 318.570312 147.078125 C 325.621094 133.339844 322.003906 116.320312 314.25 102.570312 C 304.230469 84.800781 288.847656 69.503906 269.1875 61.433594 C 250.785156 53.882812 230.222656 54.03125 212.613281 63.214844 C 199.480469 70.0625 189.300781 81.21875 185.121094 94.550781 C 163.023438 81.339844 137.667969 69.824219 111.933594 80.332031 C 92.054688 88.449219 83.339844 107.480469 79.265625 126.695312 C 69.089844 121.300781 56.0625 121.015625 46.257812 128.15625 C 34.375 136.816406 30.886719 155.363281 39.820312 166.628906 C 21.292969 171.285156 2.882812 184.804688 1.65625 203.566406 C 0.183594 226.0625 28.949219 234.179688 49.769531 235.191406 C 48.621094 261.226562 71.578125 283.535156 97.054688 291.828125 C 124.144531 300.644531 154.699219 296.152344 177.5625 280.378906 C 190.183594 303.410156 214.4375 320.871094 242.960938 318.34375 C 266.980469 316.214844 286.003906 296.785156 285.203125 274.921875 C 320.066406 282.828125 359.226562 264.453125 369.117188 230.398438 C 374.414062 212.160156 372.050781 191.773438 361.519531 175.449219 Z M 353.578125 229.503906 C 342.851562 258.242188 306.136719 269.957031 277.738281 257.390625 C 271.480469 254.621094 266.070312 261.742188 268.320312 267.03125 C 277.25 287.992188 255.101562 305.292969 234.464844 303.933594 C 211.304688 302.410156 195.71875 285.191406 184.328125 267.609375 C 183.269531 265.972656 181.824219 265.09375 180.332031 264.78125 C 177.777344 263.492188 174.570312 263.421875 171.742188 265.671875 C 153.914062 279.851562 128.886719 284.953125 106.285156 279.101562 C 84.714844 273.515625 59.3125 254.125 65.945312 230.257812 C 67.074219 226.1875 64.40625 220.332031 59.078125 220.578125 C 47.625 221.109375 13.707031 218.976562 16.46875 202.152344 C 18.949219 187.035156 37.855469 177.863281 51.886719 175.351562 C 56.339844 174.550781 57.324219 170.425781 55.664062 167.617188 C 55.996094 166.476562 55.964844 165.257812 55.382812 164.089844 C 51.667969 156.613281 47.308594 147.0625 55.492188 140.539062 C 62.476562 134.972656 73.703125 138.589844 77.78125 145.660156 C 81.757812 152.5625 92.027344 149.84375 92.765625 142.472656 C 94.609375 124.078125 99.347656 100.167969 120.160156 93.066406 C 144.28125 84.828125 168.664062 101.257812 187.144531 114.289062 C 192.40625 118 199.34375 112.9375 199.445312 107.585938 C 200.011719 77.25 237.898438 65.042969 263.753906 75.636719 C 277.648438 81.328125 289.238281 91.707031 297.710938 103.46875 C 307.164062 116.589844 315.472656 136.429688 304.609375 150.8125 C 304.171875 151.390625 303.957031 151.976562 303.882812 152.546875 C 303.082031 155.140625 303.976562 158.226562 306.789062 159.558594 C 312.105469 162.078125 317.398438 161.933594 323.035156 163.585938 C 327.390625 164.863281 331.382812 166.859375 335.105469 169.367188 C 341.882812 173.929688 347.308594 180.125 350.960938 187.191406 C 357.714844 200.269531 358.671875 215.847656 353.578125 229.503906 Z M 353.578125 229.503906 "/><g clip-rule="nonzero" clip-path="url(#247fbf0a72)"><path style=" stroke:none;fill-rule:nonzero;fill:#fcde57;fill-opacity:1;" d="M 196.441406 138.296875 C 196.441406 137.898438 196.441406 137.5 196.507812 137.101562 C 197.171875 134.574219 197.972656 131.984375 198.570312 129.457031 C 199.035156 127.597656 199.234375 125.738281 199.632812 123.875 C 200.03125 122.015625 200.363281 120.222656 200.695312 118.359375 C 200.960938 116.964844 201.160156 115.636719 201.359375 114.238281 C 201.691406 111.582031 202.023438 108.988281 202.289062 106.332031 C 202.355469 105.667969 202.355469 105.003906 202.421875 104.335938 C 202.421875 103.738281 202.488281 103.207031 202.621094 102.675781 C 203.085938 101.082031 202.621094 99.417969 202.820312 97.757812 C 203.019531 95.367188 203.019531 92.972656 202.886719 90.582031 C 202.820312 87.921875 202.820312 85.265625 202.621094 82.605469 C 202.421875 79.679688 202.089844 76.757812 201.691406 73.832031 C 201.425781 72.371094 201.09375 70.910156 200.628906 69.511719 C 200.164062 67.917969 199.699219 66.324219 199.234375 64.726562 C 198.503906 62.003906 197.238281 59.476562 195.511719 57.285156 C 193.851562 55.089844 191.394531 53.761719 188.667969 53.5625 C 187.671875 53.496094 186.675781 53.230469 185.613281 53.164062 C 183.554688 53.097656 181.496094 53.296875 179.5 53.761719 C 177.839844 54.160156 176.179688 54.757812 174.652344 55.492188 C 172.792969 56.222656 170.929688 57.152344 169.269531 58.28125 C 168.273438 58.878906 167.144531 59.277344 166.347656 60.277344 C 166.28125 60.34375 166.148438 60.410156 166.082031 60.476562 C 165.285156 61.007812 164.488281 61.472656 163.6875 62.003906 C 162.691406 62.734375 161.761719 63.53125 160.832031 64.261719 C 160.367188 64.59375 159.902344 64.925781 159.4375 65.261719 C 157.578125 66.523438 156.316406 68.382812 154.585938 69.777344 C 154.054688 70.246094 153.589844 70.777344 153.191406 71.375 C 152.792969 71.773438 152.328125 72.105469 151.863281 72.503906 C 151.730469 72.636719 151.464844 72.703125 151.398438 72.902344 C 151 74.164062 149.9375 74.894531 149.074219 75.894531 C 148.210938 76.890625 147.542969 77.820312 146.746094 78.816406 C 145.949219 79.8125 145.152344 81.011719 144.289062 82.074219 C 143.757812 82.738281 143.160156 83.269531 142.695312 84 C 141.765625 85.332031 140.96875 86.792969 140.039062 88.121094 C 139.371094 89.050781 138.640625 90.050781 138.042969 91.046875 C 137.113281 92.640625 135.984375 94.035156 134.921875 95.566406 C 134.65625 95.964844 134.457031 96.429688 134.257812 96.894531 C 133.261719 98.621094 132.398438 100.351562 131.402344 102.078125 C 130.402344 103.804688 129.40625 105.667969 128.542969 107.527344 C 128.144531 108.390625 127.546875 109.121094 127.082031 109.988281 C 126.285156 111.515625 125.554688 113.109375 124.757812 114.703125 C 124.292969 115.703125 123.828125 116.699219 123.363281 117.695312 C 122.960938 118.492188 122.628906 119.355469 122.296875 120.222656 C 122.097656 120.6875 121.832031 121.152344 121.632812 121.617188 C 121.167969 122.546875 120.769531 123.542969 120.238281 124.472656 C 119.972656 124.941406 119.707031 125.40625 119.375 125.9375 L 119.574219 126.136719 C 118.976562 127.464844 118.378906 128.726562 117.847656 130.058594 C 117.117188 132.050781 116.320312 133.976562 115.457031 135.972656 C 114.992188 137.101562 114.589844 138.296875 114.324219 139.492188 C 114.257812 139.691406 114.324219 139.894531 114.390625 140.09375 C 114.722656 140.691406 114.789062 141.355469 114.589844 142.019531 C 114.523438 142.152344 114.523438 142.285156 114.589844 142.417969 C 115.457031 143.679688 115.125 145.210938 115.390625 146.605469 C 115.589844 148 115.722656 149.460938 115.722656 150.925781 C 115.921875 153.316406 116.121094 155.777344 116.320312 158.167969 C 116.453125 159.695312 116.453125 161.226562 116.519531 162.753906 C 116.585938 164.613281 116.785156 166.476562 116.785156 168.335938 C 116.785156 170.730469 116.785156 173.121094 116.71875 175.515625 C 116.585938 178.4375 116.386719 181.296875 116.253906 184.21875 C 116.121094 186.8125 115.988281 189.402344 115.722656 191.996094 C 115.523438 194.253906 115.324219 196.449219 115.058594 198.640625 C 114.859375 200.4375 114.589844 202.230469 114.324219 204.023438 C 113.792969 207.546875 113.261719 211.070312 112.664062 214.589844 C 112.265625 216.984375 111.800781 219.375 111.335938 221.769531 C 110.671875 225.027344 109.941406 228.214844 109.210938 231.472656 C 109.144531 231.871094 109.011719 232.203125 108.8125 232.535156 C 108.480469 232.933594 108.28125 233.464844 108.414062 233.996094 C 108.414062 234.59375 108.28125 235.261719 108.082031 235.792969 C 107.285156 238.449219 106.484375 241.109375 105.6875 243.765625 C 105.6875 243.832031 105.6875 243.832031 105.621094 243.898438 C 104.425781 245.894531 104.160156 248.21875 103.164062 250.28125 C 102.367188 252.007812 101.769531 253.800781 101.039062 255.53125 C 100.308594 257.257812 99.445312 259.117188 98.648438 260.847656 C 97.449219 263.503906 95.988281 265.964844 94.261719 268.289062 C 94.0625 268.554688 93.929688 268.820312 93.730469 269.152344 C 92.136719 271.613281 90.277344 273.804688 87.617188 275.203125 C 85.890625 276.132812 83.765625 275.800781 82.304688 274.472656 C 81.773438 273.9375 81.304688 273.339844 81.039062 272.609375 C 80.507812 270.949219 80.308594 269.152344 80.441406 267.425781 C 80.507812 267.160156 80.574219 266.894531 80.574219 266.628906 C 80.640625 266.429688 80.640625 266.296875 80.574219 266.097656 C 80.109375 265.367188 79.976562 264.433594 80.242188 263.570312 C 80.441406 262.972656 80.242188 262.242188 80.242188 261.511719 C 80.308594 260.25 80.507812 258.917969 80.441406 257.65625 C 80.375 256.128906 80.507812 254.535156 80.574219 253.003906 C 80.640625 251.808594 80.90625 250.679688 81.039062 249.480469 C 81.238281 247.953125 81.304688 246.359375 81.503906 244.832031 C 81.636719 243.566406 81.972656 242.304688 81.773438 241.042969 C 82.371094 240.246094 82.039062 239.246094 82.238281 238.382812 C 82.4375 237.519531 82.4375 236.589844 82.636719 235.726562 C 83.167969 233.664062 83.101562 231.539062 83.5 229.476562 C 83.765625 228.347656 83.964844 227.152344 84.097656 225.957031 C 84.164062 224.558594 84.628906 223.230469 84.5625 221.835938 C 84.496094 221.171875 84.628906 220.507812 84.894531 219.910156 C 85.292969 219.042969 84.761719 218.046875 85.492188 217.316406 C 85.226562 215.988281 86.023438 214.792969 85.957031 213.527344 C 86.023438 212.796875 86.15625 212.132812 86.421875 211.402344 C 86.820312 210.140625 86.621094 208.742188 87.285156 207.480469 C 87.683594 206.816406 87.550781 205.820312 87.617188 204.957031 C 87.617188 204.824219 87.617188 204.554688 87.683594 204.488281 C 88.214844 203.890625 88.082031 203.09375 88.148438 202.496094 C 88.28125 201.035156 88.746094 199.636719 88.878906 198.242188 C 89.078125 197.046875 89.277344 195.851562 89.609375 194.652344 C 90.078125 192.726562 90.277344 190.667969 90.742188 188.738281 C 91.140625 186.878906 91.804688 185.085938 92.203125 183.289062 C 92.335938 182.558594 92.867188 181.894531 92.667969 181.03125 C 92.601562 180.699219 92.933594 180.300781 93.066406 179.902344 C 93.332031 179.367188 93.53125 178.769531 93.597656 178.171875 C 93.53125 177.441406 94.0625 176.976562 94.0625 176.445312 C 94.0625 175.382812 94.59375 174.515625 94.859375 173.585938 C 95.191406 172.324219 95.589844 171.0625 95.988281 169.800781 C 96.320312 169 96.585938 168.136719 96.71875 167.273438 C 96.71875 166.875 97.117188 166.542969 97.25 166.144531 C 97.582031 165.148438 97.914062 164.148438 98.113281 163.085938 C 98.449219 162.023438 98.847656 160.960938 99.246094 159.898438 C 99.511719 159.03125 99.777344 158.167969 100.042969 157.304688 C 100.308594 156.375 100.640625 155.445312 101.039062 154.511719 C 101.769531 152.71875 102.367188 150.925781 102.832031 149.0625 C 103.097656 148.464844 103.429688 147.867188 103.761719 147.269531 C 103.894531 147.003906 103.894531 146.738281 103.960938 146.472656 C 103.960938 146.273438 103.894531 145.941406 103.960938 145.875 C 104.757812 145.410156 104.492188 144.476562 104.824219 143.8125 C 105.15625 143.148438 105.15625 142.21875 105.621094 141.6875 C 106.285156 140.890625 106.21875 139.960938 106.621094 139.09375 C 107.417969 137.300781 107.351562 137.234375 107.019531 135.375 C 106.351562 131.917969 105.222656 128.527344 103.695312 125.339844 C 103.429688 124.875 103.097656 124.472656 102.765625 124.074219 C 102.566406 123.808594 102.367188 123.542969 102.101562 123.34375 C 101.902344 123.078125 101.636719 122.8125 101.304688 122.613281 C 99.84375 121.882812 98.113281 121.75 96.519531 122.214844 C 94.726562 122.746094 93.066406 123.542969 91.539062 124.671875 C 89.742188 125.804688 88.082031 127.199219 86.6875 128.859375 C 85.957031 129.722656 85.027344 130.523438 84.230469 131.320312 C 82.902344 132.78125 81.703125 134.375 80.707031 136.039062 C 79.910156 137.300781 78.980469 138.496094 78.25 139.828125 C 77.1875 141.6875 76.191406 143.679688 75.128906 145.542969 C 74.265625 146.9375 73.535156 148.464844 73 149.996094 C 72.667969 150.726562 72.335938 151.457031 71.871094 152.1875 C 71.140625 153.714844 70.476562 155.3125 69.746094 156.90625 C 69.015625 158.5 68.351562 160.03125 67.6875 161.558594 C 67.554688 161.957031 67.355469 162.289062 67.222656 162.6875 C 66.691406 164.082031 66.226562 165.480469 65.695312 166.875 C 65.230469 167.9375 64.828125 169.066406 64.496094 170.199219 C 64.296875 171.128906 63.832031 171.925781 63.699219 172.921875 C 63.5 174.316406 62.769531 175.648438 62.304688 176.976562 C 62.105469 177.574219 61.972656 178.238281 61.839844 178.902344 C 61.640625 179.96875 61.441406 181.03125 61.242188 182.160156 C 61.109375 182.957031 61.042969 183.820312 60.84375 184.617188 C 60.378906 186.214844 60.113281 187.808594 59.980469 189.46875 C 59.980469 189.671875 59.914062 189.871094 59.78125 190.070312 C 59.515625 190.601562 59.382812 191.199219 59.382812 191.863281 C 59.25 193.65625 58.984375 195.386719 58.785156 197.179688 C 58.585938 198.972656 58.453125 200.769531 58.320312 202.5625 C 58.253906 204.15625 58.386719 205.820312 58.320312 207.414062 C 58.253906 209.472656 58.320312 211.535156 58.585938 213.527344 C 58.851562 215.855469 59.382812 218.246094 59.714844 220.574219 C 60.046875 222.632812 60.3125 224.695312 60.511719 226.753906 C 60.644531 228.214844 58.917969 230.011719 57.589844 230.078125 C 56.589844 230.011719 55.660156 229.546875 54.996094 228.746094 C 54.265625 227.882812 53.800781 226.820312 53.734375 225.691406 C 53.601562 224.558594 53.203125 223.429688 53.003906 222.300781 C 52.671875 220.972656 52.472656 219.644531 52.472656 218.3125 C 52.472656 217.316406 52.339844 216.320312 52.074219 215.390625 C 51.476562 213.128906 51.542969 210.804688 51.609375 208.542969 C 51.609375 207.8125 51.476562 207.082031 51.476562 206.417969 C 51.476562 204.757812 51.476562 203.09375 51.410156 201.367188 C 52.074219 200.570312 51.144531 199.503906 51.875 198.707031 C 51.609375 197.84375 51.941406 196.980469 52.007812 196.117188 C 51.941406 195.320312 52.074219 194.585938 52.339844 193.855469 C 52.472656 193.457031 52.539062 192.992188 52.539062 192.527344 C 52.605469 192.128906 52.605469 191.730469 52.671875 191.332031 C 52.804688 190.535156 53.070312 189.671875 53.203125 188.871094 C 53.203125 188.738281 53.003906 188.539062 53.003906 188.605469 C 53.203125 187.542969 53.402344 186.679688 53.535156 185.816406 C 53.601562 185.21875 53.46875 184.617188 54 184.152344 C 54.132812 184.019531 54.132812 183.820312 54.132812 183.6875 C 53.933594 181.960938 54.730469 180.300781 54.796875 178.570312 C 54.796875 178.371094 54.863281 178.171875 54.996094 177.972656 C 55.660156 177.175781 55.59375 176.113281 55.726562 175.183594 C 55.792969 174.582031 55.992188 174.050781 56.191406 173.519531 C 56.789062 172.191406 56.925781 170.664062 57.390625 169.265625 C 57.457031 169 57.988281 168.800781 57.988281 168.601562 C 57.988281 168.402344 57.722656 168.003906 58.121094 167.738281 C 58.1875 167.671875 58.253906 167.605469 58.253906 167.539062 C 58.054688 166.144531 59.117188 165.082031 59.382812 163.816406 C 59.449219 163.550781 59.515625 163.351562 59.648438 163.152344 C 60.246094 162.15625 60.644531 161.09375 60.910156 160.03125 C 61.441406 158.167969 62.570312 156.574219 63.035156 154.644531 C 63.300781 153.449219 64.097656 152.386719 64.695312 151.324219 C 65.160156 150.394531 65.894531 149.527344 66.160156 148.597656 C 66.359375 147.734375 66.691406 146.9375 67.15625 146.140625 C 67.820312 145.078125 68.351562 144.011719 68.882812 142.882812 C 69.414062 141.753906 70.078125 140.824219 70.542969 139.691406 C 71.273438 138.230469 72.070312 136.902344 72.933594 135.507812 C 73.535156 134.441406 74.132812 133.445312 74.863281 132.449219 C 75.726562 131.1875 76.589844 129.925781 77.519531 128.726562 C 78.714844 127.199219 79.976562 125.804688 81.238281 124.339844 C 81.972656 123.542969 82.769531 122.8125 83.566406 122.148438 C 84.363281 121.484375 85.160156 120.886719 85.957031 120.289062 C 88.613281 118.292969 91.339844 116.367188 94.660156 115.503906 C 96.1875 115.039062 97.78125 114.972656 99.3125 115.171875 C 100.175781 115.304688 101.105469 115.238281 101.96875 115.304688 C 102.5 115.371094 102.964844 115.570312 103.429688 115.835938 C 104.425781 116.433594 105.355469 117.03125 106.285156 117.695312 C 107.21875 118.425781 108.015625 119.355469 108.480469 120.421875 C 108.746094 120.886719 109.078125 121.351562 109.410156 121.816406 C 110.40625 123.078125 110.738281 124.605469 111.335938 126.070312 C 111.402344 126.269531 111.535156 126.46875 111.734375 126.800781 C 112.132812 125.671875 112.597656 124.539062 113.128906 123.476562 C 113.859375 122.28125 113.726562 120.6875 114.789062 119.621094 C 115.257812 119.15625 115.324219 118.292969 115.589844 117.628906 C 115.789062 117.097656 116.054688 116.566406 116.386719 116.101562 C 116.652344 115.636719 116.386719 114.90625 117.183594 114.703125 C 117.582031 113.707031 117.914062 112.644531 118.378906 111.648438 C 118.84375 110.585938 119.308594 109.585938 119.90625 108.589844 C 120.4375 107.792969 120.570312 106.796875 121.433594 106.332031 C 121.5 106.332031 121.5 106.265625 121.5 106.199219 C 121.566406 104.46875 122.828125 103.273438 123.429688 101.746094 C 124.027344 100.484375 124.691406 99.21875 125.421875 97.957031 C 126.085938 96.628906 126.882812 95.300781 127.8125 94.101562 C 128.277344 93.570312 128.609375 92.90625 128.875 92.242188 C 129.804688 90.25 131 88.320312 132.332031 86.59375 C 132.929688 85.730469 133.527344 84.796875 134.191406 84 C 135.121094 82.871094 135.585938 81.476562 136.78125 80.480469 C 137.378906 79.8125 137.84375 79.148438 138.242188 78.351562 C 139.105469 76.957031 140.171875 75.695312 141.167969 74.429688 C 142.164062 73.167969 143.425781 71.839844 144.554688 70.578125 C 146.015625 68.847656 147.34375 66.855469 149.207031 65.460938 C 149.539062 65.261719 149.871094 65.0625 150.269531 64.859375 C 150.335938 64.0625 151.132812 63.464844 151.796875 62.867188 C 152.726562 62.070312 153.457031 61.207031 154.453125 60.476562 C 155.183594 59.941406 155.714844 59.144531 156.648438 58.8125 C 157.246094 58.546875 157.710938 58.148438 158.042969 57.683594 C 158.90625 56.554688 160.234375 55.957031 161.363281 55.160156 C 162.957031 54.027344 164.6875 52.964844 166.347656 51.96875 C 169.003906 50.375 171.792969 49.042969 174.785156 48.113281 C 177.441406 47.316406 180.164062 46.71875 182.890625 46.320312 C 183.023438 46.253906 183.15625 46.253906 183.289062 46.253906 C 186.609375 46.453125 190 46.453125 193.1875 47.714844 C 195.3125 48.445312 197.238281 49.640625 198.835938 51.238281 C 200.296875 52.765625 201.492188 54.425781 202.421875 56.289062 C 202.554688 56.6875 202.886719 56.953125 203.019531 57.351562 C 203.285156 57.816406 203.75 58.214844 203.683594 58.878906 C 203.617188 59.144531 203.882812 59.410156 204.015625 59.675781 C 204.878906 61.605469 205.609375 63.53125 206.144531 65.59375 C 207.074219 68.847656 207.738281 72.171875 208.136719 75.5625 C 208.734375 79.546875 209.066406 83.535156 209.132812 87.589844 C 209.199219 89.515625 209.332031 91.378906 209.398438 93.304688 C 209.398438 94.433594 209.265625 95.5 209.265625 96.628906 C 209.199219 98.089844 209.199219 99.550781 209.199219 101.082031 C 209.132812 104.003906 208.867188 106.929688 208.402344 109.851562 C 208.070312 112.3125 207.671875 114.769531 207.40625 117.230469 C 207.074219 120.355469 206.410156 123.410156 205.742188 126.535156 C 205.210938 129.058594 204.679688 131.652344 204.082031 134.175781 C 203.617188 136.039062 203.019531 137.832031 202.488281 139.691406 C 202.023438 141.289062 201.558594 142.882812 201.09375 144.609375 C 201.625 144.542969 202.15625 144.34375 202.621094 143.945312 C 203.351562 143.347656 204.082031 142.882812 204.878906 142.417969 C 206.410156 141.421875 207.871094 140.425781 209.398438 139.492188 C 211.65625 138.097656 214.046875 136.769531 216.175781 135.242188 C 218.035156 133.910156 220.160156 133.113281 222.085938 131.851562 C 223.019531 131.386719 223.949219 130.921875 224.878906 130.589844 C 227.070312 129.523438 229.261719 128.328125 231.457031 127.332031 C 233.449219 126.402344 235.441406 125.539062 237.433594 124.738281 C 240.226562 123.675781 243.015625 122.613281 245.804688 121.683594 C 247.402344 121.152344 249.0625 120.753906 250.65625 120.289062 C 251.519531 120.023438 252.382812 119.6875 253.246094 119.421875 C 255.4375 118.824219 257.632812 118.292969 259.824219 117.761719 C 262.945312 117.03125 266.070312 116.367188 269.125 115.636719 C 273.179688 114.636719 277.296875 114.238281 281.417969 113.640625 C 283.144531 113.308594 284.871094 113.242188 286.597656 113.441406 C 287.992188 113.640625 289.390625 113.441406 290.785156 113.507812 C 292.3125 113.507812 293.773438 113.773438 295.167969 114.371094 C 295.964844 114.636719 296.761719 115.039062 297.496094 115.4375 C 298.027344 115.769531 298.292969 116.433594 298.824219 116.832031 C 300.417969 118.160156 301.082031 120.15625 302.011719 121.882812 C 302.34375 122.613281 302.542969 123.410156 302.609375 124.273438 C 303.140625 126.933594 303.273438 129.589844 303.074219 132.316406 C 302.742188 135.175781 302.410156 138.097656 301.878906 140.957031 C 301.679688 142.550781 301.214844 144.011719 300.484375 145.410156 C 300.085938 146.273438 299.753906 147.203125 299.488281 148.132812 C 299.222656 148.863281 298.890625 149.59375 298.492188 150.261719 C 297.230469 152.71875 296.03125 155.246094 294.703125 157.636719 C 293.90625 159.097656 293.375 160.628906 292.3125 161.957031 C 291.449219 163.019531 290.917969 164.414062 290.1875 165.613281 C 289.324219 167.007812 288.390625 168.402344 287.460938 169.734375 C 286.398438 171.394531 285.335938 173.054688 284.207031 174.785156 C 283.410156 176.046875 282.546875 177.308594 281.683594 178.570312 C 280.152344 180.898438 278.425781 183.023438 276.699219 185.21875 C 275.238281 187.011719 274.042969 189.003906 272.714844 190.933594 C 272.050781 191.863281 271.25 192.792969 270.519531 193.722656 C 268.992188 195.71875 267.53125 197.777344 265.9375 199.707031 C 264.542969 201.566406 263.011719 203.292969 261.550781 205.089844 C 261.085938 205.6875 260.488281 206.21875 259.957031 206.75 L 260.089844 207.015625 C 261.085938 206.75 262.082031 206.617188 263.078125 206.285156 C 264.078125 205.953125 264.808594 205.554688 265.738281 205.222656 C 267.199219 204.757812 268.726562 204.289062 270.253906 203.957031 C 271.582031 203.492188 272.914062 203.09375 274.242188 202.828125 C 275.039062 202.628906 275.902344 202.296875 276.632812 201.964844 C 278.824219 201.300781 280.953125 200.636719 283.144531 199.972656 C 283.941406 199.707031 284.738281 199.4375 285.601562 199.171875 C 286.066406 199.039062 286.53125 198.839844 286.996094 198.707031 C 288.390625 198.308594 289.855469 197.84375 291.25 197.445312 C 293.242188 196.914062 295.300781 196.382812 297.363281 195.851562 C 298.160156 195.652344 299.023438 195.453125 299.886719 195.320312 C 302.808594 194.789062 305.667969 193.921875 308.65625 193.722656 C 309.585938 193.589844 310.515625 193.390625 311.378906 193.058594 C 312.308594 192.859375 313.238281 192.660156 314.171875 192.527344 C 316.296875 192.261719 318.355469 191.796875 320.480469 191.464844 C 321.613281 191.265625 322.742188 191.132812 323.871094 190.933594 C 324.535156 190.800781 325.199219 190.601562 325.929688 190.46875 C 327.257812 190.269531 328.585938 190.203125 329.847656 190.003906 C 330.515625 189.9375 331.113281 189.738281 331.777344 189.601562 C 332.308594 189.535156 332.839844 189.535156 333.371094 189.46875 C 334.898438 189.269531 336.359375 189.070312 337.886719 188.9375 C 340.28125 188.804688 342.671875 188.605469 344.996094 188.671875 C 346.925781 188.671875 348.851562 188.40625 350.84375 188.804688 C 352.570312 189.070312 354.03125 190.203125 354.695312 191.730469 C 355.628906 193.789062 354.164062 195.386719 352.105469 195.851562 C 350.644531 196.117188 349.117188 196.183594 347.65625 195.917969 C 346.527344 195.785156 345.460938 195.785156 344.332031 195.851562 C 342.539062 195.917969 340.746094 196.117188 338.953125 196.25 C 338.152344 196.316406 337.289062 196.515625 336.492188 196.582031 C 336.160156 196.582031 335.828125 196.515625 335.496094 196.582031 C 333.171875 196.847656 330.847656 197.046875 328.453125 197.3125 C 326.328125 197.511719 324.269531 197.84375 322.144531 198.308594 C 320.148438 198.839844 318.089844 198.839844 316.164062 199.371094 C 314.171875 199.90625 312.109375 200.304688 310.117188 200.570312 C 306.730469 201.035156 303.40625 201.964844 300.019531 202.429688 C 298.691406 202.695312 297.363281 203.09375 296.097656 203.558594 C 294.371094 204.023438 292.710938 204.488281 290.984375 204.957031 C 289.65625 205.355469 288.324219 205.621094 286.996094 206.085938 C 284.671875 206.882812 282.28125 207.746094 279.886719 208.410156 C 278.625 208.742188 277.496094 209.273438 276.234375 209.609375 C 275.105469 209.808594 273.976562 210.140625 272.914062 210.605469 C 272.582031 210.804688 272.046875 210.671875 271.582031 210.871094 C 270.785156 211.136719 269.988281 211.535156 269.191406 211.800781 C 267.664062 212.265625 266.136719 212.730469 264.542969 213.195312 C 263.742188 213.328125 263.011719 213.660156 262.414062 214.191406 C 262.015625 214.660156 261.351562 214.390625 260.820312 214.660156 C 259.957031 215.058594 258.960938 215.390625 258.03125 215.789062 C 256.636719 216.386719 255.238281 216.917969 253.777344 217.382812 C 253.246094 217.515625 252.714844 217.582031 252.183594 217.582031 C 251.585938 217.980469 251.121094 218.511719 250.589844 218.578125 C 249.925781 218.710938 249.328125 219.109375 248.863281 219.644531 C 246.734375 221.96875 244.675781 224.292969 242.550781 226.6875 C 241.886719 227.417969 241.222656 228.082031 240.558594 228.8125 C 238.828125 230.609375 237.167969 232.46875 235.308594 234.0625 C 234.046875 235.195312 232.984375 236.390625 231.855469 237.585938 C 230.722656 238.78125 229.527344 239.914062 228.332031 241.109375 C 226.871094 242.503906 225.476562 243.898438 224.015625 245.296875 C 222.554688 246.691406 221.089844 248.085938 219.496094 249.347656 C 217.570312 251.011719 215.578125 252.539062 213.648438 254.132812 C 212.585938 255 211.589844 255.996094 210.59375 256.925781 C 210.394531 257.125 210.328125 257.589844 209.863281 257.257812 C 209.796875 257.257812 209.664062 257.324219 209.597656 257.390625 C 208.535156 258.519531 207.40625 259.585938 206.144531 260.449219 C 203.949219 262.308594 201.492188 263.703125 199.167969 265.367188 C 196.441406 267.292969 193.71875 269.152344 190.863281 270.949219 C 188.800781 272.277344 186.609375 273.472656 184.417969 274.539062 C 183.289062 275.003906 182.359375 275.734375 181.230469 276.265625 C 179.167969 277.328125 177.109375 278.324219 174.984375 279.320312 C 172.859375 280.320312 170.796875 281.316406 168.738281 282.179688 C 167.34375 282.777344 165.816406 283.175781 164.351562 283.640625 C 163.089844 284.039062 161.761719 284.441406 160.433594 284.707031 C 160.035156 284.773438 159.703125 284.90625 159.304688 285.039062 L 158.640625 284.507812 C 158.507812 284.507812 158.375 284.507812 158.375 284.574219 C 158.109375 285.039062 157.644531 285.238281 157.179688 285.238281 C 156.046875 285.238281 154.917969 285.503906 153.722656 285.503906 C 152.0625 285.4375 150.335938 285.304688 148.675781 285.039062 C 145.882812 284.574219 143.824219 282.179688 143.757812 279.390625 C 143.757812 277.992188 143.890625 276.664062 144.289062 275.335938 C 144.6875 273.871094 145.617188 272.808594 146.214844 271.546875 C 146.8125 270.285156 148.007812 269.285156 148.875 268.222656 C 150.070312 266.828125 151.398438 265.566406 152.792969 264.367188 C 154.519531 262.839844 156.316406 261.378906 158.109375 259.984375 C 159.503906 258.917969 160.964844 257.921875 162.359375 256.925781 C 163.886719 255.796875 165.417969 254.535156 166.945312 253.46875 C 168.007812 252.738281 169.203125 252.140625 170.332031 251.476562 C 170.796875 251.210938 171.328125 250.546875 171.792969 250.613281 C 172.65625 250.679688 172.789062 249.882812 173.390625 249.683594 C 173.988281 249.550781 174.585938 249.214844 175.117188 248.816406 C 176.84375 247.023438 178.96875 245.960938 181.027344 244.765625 C 183.421875 243.300781 185.8125 241.839844 188.203125 240.378906 C 188.734375 240.046875 189.265625 239.847656 189.734375 239.582031 C 191.726562 238.515625 193.71875 237.519531 195.710938 236.457031 C 196.175781 236.191406 196.574219 235.59375 197.039062 235.527344 C 197.972656 235.460938 198.304688 234.597656 199.101562 234.328125 C 199.898438 234.0625 200.628906 233.730469 201.359375 233.332031 C 202.488281 232.734375 203.550781 232.070312 204.679688 231.472656 C 206.078125 230.742188 207.472656 229.878906 208.933594 229.210938 C 210.460938 228.546875 211.988281 227.816406 213.382812 226.886719 C 214.449219 226.289062 215.578125 225.757812 216.773438 225.292969 C 217.902344 224.761719 219.097656 224.292969 220.226562 223.695312 C 222.085938 222.832031 223.882812 221.769531 225.808594 221.105469 C 227.601562 220.507812 229.0625 219.308594 230.792969 218.644531 C 231.457031 218.378906 232.121094 218.113281 232.71875 217.847656 C 233.648438 217.449219 234.578125 216.984375 235.507812 216.585938 C 236.96875 215.988281 238.496094 215.390625 239.960938 214.792969 C 241.554688 214.125 243.214844 213.527344 244.808594 212.863281 C 245.472656 212.464844 246.070312 212 246.667969 211.535156 C 247.199219 211.269531 247.535156 210.804688 247.601562 210.207031 C 247.667969 209.941406 247.800781 209.675781 248.066406 209.542969 C 249.527344 208.875 250.257812 207.480469 251.253906 206.351562 C 251.785156 205.753906 252.117188 204.957031 252.648438 204.289062 C 252.914062 203.957031 253.246094 203.691406 253.578125 203.492188 C 254.308594 203.160156 254.90625 202.5625 255.171875 201.765625 C 255.238281 201.5 255.304688 201.167969 255.773438 201.234375 C 255.90625 201.234375 255.972656 201.167969 256.039062 201.035156 C 256.371094 199.640625 257.765625 199.039062 258.296875 197.777344 C 258.5625 197.113281 259.359375 196.714844 260.023438 196.183594 C 260.488281 195.71875 260.886719 195.1875 261.152344 194.65625 C 261.949219 193.589844 262.8125 192.59375 263.609375 191.597656 C 264.078125 191.066406 264.476562 190.46875 264.875 189.9375 C 267.199219 186.8125 269.523438 183.753906 271.78125 180.632812 C 272.980469 178.96875 273.976562 177.175781 275.171875 175.515625 C 276.367188 173.851562 277.695312 172.257812 278.890625 170.597656 C 279.421875 169.867188 279.886719 169.066406 280.355469 168.269531 C 280.820312 167.472656 281.152344 166.808594 281.617188 166.144531 C 282.082031 165.546875 282.414062 164.816406 282.613281 164.015625 C 282.613281 163.816406 282.746094 163.617188 282.878906 163.484375 C 283.808594 163.085938 284.007812 162.222656 284.539062 161.492188 C 284.871094 160.960938 285.269531 160.363281 285.667969 159.832031 C 286.597656 158.367188 287.394531 156.839844 287.992188 155.246094 C 288.058594 154.980469 288.257812 154.714844 288.457031 154.511719 C 289.789062 153.050781 290.453125 151.191406 291.316406 149.460938 C 292.179688 147.734375 292.976562 146.074219 293.707031 144.277344 C 294.039062 143.546875 294.238281 142.816406 294.4375 142.085938 C 294.703125 141.15625 295.101562 140.292969 295.300781 139.292969 C 295.699219 137.367188 296.03125 135.375 296.164062 133.445312 C 296.363281 131.917969 296.429688 130.457031 296.429688 128.925781 C 296.429688 126.933594 295.964844 124.941406 295.035156 123.210938 C 294.570312 122.015625 293.441406 121.21875 292.179688 121.085938 C 290.519531 120.953125 288.925781 120.554688 287.261719 120.355469 C 286.53125 120.355469 285.800781 120.355469 285.070312 120.488281 C 282.679688 120.753906 280.285156 121.21875 277.894531 121.285156 C 276.101562 121.351562 274.507812 122.015625 272.78125 122.214844 C 271.449219 122.347656 270.121094 122.613281 268.792969 122.878906 C 267 123.277344 265.207031 123.742188 263.410156 124.140625 C 262.613281 124.339844 261.816406 124.40625 261.085938 124.605469 C 260.15625 124.875 259.160156 125.140625 258.230469 125.40625 C 257.566406 125.605469 256.96875 125.804688 256.304688 125.9375 C 254.242188 126.402344 252.25 127 250.324219 127.730469 C 249.261719 128.128906 248.066406 128.261719 247 128.726562 C 245.9375 129.191406 244.875 129.125 243.878906 129.789062 C 243.015625 130.257812 242.152344 130.589844 241.222656 130.855469 C 240.359375 131.1875 239.496094 131.453125 238.628906 131.785156 C 237.632812 132.183594 236.636719 132.582031 235.640625 132.980469 C 235.109375 133.179688 234.644531 133.445312 234.113281 133.710938 C 232.851562 134.308594 231.589844 134.976562 230.324219 135.574219 C 228 136.703125 225.742188 137.898438 223.417969 139.027344 C 222.285156 139.691406 221.089844 140.359375 219.828125 140.890625 C 218.5 141.488281 217.238281 142.21875 216.109375 143.148438 C 215.246094 143.746094 214.316406 144.34375 213.382812 144.878906 C 212.917969 145.144531 212.519531 145.476562 212.054688 145.742188 C 211.390625 146.339844 210.660156 146.871094 209.863281 147.269531 C 209.199219 147.535156 209 148.199219 208.335938 148.398438 C 207.738281 148.730469 207.140625 149.128906 206.609375 149.59375 C 205.742188 150.195312 204.8125 150.792969 203.949219 151.390625 C 203.351562 151.789062 202.753906 152.253906 202.15625 152.71875 C 201.09375 153.449219 200.164062 154.179688 199.167969 154.980469 C 197.773438 156.308594 196.109375 157.371094 195.378906 159.230469 C 194.980469 160.164062 194.648438 161.09375 194.316406 161.957031 C 192.921875 165.28125 191.527344 168.535156 190.132812 171.859375 C 189.265625 173.917969 188.402344 175.980469 187.40625 177.972656 C 186.808594 179.234375 186.078125 180.367188 185.546875 181.5625 C 185.148438 182.359375 184.949219 183.289062 184.617188 184.152344 C 184.285156 185.019531 183.820312 185.949219 183.355469 186.878906 C 182.292969 189.070312 181.164062 191.265625 180.097656 193.457031 C 179.632812 194.386719 179.300781 195.253906 178.835938 196.183594 C 177.042969 199.773438 175.25 203.359375 173.390625 206.949219 C 171.660156 210.207031 169.800781 213.328125 168.074219 216.519531 C 167.742188 217.25 167.277344 217.980469 166.613281 218.511719 C 166.480469 218.578125 166.480469 218.84375 166.347656 218.976562 C 165.949219 219.710938 165.550781 220.507812 165.152344 221.238281 C 164.886719 221.703125 164.484375 222.167969 164.21875 222.632812 C 163.421875 224.027344 162.425781 225.425781 161.363281 226.621094 C 161.230469 226.753906 161.164062 226.886719 161.097656 227.019531 C 159.570312 229.210938 158.109375 231.472656 156.449219 233.597656 C 155.050781 235.460938 153.457031 237.1875 151.929688 238.914062 C 150.734375 240.3125 149.472656 241.707031 148.144531 242.96875 C 146.8125 244.296875 145.21875 245.296875 143.425781 245.960938 C 142.097656 246.425781 140.636719 246.226562 139.503906 245.363281 C 139.238281 245.164062 139.039062 244.898438 138.90625 244.566406 C 138.042969 242.96875 137.511719 241.242188 137.378906 239.445312 C 137.3125 237.519531 137.113281 235.59375 137.511719 233.664062 C 137.511719 233.265625 137.511719 232.867188 137.511719 232.46875 C 137.644531 231.207031 137.777344 229.878906 137.976562 228.613281 C 137.976562 228.546875 137.976562 228.546875 137.976562 228.480469 C 138.972656 227.21875 138.441406 225.625 138.839844 224.226562 C 139.4375 222.167969 139.90625 220.109375 140.835938 218.179688 C 140.96875 217.914062 140.902344 217.515625 141.035156 217.183594 C 141.5 216.386719 141.898438 215.523438 142.296875 214.660156 C 142.5625 213.792969 143.027344 213.0625 143.359375 212.199219 C 143.824219 211.070312 144.289062 209.941406 144.953125 208.875 C 145.882812 207.28125 146.613281 205.621094 147.476562 203.957031 C 147.875 203.226562 148.34375 202.496094 148.808594 201.832031 C 149.472656 200.96875 150.003906 200.039062 150.46875 199.039062 C 151 198.042969 151.597656 197.046875 152.328125 196.117188 C 153.523438 194.386719 154.71875 192.59375 155.914062 190.867188 C 156.582031 189.9375 157.3125 189.070312 157.976562 188.140625 C 158.441406 187.410156 158.972656 186.746094 159.503906 186.082031 C 160.765625 184.550781 162.027344 182.957031 163.289062 181.429688 C 164.417969 180.101562 165.75 178.902344 166.679688 177.441406 C 167.609375 175.980469 168.9375 174.917969 169.933594 173.519531 C 170.664062 172.65625 171.460938 171.859375 172.324219 171.0625 C 172.792969 170.597656 173.191406 170 173.65625 169.464844 C 174.851562 168.070312 176.113281 166.742188 177.507812 165.480469 C 178.171875 164.949219 178.703125 164.082031 179.433594 163.417969 C 180.695312 162.289062 181.828125 161.09375 183.089844 159.898438 C 184.484375 158.566406 185.945312 157.171875 187.339844 155.84375 C 188.203125 155.113281 189.066406 154.378906 189.933594 153.648438 C 190.265625 153.382812 190.53125 153.050781 190.664062 152.71875 C 192.125 148.730469 193.851562 144.8125 194.914062 140.691406 C 195.046875 140.160156 195.179688 139.625 195.445312 139.160156 C 196.042969 138.5625 196.308594 138.429688 196.441406 138.296875 Z M 109.277344 153.117188 C 108.8125 153.980469 108.414062 154.914062 108.148438 155.910156 C 107.882812 157.039062 107.550781 158.167969 107.152344 159.296875 C 107.085938 159.496094 106.953125 159.628906 106.820312 159.832031 C 106.753906 160.03125 106.550781 160.230469 106.621094 160.363281 C 106.820312 160.761719 106.621094 160.960938 106.417969 161.226562 C 106.152344 161.558594 106.019531 161.957031 105.953125 162.355469 C 105.820312 163.75 105.15625 165.015625 104.625 166.277344 C 104.292969 167.074219 104.027344 167.871094 103.828125 168.667969 C 103.5625 169.730469 103.363281 170.796875 103.03125 171.859375 C 102.832031 172.523438 102.433594 173.121094 102.300781 173.785156 C 102.167969 174.449219 101.371094 175.050781 101.835938 175.847656 C 101.304688 177.707031 100.773438 179.5 100.242188 181.363281 C 99.777344 183.023438 99.046875 184.617188 99.046875 186.414062 C 99.046875 186.480469 99.046875 186.546875 99.046875 186.679688 C 98.113281 188.273438 98.246094 190.203125 97.648438 191.929688 C 97.183594 193.589844 96.851562 195.1875 96.585938 196.847656 C 96.320312 198.042969 96.054688 199.171875 95.789062 200.304688 C 95.457031 201.964844 95.257812 203.691406 94.992188 205.355469 C 94.726562 206.550781 94.527344 207.746094 94.394531 209.007812 C 94.328125 210.207031 93.597656 211.335938 93.796875 212.53125 C 93.796875 212.53125 93.796875 212.597656 93.730469 212.664062 C 93.265625 213.394531 93.464844 214.257812 93.199219 214.992188 C 92.933594 216.121094 92.800781 217.316406 92.667969 218.445312 C 92.667969 218.910156 92.601562 219.375 92.46875 219.777344 C 92.003906 220.574219 92.136719 221.371094 92.070312 222.167969 C 92.003906 223.296875 91.738281 224.425781 91.539062 225.558594 C 91.40625 226.554688 91.207031 227.484375 91.007812 228.414062 C 90.808594 229.34375 90.742188 230.476562 90.542969 231.539062 C 90.277344 233.464844 89.875 235.394531 89.675781 237.386719 C 89.476562 239.378906 89.277344 241.308594 88.878906 243.234375 C 88.679688 244.296875 88.613281 245.429688 88.480469 246.492188 C 88.347656 248.21875 88.28125 250.015625 88.015625 251.742188 C 87.816406 253.070312 88.148438 254.398438 87.550781 255.664062 C 87.75 257.65625 87.351562 259.652344 87.351562 261.644531 C 87.351562 262.839844 87.417969 264.035156 87.484375 265.566406 C 87.882812 265.300781 88.214844 265.035156 88.546875 264.703125 C 89.34375 263.570312 90.078125 262.375 90.875 261.179688 C 91.738281 259.785156 92.070312 258.121094 93 256.792969 C 93.863281 255.398438 94.527344 254 95.125 252.472656 C 96.1875 250.015625 97.117188 247.488281 98.179688 245.03125 C 98.449219 244.296875 98.78125 243.566406 99.046875 242.835938 C 99.644531 240.910156 100.175781 238.980469 100.707031 237.054688 C 101.039062 235.992188 101.371094 234.929688 101.703125 233.863281 C 102.5 230.808594 103.296875 227.816406 104.09375 224.761719 C 104.226562 224.160156 104.492188 223.5625 104.625 222.964844 C 104.957031 221.304688 105.089844 219.644531 105.488281 217.980469 C 105.953125 215.789062 106.085938 213.59375 106.621094 211.402344 C 107.085938 209.339844 107.285156 207.214844 107.550781 205.15625 C 108.148438 201.035156 108.679688 196.847656 109.210938 192.660156 C 109.34375 191.398438 109.277344 190.070312 109.410156 188.804688 C 109.609375 186.613281 109.941406 184.351562 110.074219 182.160156 C 110.207031 179.96875 110.140625 177.574219 110.207031 175.25 C 110.339844 170.664062 110.273438 166.144531 110.140625 161.558594 C 110.074219 160.429688 109.875 159.363281 109.875 158.234375 C 109.941406 156.707031 109.742188 154.914062 109.277344 153.117188 Z M 234.578125 224.628906 C 233.847656 224.761719 233.183594 224.960938 232.519531 225.226562 C 231.523438 225.691406 230.523438 226.222656 229.59375 226.6875 C 228.863281 227.152344 228.132812 227.550781 227.335938 227.882812 C 225.078125 228.613281 223.21875 229.945312 221.089844 230.875 C 220.425781 231.207031 219.761719 231.539062 219.097656 231.804688 C 217.039062 232.535156 214.980469 233.464844 213.050781 234.597656 C 212.121094 235.128906 211.191406 235.59375 210.261719 236.058594 C 209.199219 236.589844 208.136719 237.054688 207.074219 237.652344 C 206.011719 238.25 204.945312 238.914062 203.882812 239.445312 C 202.820312 239.980469 201.957031 240.644531 200.894531 241.109375 C 199.367188 241.773438 198.039062 242.96875 196.507812 243.632812 C 194.515625 244.496094 192.65625 245.628906 190.730469 246.691406 C 189.199219 247.554688 187.804688 248.550781 186.277344 249.414062 C 185.214844 250.082031 184.152344 250.613281 183.089844 251.210938 C 181.5625 252.074219 180.164062 253.203125 178.636719 254.199219 C 176.511719 255.597656 174.320312 256.992188 172.125 258.320312 C 170.996094 259.050781 169.800781 259.71875 168.671875 260.515625 C 166.878906 261.777344 165.152344 263.171875 163.355469 264.503906 C 162.292969 265.300781 161.363281 266.296875 160.167969 267.027344 C 159.371094 267.558594 158.90625 268.421875 158.175781 268.820312 C 156.714844 269.6875 155.648438 270.949219 154.453125 272.144531 C 153.125 273.40625 152.0625 274.871094 151.332031 276.597656 C 150.933594 277.59375 151.199219 277.992188 152.261719 277.992188 C 152.859375 277.992188 153.457031 277.992188 154.121094 278.058594 C 155.847656 278.324219 157.511719 277.660156 159.171875 277.394531 C 160.699219 277.128906 162.160156 276.730469 163.488281 276 C 163.6875 275.933594 163.886719 275.734375 164.019531 275.800781 C 164.753906 276 165.285156 275.535156 165.882812 275.269531 C 166.414062 274.9375 166.945312 274.671875 167.542969 274.472656 C 169.46875 274.136719 171.0625 273.207031 172.726562 272.34375 C 174.652344 271.347656 176.578125 270.417969 178.570312 269.417969 C 179.300781 269.085938 179.964844 268.753906 180.628906 268.355469 C 181.496094 267.890625 182.160156 267.027344 183.289062 267.160156 C 183.421875 267.160156 183.554688 267.09375 183.621094 266.960938 C 183.820312 266.296875 184.484375 266.296875 184.949219 266.097656 C 185.480469 265.898438 185.945312 265.632812 186.34375 265.300781 C 187.273438 264.570312 188.335938 263.96875 189.335938 263.371094 C 191.128906 262.242188 192.921875 261.246094 194.582031 259.984375 C 195.976562 258.917969 197.503906 258.054688 198.96875 257.125 L 198.96875 256.59375 C 199.433594 256.460938 199.898438 256.261719 200.296875 256.0625 C 201.425781 255.332031 202.488281 254.535156 203.484375 253.667969 C 204.8125 252.40625 206.277344 251.410156 207.671875 250.28125 C 208.734375 249.347656 210.0625 248.550781 210.925781 247.488281 C 211.65625 246.558594 212.519531 245.695312 213.515625 245.097656 C 215.445312 243.964844 216.972656 242.371094 218.632812 240.910156 C 220.625 239.179688 222.621094 237.320312 224.414062 235.328125 C 225.144531 234.394531 226.007812 233.53125 227.003906 232.800781 C 227.667969 232.269531 228.332031 231.738281 228.929688 231.074219 C 230.125 230.144531 231.125 228.945312 231.855469 227.617188 C 231.988281 227.351562 232.253906 227.152344 232.519531 227.019531 C 233.382812 226.355469 234.113281 225.558594 234.578125 224.628906 Z M 144.820312 236.390625 C 145.285156 236.125 145.683594 235.792969 146.082031 235.394531 C 146.878906 234.527344 147.609375 233.664062 148.34375 232.734375 C 149.871094 230.941406 151.398438 229.144531 152.925781 227.351562 C 154.320312 225.691406 155.117188 223.628906 156.714844 222.101562 C 156.78125 222.101562 156.78125 222.035156 156.78125 221.96875 C 158.175781 219.644531 159.96875 217.582031 160.898438 215.058594 C 160.964844 214.925781 161.03125 214.792969 161.097656 214.792969 C 161.628906 214.792969 161.628906 214.390625 161.828125 214.058594 C 162.292969 213.261719 162.824219 212.464844 163.355469 211.667969 C 164.019531 210.539062 164.621094 209.40625 165.285156 208.210938 C 165.683594 207.546875 165.949219 206.816406 166.347656 206.152344 C 167.144531 204.757812 167.941406 203.492188 168.671875 202.097656 C 169.601562 200.371094 170.398438 198.507812 171.261719 196.78125 C 172.125 195.054688 173.125 193.125 174.054688 191.265625 C 174.1875 191 174.253906 190.667969 174.386719 190.402344 C 174.519531 190.070312 174.652344 189.734375 174.851562 189.402344 C 175.117188 188.9375 175.515625 188.539062 175.714844 188.074219 C 176.84375 185.75 177.90625 183.355469 178.96875 181.03125 C 179.234375 180.5 179.5 179.902344 179.765625 179.367188 C 180.363281 178.171875 180.960938 177.042969 181.429688 175.78125 C 181.761719 174.714844 182.226562 173.71875 182.890625 172.855469 C 183.023438 172.722656 183.15625 172.589844 183.222656 172.390625 C 183.488281 171.527344 183.820312 170.664062 184.019531 169.800781 C 184.019531 169.53125 184.019531 169.265625 183.953125 169 C 183.6875 169.132812 183.488281 169.265625 183.222656 169.464844 C 182.160156 170.664062 181.027344 171.925781 179.964844 173.121094 C 179.234375 173.984375 178.371094 174.714844 177.640625 175.582031 C 176.046875 177.574219 174.320312 179.367188 172.65625 181.296875 C 170.597656 183.6875 168.539062 186.148438 166.546875 188.605469 C 165.21875 190.269531 163.886719 191.929688 162.558594 193.65625 C 161.828125 194.652344 161.097656 195.652344 160.433594 196.648438 C 159.636719 197.910156 158.90625 199.171875 158.109375 200.371094 C 157.378906 201.433594 156.582031 202.429688 155.914062 203.425781 C 155.183594 204.621094 154.519531 205.953125 153.789062 207.148438 C 152.660156 208.875 151.730469 210.738281 150.867188 212.597656 C 150.335938 213.859375 149.605469 215.125 149.007812 216.386719 C 148.609375 217.316406 148.277344 218.3125 147.875 219.242188 C 147.410156 220.441406 146.945312 221.636719 146.414062 222.898438 C 145.816406 224.292969 145.882812 225.890625 145.152344 227.285156 C 144.953125 227.75 144.820312 228.28125 144.886719 228.878906 C 144.886719 230.210938 144.820312 231.605469 144.621094 232.933594 C 144.6875 233.996094 144.820312 235.128906 144.820312 236.390625 Z M 144.820312 236.390625 "/></g></g></svg>