<svg xmlns="http://www.w3.org/2000/svg" xmlns:xlink="http://www.w3.org/1999/xlink" width="800" zoomAndPan="magnify" viewBox="0 0 600 157.92" height="200" preserveAspectRatio="xMidYMid meet" version="1.2"><defs/><g id="abc759370c"><g style="fill:#7ed957;fill-opacity:1;"><g transform="translate(-1.0757, 138.601066)"><path style="stroke:none" d="M 45.53125 -71.828125 C 45.8125 -69.890625 45.953125 -67.863281 45.953125 -65.75 C 46.046875 -61.59375 45.535156 -57.578125 44.421875 -53.703125 L 44.015625 -52.3125 L 43.453125 -50.65625 L 43.1875 -49.96875 L 42.765625 -49.140625 C 42.671875 -48.859375 42.554688 -48.601562 42.421875 -48.375 C 42.285156 -48.144531 42.171875 -47.890625 42.078125 -47.609375 C 41.054688 -45.671875 39.8125 -43.875 38.34375 -42.21875 C 36.863281 -40.550781 35.316406 -39.070312 33.703125 -37.78125 C 32.085938 -36.488281 30.40625 -35.335938 28.65625 -34.328125 C 27.082031 -33.398438 25.460938 -32.566406 23.796875 -31.828125 C 22.140625 -31.085938 20.484375 -30.441406 18.828125 -29.890625 C 18.828125 -24.910156 18.847656 -19.90625 18.890625 -14.875 C 18.941406 -9.84375 19.007812 -4.835938 19.09375 0.140625 L 5.8125 0.421875 C 5.53125 -16.003906 5.4375 -32.40625 5.53125 -48.78125 C 5.625 -65.164062 5.898438 -81.566406 6.359375 -97.984375 L 14.53125 -97.859375 C 18.6875 -98.316406 22.65625 -97.804688 26.4375 -96.328125 C 28.5625 -95.585938 30.546875 -94.570312 32.390625 -93.28125 C 34.234375 -92.082031 35.894531 -90.65625 37.375 -89 C 38.9375 -87.425781 40.273438 -85.71875 41.390625 -83.875 C 41.660156 -83.320312 41.929688 -82.8125 42.203125 -82.34375 C 42.484375 -81.882812 42.71875 -81.378906 42.90625 -80.828125 C 43.09375 -80.367188 43.300781 -79.882812 43.53125 -79.375 C 43.757812 -78.863281 43.96875 -78.332031 44.15625 -77.78125 C 44.332031 -77.320312 44.46875 -76.835938 44.5625 -76.328125 C 44.65625 -75.816406 44.796875 -75.332031 44.984375 -74.875 C 45.078125 -74.320312 45.164062 -73.789062 45.25 -73.28125 C 45.34375 -72.78125 45.4375 -72.296875 45.53125 -71.828125 Z M 31.6875 -57.296875 C 32.425781 -59.972656 32.75 -62.742188 32.65625 -65.609375 C 32.65625 -67.171875 32.566406 -68.550781 32.390625 -69.75 C 32.390625 -70.125 32.34375 -70.472656 32.25 -70.796875 C 32.15625 -71.117188 32.0625 -71.460938 31.96875 -71.828125 C 31.875 -72.109375 31.800781 -72.410156 31.75 -72.734375 C 31.707031 -73.054688 31.597656 -73.351562 31.421875 -73.625 C 31.328125 -73.90625 31.234375 -74.207031 31.140625 -74.53125 C 31.046875 -74.851562 30.953125 -75.15625 30.859375 -75.4375 C 30.679688 -75.707031 30.519531 -75.976562 30.375 -76.25 C 30.238281 -76.53125 30.078125 -76.765625 29.890625 -76.953125 C 29.335938 -78.054688 28.644531 -79.023438 27.8125 -79.859375 C 26.894531 -80.785156 25.925781 -81.617188 24.90625 -82.359375 C 23.988281 -83.003906 22.976562 -83.507812 21.875 -83.875 C 21.039062 -84.238281 20.207031 -84.46875 19.375 -84.5625 C 19.1875 -77.832031 19.046875 -71.117188 18.953125 -64.421875 C 18.867188 -57.734375 18.828125 -51.023438 18.828125 -44.296875 C 20.765625 -45.117188 22.539062 -46.082031 24.15625 -47.1875 C 25.769531 -48.300781 27.128906 -49.550781 28.234375 -50.9375 C 29.066406 -51.851562 29.757812 -52.820312 30.3125 -53.84375 C 30.40625 -54.019531 30.472656 -54.175781 30.515625 -54.3125 C 30.566406 -54.457031 30.632812 -54.578125 30.71875 -54.671875 L 30.859375 -55.078125 L 31 -55.5 L 31.28125 -56.328125 Z M 31.6875 -57.296875 "/></g></g><g style="fill:#f3d166;fill-opacity:1;"><g transform="translate(50.827385, 138.601066)"><path style="stroke:none" d="M 47.0625 -72.53125 C 48.070312 -68.5625 48.484375 -64.5 48.296875 -60.34375 C 48.296875 -59.882812 48.273438 -59.398438 48.234375 -58.890625 C 48.191406 -58.378906 48.171875 -57.847656 48.171875 -57.296875 C 48.078125 -57.023438 48.03125 -56.769531 48.03125 -56.53125 C 48.03125 -56.300781 47.984375 -56.050781 47.890625 -55.78125 L 47.75 -54.25 C 47.65625 -53.789062 47.539062 -53.304688 47.40625 -52.796875 C 47.269531 -52.296875 47.15625 -51.765625 47.0625 -51.203125 C 46.96875 -50.929688 46.894531 -50.679688 46.84375 -50.453125 C 46.800781 -50.222656 46.734375 -49.96875 46.640625 -49.6875 C 46.546875 -49.40625 46.453125 -49.148438 46.359375 -48.921875 C 46.273438 -48.691406 46.1875 -48.441406 46.09375 -48.171875 L 45.390625 -46.5 C 45.304688 -46.226562 45.21875 -45.972656 45.125 -45.734375 C 45.03125 -45.503906 44.890625 -45.253906 44.703125 -44.984375 C 44.515625 -44.523438 44.257812 -44.039062 43.9375 -43.53125 C 43.613281 -43.019531 43.316406 -42.535156 43.046875 -42.078125 C 42.398438 -41.148438 41.726562 -40.269531 41.03125 -39.4375 C 40.34375 -38.613281 39.628906 -37.832031 38.890625 -37.09375 L 38.203125 -36.546875 L 37.640625 -35.984375 L 36.546875 -34.875 C 36.078125 -34.601562 35.632812 -34.304688 35.21875 -33.984375 C 34.8125 -33.660156 34.421875 -33.359375 34.046875 -33.078125 L 33.21875 -32.53125 C 34.226562 -31.695312 35.195312 -30.796875 36.125 -29.828125 C 37.050781 -28.859375 37.878906 -27.863281 38.609375 -26.84375 C 43.503906 -20.664062 46.597656 -13.65625 47.890625 -5.8125 L 34.734375 -3.734375 C 33.816406 -9.273438 31.601562 -14.257812 28.09375 -18.6875 C 26.34375 -20.988281 24.59375 -22.648438 22.84375 -23.671875 C 21.550781 -24.410156 20.257812 -24.78125 18.96875 -24.78125 C 18.96875 -17.394531 19.007812 -10.054688 19.09375 -2.765625 L 5.8125 -2.484375 C 5.71875 -10.328125 5.644531 -18.125 5.59375 -25.875 C 5.550781 -33.632812 5.53125 -41.429688 5.53125 -49.265625 C 5.53125 -57.023438 5.578125 -64.800781 5.671875 -72.59375 C 5.765625 -80.394531 5.90625 -88.210938 6.09375 -96.046875 L 18.265625 -95.640625 C 19.285156 -95.734375 20.367188 -95.734375 21.515625 -95.640625 C 22.671875 -95.546875 23.800781 -95.40625 24.90625 -95.21875 C 27.3125 -94.664062 29.53125 -93.835938 31.5625 -92.734375 C 32.664062 -92.179688 33.65625 -91.582031 34.53125 -90.9375 C 35.40625 -90.289062 36.257812 -89.644531 37.09375 -89 C 37.457031 -88.71875 37.820312 -88.414062 38.1875 -88.09375 C 38.5625 -87.769531 38.9375 -87.378906 39.3125 -86.921875 C 39.582031 -86.640625 39.8125 -86.40625 40 -86.21875 C 40.1875 -86.039062 40.367188 -85.8125 40.546875 -85.53125 L 41.65625 -84.296875 C 41.9375 -83.921875 42.125 -83.6875 42.21875 -83.59375 L 42.625 -82.765625 L 43.59375 -81.390625 C 43.6875 -81.109375 43.800781 -80.851562 43.9375 -80.625 C 44.082031 -80.394531 44.203125 -80.1875 44.296875 -80 C 44.378906 -79.71875 44.488281 -79.460938 44.625 -79.234375 C 44.769531 -79.003906 44.890625 -78.75 44.984375 -78.46875 C 45.171875 -78.007812 45.378906 -77.523438 45.609375 -77.015625 C 45.835938 -76.515625 46.046875 -75.988281 46.234375 -75.4375 L 46.640625 -74.046875 Z M 35.015625 -60.765625 C 35.109375 -63.617188 34.832031 -66.429688 34.1875 -69.203125 C 33.8125 -70.585938 33.367188 -71.878906 32.859375 -73.078125 C 32.359375 -74.273438 31.738281 -75.335938 31 -76.265625 L 30.453125 -76.953125 C 30.359375 -77.046875 30.265625 -77.140625 30.171875 -77.234375 C 30.078125 -77.328125 29.984375 -77.414062 29.890625 -77.5 C 29.617188 -77.78125 29.160156 -78.242188 28.515625 -78.890625 C 27.398438 -79.816406 26.335938 -80.554688 25.328125 -81.109375 C 24.492188 -81.566406 23.476562 -81.890625 22.28125 -82.078125 C 21.363281 -82.347656 20.300781 -82.441406 19.09375 -82.359375 C 19.007812 -76.910156 18.941406 -71.414062 18.890625 -65.875 C 18.847656 -60.34375 18.828125 -54.804688 18.828125 -49.265625 C 18.828125 -47.703125 18.828125 -46.132812 18.828125 -44.5625 C 18.828125 -43 18.828125 -41.429688 18.828125 -39.859375 C 20.210938 -40.503906 21.503906 -41.101562 22.703125 -41.65625 C 22.972656 -41.84375 23.269531 -42.023438 23.59375 -42.203125 C 23.914062 -42.390625 24.265625 -42.578125 24.640625 -42.765625 L 25.46875 -43.328125 L 26.4375 -44.015625 C 26.707031 -44.203125 26.984375 -44.382812 27.265625 -44.5625 C 27.546875 -44.75 27.820312 -44.984375 28.09375 -45.265625 L 28.78125 -45.8125 L 29.203125 -46.234375 L 29.484375 -46.5 C 30.035156 -46.96875 30.492188 -47.453125 30.859375 -47.953125 C 31.234375 -48.460938 31.601562 -48.945312 31.96875 -49.40625 C 32.15625 -49.6875 32.316406 -49.960938 32.453125 -50.234375 C 32.585938 -50.515625 32.75 -50.796875 32.9375 -51.078125 C 32.9375 -51.160156 32.984375 -51.269531 33.078125 -51.40625 C 33.171875 -51.550781 33.21875 -51.71875 33.21875 -51.90625 L 33.625 -52.734375 C 33.625 -52.828125 33.644531 -52.941406 33.6875 -53.078125 C 33.738281 -53.210938 33.8125 -53.375 33.90625 -53.5625 C 33.90625 -53.75 33.925781 -53.910156 33.96875 -54.046875 C 34.019531 -54.179688 34.09375 -54.34375 34.1875 -54.53125 C 34.28125 -54.894531 34.375 -55.238281 34.46875 -55.5625 C 34.5625 -55.882812 34.609375 -56.234375 34.609375 -56.609375 L 34.734375 -57.578125 L 34.875 -58.6875 C 34.96875 -59.050781 35.015625 -59.394531 35.015625 -59.71875 C 35.015625 -60.039062 35.015625 -60.390625 35.015625 -60.765625 Z M 35.015625 -60.765625 "/></g></g><g style="fill:#5170ff;fill-opacity:1;"><g transform="translate(105.082537, 138.601066)"><path style="stroke:none" d="M 27.953125 -81.796875 L 26.984375 -14.671875 C 28.648438 -14.671875 30.289062 -14.644531 31.90625 -14.59375 C 33.519531 -14.550781 35.109375 -14.53125 36.671875 -14.53125 L 36.546875 -1.25 C 31.367188 -1.25 26.289062 -1.289062 21.3125 -1.375 C 16.332031 -1.46875 11.394531 -1.332031 6.5 -0.96875 L 5.53125 -14.125 C 6.914062 -14.300781 8.273438 -14.410156 9.609375 -14.453125 C 10.953125 -14.503906 12.316406 -14.53125 13.703125 -14.53125 L 14.671875 -81.796875 C 13.285156 -81.703125 11.921875 -81.628906 10.578125 -81.578125 C 9.242188 -81.535156 7.882812 -81.472656 6.5 -81.390625 L 5.53125 -94.671875 C 10.882812 -95.035156 16.144531 -95.191406 21.3125 -95.140625 C 26.476562 -95.097656 31.597656 -95.035156 36.671875 -94.953125 L 36.546875 -81.65625 C 35.160156 -81.65625 33.726562 -81.675781 32.25 -81.71875 C 30.769531 -81.769531 29.335938 -81.796875 27.953125 -81.796875 Z M 27.953125 -81.796875 "/></g></g><g style="fill:#cb6ce6;fill-opacity:1;"><g transform="translate(147.445965, 138.601066)"><path style="stroke:none" d="M 56.046875 -98.265625 L 68.921875 -94.53125 C 66.890625 -87.789062 64.925781 -81.003906 63.03125 -74.171875 C 61.144531 -67.347656 59.234375 -60.523438 57.296875 -53.703125 C 56.378906 -50.285156 55.410156 -46.867188 54.390625 -43.453125 C 53.378906 -40.046875 52.316406 -36.632812 51.203125 -33.21875 C 50.648438 -31.46875 50.097656 -29.738281 49.546875 -28.03125 C 48.992188 -26.320312 48.441406 -24.632812 47.890625 -22.96875 L 47.203125 -20.625 L 46.234375 -18.125 L 44.5625 -13.15625 L 42.765625 -8.171875 L 40.96875 -3.328125 L 28.375 -3.734375 L 25.75 -12.453125 L 23.109375 -21.171875 L 20.203125 -31 C 18.546875 -36.8125 16.882812 -42.765625 15.21875 -48.859375 C 13.5625 -54.765625 11.945312 -60.691406 10.375 -66.640625 C 8.8125 -72.585938 7.289062 -78.5625 5.8125 -84.5625 L 18.6875 -87.75 C 20.164062 -81.84375 21.6875 -75.9375 23.25 -70.03125 C 24.820312 -64.125 26.390625 -58.21875 27.953125 -52.3125 C 29.617188 -46.320312 31.28125 -40.460938 32.9375 -34.734375 L 35.296875 -26.84375 L 35.296875 -27.125 C 35.847656 -28.789062 36.398438 -30.453125 36.953125 -32.109375 C 37.503906 -33.773438 38.054688 -35.4375 38.609375 -37.09375 C 39.628906 -40.414062 40.625 -43.757812 41.59375 -47.125 C 42.5625 -50.488281 43.550781 -53.878906 44.5625 -57.296875 C 46.40625 -64.128906 48.296875 -70.957031 50.234375 -77.78125 C 52.171875 -84.613281 54.109375 -91.441406 56.046875 -98.265625 Z M 56.046875 -98.265625 "/></g></g><g style="fill:#ffde59;fill-opacity:1;"><g transform="translate(219.282457, 138.601066)"><path style="stroke:none" d="M 63.671875 1.796875 L 50.65625 4.15625 L 44.84375 -27.125 C 43.1875 -27.21875 41.476562 -27.238281 39.71875 -27.1875 C 37.96875 -27.144531 36.171875 -27.125 34.328125 -27.125 C 32.566406 -27.125 30.765625 -27.125 28.921875 -27.125 C 27.078125 -27.125 25.234375 -27.171875 23.390625 -27.265625 L 16.1875 -4.015625 L 3.453125 -7.890625 L 32.25 -100.765625 L 45.125 -99.921875 Z M 34.1875 -40.421875 C 35.476562 -40.421875 36.816406 -40.441406 38.203125 -40.484375 C 39.585938 -40.523438 41.015625 -40.503906 42.484375 -40.421875 L 36.953125 -70.859375 L 27.40625 -40.421875 C 29.613281 -40.421875 31.875 -40.421875 34.1875 -40.421875 Z M 34.1875 -40.421875 "/></g></g><g style="fill:#ff6d4d;fill-opacity:1;"><g transform="translate(286.690767, 138.601066)"><path style="stroke:none" d="M 41.25 -95.921875 L 40.96875 -82.625 C 38.570312 -82.71875 36.171875 -82.785156 33.765625 -82.828125 C 31.367188 -82.878906 28.972656 -82.953125 26.578125 -83.046875 L 25.609375 0 L 12.3125 -0.140625 L 13.28125 -83.328125 C 11.070312 -83.328125 8.859375 -83.347656 6.640625 -83.390625 C 4.429688 -83.429688 2.21875 -83.453125 0 -83.453125 L 0 -96.75 C 6.914062 -96.75 13.8125 -96.65625 20.6875 -96.46875 C 27.5625 -96.28125 34.414062 -96.097656 41.25 -95.921875 Z M 41.25 -95.921875 "/></g></g><g style="fill:#7ed957;fill-opacity:1;"><g transform="translate(330.433902, 138.601066)"><path style="stroke:none" d="M 22.96875 -14.25 L 39.171875 -14.125 L 39.03125 -0.828125 L 22.96875 -0.96875 C 21.863281 -0.96875 20.804688 -0.96875 19.796875 -0.96875 L 19.796875 -0.828125 L 6.5 -0.546875 L 5.53125 -96.890625 L 13.015625 -96.890625 C 17.253906 -96.972656 21.472656 -97.035156 25.671875 -97.078125 C 29.867188 -97.128906 34.09375 -97.15625 38.34375 -97.15625 L 38.203125 -83.875 C 34.972656 -83.875 31.765625 -83.875 28.578125 -83.875 C 25.398438 -83.875 22.195312 -83.828125 18.96875 -83.734375 L 19.234375 -55.921875 C 20.617188 -56.003906 22.003906 -56.09375 23.390625 -56.1875 C 25.140625 -56.28125 26.84375 -56.375 28.5 -56.46875 C 30.164062 -56.5625 31.921875 -56.609375 33.765625 -56.609375 L 33.625 -43.328125 C 32.0625 -43.328125 30.492188 -43.28125 28.921875 -43.1875 C 27.359375 -43.09375 25.835938 -43 24.359375 -42.90625 C 22.515625 -42.8125 20.851562 -42.671875 19.375 -42.484375 L 19.65625 -14.25 C 20.757812 -14.25 21.863281 -14.25 22.96875 -14.25 Z M 22.96875 -14.25 "/></g></g><g style="fill:#000000;fill-opacity:1;"><g transform="translate(375.14939, 138.601066)"><path style="stroke:none" d=""/></g></g><g style="fill:#0097b2;fill-opacity:1;"><g transform="translate(401.179776, 138.601066)"><path style="stroke:none" d="M 39.3125 -93.5625 L 52.59375 -93.28125 L 51.484375 -10.9375 L 38.0625 -11.078125 L 38.609375 -44.703125 C 38.148438 -44.609375 37.828125 -44.5625 37.640625 -44.5625 C 36.535156 -44.382812 35.382812 -44.222656 34.1875 -44.078125 C 32.988281 -43.941406 31.789062 -43.78125 30.59375 -43.59375 C 28.738281 -43.320312 26.910156 -43.046875 25.109375 -42.765625 C 23.316406 -42.492188 21.5 -42.21875 19.65625 -41.9375 C 19.84375 -35.019531 20.050781 -28.097656 20.28125 -21.171875 C 20.507812 -14.253906 20.757812 -7.335938 21.03125 -0.421875 L 7.75 0.140625 C 6.363281 -31.878906 5.625 -63.941406 5.53125 -96.046875 L 18.828125 -96.046875 C 18.828125 -89.316406 18.867188 -82.535156 18.953125 -75.703125 C 19.046875 -68.878906 19.1875 -62.097656 19.375 -55.359375 C 20.851562 -55.546875 22.375 -55.773438 23.9375 -56.046875 C 25.507812 -56.328125 27.082031 -56.5625 28.65625 -56.75 C 29.851562 -56.925781 31.097656 -57.109375 32.390625 -57.296875 C 33.679688 -57.484375 34.925781 -57.625 36.125 -57.71875 C 37.050781 -57.8125 37.925781 -57.90625 38.75 -58 Z M 39.3125 -93.5625 "/></g></g><g style="fill:#ff66c4;fill-opacity:1;"><g transform="translate(459.731711, 138.601066)"><path style="stroke:none" d="M 27.953125 -81.796875 L 26.984375 -14.671875 C 28.648438 -14.671875 30.289062 -14.644531 31.90625 -14.59375 C 33.519531 -14.550781 35.109375 -14.53125 36.671875 -14.53125 L 36.546875 -1.25 C 31.367188 -1.25 26.289062 -1.289062 21.3125 -1.375 C 16.332031 -1.46875 11.394531 -1.332031 6.5 -0.96875 L 5.53125 -14.125 C 6.914062 -14.300781 8.273438 -14.410156 9.609375 -14.453125 C 10.953125 -14.503906 12.316406 -14.53125 13.703125 -14.53125 L 14.671875 -81.796875 C 13.285156 -81.703125 11.921875 -81.628906 10.578125 -81.578125 C 9.242188 -81.535156 7.882812 -81.472656 6.5 -81.390625 L 5.53125 -94.671875 C 10.882812 -95.035156 16.144531 -95.191406 21.3125 -95.140625 C 26.476562 -95.097656 31.597656 -95.035156 36.671875 -94.953125 L 36.546875 -81.65625 C 35.160156 -81.65625 33.726562 -81.675781 32.25 -81.71875 C 30.769531 -81.769531 29.335938 -81.796875 27.953125 -81.796875 Z M 27.953125 -81.796875 "/></g></g><g style="fill:#7ed957;fill-opacity:1;"><g transform="translate(502.09514, 138.601066)"><path style="stroke:none" d="M 47.0625 -72.53125 C 48.070312 -68.5625 48.484375 -64.5 48.296875 -60.34375 C 48.296875 -59.882812 48.273438 -59.398438 48.234375 -58.890625 C 48.191406 -58.378906 48.171875 -57.847656 48.171875 -57.296875 C 48.078125 -57.023438 48.03125 -56.769531 48.03125 -56.53125 C 48.03125 -56.300781 47.984375 -56.050781 47.890625 -55.78125 L 47.75 -54.25 C 47.65625 -53.789062 47.539062 -53.304688 47.40625 -52.796875 C 47.269531 -52.296875 47.15625 -51.765625 47.0625 -51.203125 C 46.96875 -50.929688 46.894531 -50.679688 46.84375 -50.453125 C 46.800781 -50.222656 46.734375 -49.96875 46.640625 -49.6875 C 46.546875 -49.40625 46.453125 -49.148438 46.359375 -48.921875 C 46.273438 -48.691406 46.1875 -48.441406 46.09375 -48.171875 L 45.390625 -46.5 C 45.304688 -46.226562 45.21875 -45.972656 45.125 -45.734375 C 45.03125 -45.503906 44.890625 -45.253906 44.703125 -44.984375 C 44.515625 -44.523438 44.257812 -44.039062 43.9375 -43.53125 C 43.613281 -43.019531 43.316406 -42.535156 43.046875 -42.078125 C 42.398438 -41.148438 41.726562 -40.269531 41.03125 -39.4375 C 40.34375 -38.613281 39.628906 -37.832031 38.890625 -37.09375 L 38.203125 -36.546875 L 37.640625 -35.984375 L 36.546875 -34.875 C 36.078125 -34.601562 35.632812 -34.304688 35.21875 -33.984375 C 34.8125 -33.660156 34.421875 -33.359375 34.046875 -33.078125 L 33.21875 -32.53125 C 34.226562 -31.695312 35.195312 -30.796875 36.125 -29.828125 C 37.050781 -28.859375 37.878906 -27.863281 38.609375 -26.84375 C 43.503906 -20.664062 46.597656 -13.65625 47.890625 -5.8125 L 34.734375 -3.734375 C 33.816406 -9.273438 31.601562 -14.257812 28.09375 -18.6875 C 26.34375 -20.988281 24.59375 -22.648438 22.84375 -23.671875 C 21.550781 -24.410156 20.257812 -24.78125 18.96875 -24.78125 C 18.96875 -17.394531 19.007812 -10.054688 19.09375 -2.765625 L 5.8125 -2.484375 C 5.71875 -10.328125 5.644531 -18.125 5.59375 -25.875 C 5.550781 -33.632812 5.53125 -41.429688 5.53125 -49.265625 C 5.53125 -57.023438 5.578125 -64.800781 5.671875 -72.59375 C 5.765625 -80.394531 5.90625 -88.210938 6.09375 -96.046875 L 18.265625 -95.640625 C 19.285156 -95.734375 20.367188 -95.734375 21.515625 -95.640625 C 22.671875 -95.546875 23.800781 -95.40625 24.90625 -95.21875 C 27.3125 -94.664062 29.53125 -93.835938 31.5625 -92.734375 C 32.664062 -92.179688 33.65625 -91.582031 34.53125 -90.9375 C 35.40625 -90.289062 36.257812 -89.644531 37.09375 -89 C 37.457031 -88.71875 37.820312 -88.414062 38.1875 -88.09375 C 38.5625 -87.769531 38.9375 -87.378906 39.3125 -86.921875 C 39.582031 -86.640625 39.8125 -86.40625 40 -86.21875 C 40.1875 -86.039062 40.367188 -85.8125 40.546875 -85.53125 L 41.65625 -84.296875 C 41.9375 -83.921875 42.125 -83.6875 42.21875 -83.59375 L 42.625 -82.765625 L 43.59375 -81.390625 C 43.6875 -81.109375 43.800781 -80.851562 43.9375 -80.625 C 44.082031 -80.394531 44.203125 -80.1875 44.296875 -80 C 44.378906 -79.71875 44.488281 -79.460938 44.625 -79.234375 C 44.769531 -79.003906 44.890625 -78.75 44.984375 -78.46875 C 45.171875 -78.007812 45.378906 -77.523438 45.609375 -77.015625 C 45.835938 -76.515625 46.046875 -75.988281 46.234375 -75.4375 L 46.640625 -74.046875 Z M 35.015625 -60.765625 C 35.109375 -63.617188 34.832031 -66.429688 34.1875 -69.203125 C 33.8125 -70.585938 33.367188 -71.878906 32.859375 -73.078125 C 32.359375 -74.273438 31.738281 -75.335938 31 -76.265625 L 30.453125 -76.953125 C 30.359375 -77.046875 30.265625 -77.140625 30.171875 -77.234375 C 30.078125 -77.328125 29.984375 -77.414062 29.890625 -77.5 C 29.617188 -77.78125 29.160156 -78.242188 28.515625 -78.890625 C 27.398438 -79.816406 26.335938 -80.554688 25.328125 -81.109375 C 24.492188 -81.566406 23.476562 -81.890625 22.28125 -82.078125 C 21.363281 -82.347656 20.300781 -82.441406 19.09375 -82.359375 C 19.007812 -76.910156 18.941406 -71.414062 18.890625 -65.875 C 18.847656 -60.34375 18.828125 -54.804688 18.828125 -49.265625 C 18.828125 -47.703125 18.828125 -46.132812 18.828125 -44.5625 C 18.828125 -43 18.828125 -41.429688 18.828125 -39.859375 C 20.210938 -40.503906 21.503906 -41.101562 22.703125 -41.65625 C 22.972656 -41.84375 23.269531 -42.023438 23.59375 -42.203125 C 23.914062 -42.390625 24.265625 -42.578125 24.640625 -42.765625 L 25.46875 -43.328125 L 26.4375 -44.015625 C 26.707031 -44.203125 26.984375 -44.382812 27.265625 -44.5625 C 27.546875 -44.75 27.820312 -44.984375 28.09375 -45.265625 L 28.78125 -45.8125 L 29.203125 -46.234375 L 29.484375 -46.5 C 30.035156 -46.96875 30.492188 -47.453125 30.859375 -47.953125 C 31.234375 -48.460938 31.601562 -48.945312 31.96875 -49.40625 C 32.15625 -49.6875 32.316406 -49.960938 32.453125 -50.234375 C 32.585938 -50.515625 32.75 -50.796875 32.9375 -51.078125 C 32.9375 -51.160156 32.984375 -51.269531 33.078125 -51.40625 C 33.171875 -51.550781 33.21875 -51.71875 33.21875 -51.90625 L 33.625 -52.734375 C 33.625 -52.828125 33.644531 -52.941406 33.6875 -53.078125 C 33.738281 -53.210938 33.8125 -53.375 33.90625 -53.5625 C 33.90625 -53.75 33.925781 -53.910156 33.96875 -54.046875 C 34.019531 -54.179688 34.09375 -54.34375 34.1875 -54.53125 C 34.28125 -54.894531 34.375 -55.238281 34.46875 -55.5625 C 34.5625 -55.882812 34.609375 -56.234375 34.609375 -56.609375 L 34.734375 -57.578125 L 34.875 -58.6875 C 34.96875 -59.050781 35.015625 -59.394531 35.015625 -59.71875 C 35.015625 -60.039062 35.015625 -60.390625 35.015625 -60.765625 Z M 35.015625 -60.765625 "/></g></g><g style="fill:#ffbd59;fill-opacity:1;"><g transform="translate(556.350283, 138.601066)"><path style="stroke:none" d="M 22.96875 -14.25 L 39.171875 -14.125 L 39.03125 -0.828125 L 22.96875 -0.96875 C 21.863281 -0.96875 20.804688 -0.96875 19.796875 -0.96875 L 19.796875 -0.828125 L 6.5 -0.546875 L 5.53125 -96.890625 L 13.015625 -96.890625 C 17.253906 -96.972656 21.472656 -97.035156 25.671875 -97.078125 C 29.867188 -97.128906 34.09375 -97.15625 38.34375 -97.15625 L 38.203125 -83.875 C 34.972656 -83.875 31.765625 -83.875 28.578125 -83.875 C 25.398438 -83.875 22.195312 -83.828125 18.96875 -83.734375 L 19.234375 -55.921875 C 20.617188 -56.003906 22.003906 -56.09375 23.390625 -56.1875 C 25.140625 -56.28125 26.84375 -56.375 28.5 -56.46875 C 30.164062 -56.5625 31.921875 -56.609375 33.765625 -56.609375 L 33.625 -43.328125 C 32.0625 -43.328125 30.492188 -43.28125 28.921875 -43.1875 C 27.359375 -43.09375 25.835938 -43 24.359375 -42.90625 C 22.515625 -42.8125 20.851562 -42.671875 19.375 -42.484375 L 19.65625 -14.25 C 20.757812 -14.25 21.863281 -14.25 22.96875 -14.25 Z M 22.96875 -14.25 "/></g></g></g></svg>