<svg xmlns="http://www.w3.org/2000/svg" xmlns:xlink="http://www.w3.org/1999/xlink" width="400" zoomAndPan="magnify" viewBox="0 0 300 149.999998" height="200" preserveAspectRatio="xMidYMid meet" version="1.2"><defs/><g id="3de2dec574"><g style="fill:#d0aeae;fill-opacity:0.6;"><g transform="translate(111.191539, 60.261374)"><path style="stroke:none" d="M 22.96875 -53.421875 L 22.8125 -46.03125 C 21.476562 -46.082031 20.144531 -46.117188 18.8125 -46.140625 C 17.476562 -46.160156 16.140625 -46.195312 14.796875 -46.25 L 14.265625 0 L 6.859375 -0.078125 L 7.40625 -46.40625 C 6.164062 -46.40625 4.925781 -46.414062 3.6875 -46.4375 C 2.457031 -46.46875 1.226562 -46.484375 0 -46.484375 L 0 -53.890625 C 3.851562 -53.890625 7.691406 -53.835938 11.515625 -53.734375 C 15.347656 -53.628906 19.164062 -53.523438 22.96875 -53.421875 Z M 22.96875 -53.421875 "/></g></g><g style="fill:#ef5d3b;fill-opacity:1;"><g transform="translate(107.784086, 56.853922)"><path style="stroke:none" d="M 22.96875 -53.421875 L 22.8125 -46.03125 C 21.476562 -46.082031 20.144531 -46.117188 18.8125 -46.140625 C 17.476562 -46.160156 16.140625 -46.195312 14.796875 -46.25 L 14.265625 0 L 6.859375 -0.078125 L 7.40625 -46.40625 C 6.164062 -46.40625 4.925781 -46.414062 3.6875 -46.4375 C 2.457031 -46.46875 1.226562 -46.484375 0 -46.484375 L 0 -53.890625 C 3.851562 -53.890625 7.691406 -53.835938 11.515625 -53.734375 C 15.347656 -53.628906 19.164062 -53.523438 22.96875 -53.421875 Z M 22.96875 -53.421875 "/></g></g><g style="fill:#d0aeae;fill-opacity:0.6;"><g transform="translate(135.558021, 60.261374)"><path style="stroke:none" d="M 21.890625 -52.109375 L 29.296875 -51.96875 L 28.671875 -6.09375 L 21.203125 -6.171875 L 21.515625 -24.90625 C 21.253906 -24.851562 21.070312 -24.828125 20.96875 -24.828125 C 20.351562 -24.722656 19.710938 -24.628906 19.046875 -24.546875 C 18.378906 -24.472656 17.707031 -24.382812 17.03125 -24.28125 C 16.007812 -24.125 14.992188 -23.96875 13.984375 -23.8125 C 12.984375 -23.664062 11.972656 -23.515625 10.953125 -23.359375 C 11.046875 -19.503906 11.15625 -15.648438 11.28125 -11.796875 C 11.414062 -7.941406 11.5625 -4.085938 11.71875 -0.234375 L 4.3125 0.078125 C 3.539062 -17.753906 3.128906 -35.613281 3.078125 -53.5 L 10.484375 -53.5 C 10.484375 -49.75 10.507812 -45.972656 10.5625 -42.171875 C 10.613281 -38.367188 10.691406 -34.59375 10.796875 -30.84375 C 11.617188 -30.9375 12.460938 -31.0625 13.328125 -31.21875 C 14.203125 -31.375 15.078125 -31.503906 15.953125 -31.609375 C 16.617188 -31.710938 17.3125 -31.816406 18.03125 -31.921875 C 18.757812 -32.023438 19.457031 -32.097656 20.125 -32.140625 C 20.632812 -32.191406 21.125 -32.242188 21.59375 -32.296875 Z M 21.890625 -52.109375 "/></g></g><g style="fill:#f3b63d;fill-opacity:1;"><g transform="translate(132.150568, 56.853922)"><path style="stroke:none" d="M 21.890625 -52.109375 L 29.296875 -51.96875 L 28.671875 -6.09375 L 21.203125 -6.171875 L 21.515625 -24.90625 C 21.253906 -24.851562 21.070312 -24.828125 20.96875 -24.828125 C 20.351562 -24.722656 19.710938 -24.628906 19.046875 -24.546875 C 18.378906 -24.472656 17.707031 -24.382812 17.03125 -24.28125 C 16.007812 -24.125 14.992188 -23.96875 13.984375 -23.8125 C 12.984375 -23.664062 11.972656 -23.515625 10.953125 -23.359375 C 11.046875 -19.503906 11.15625 -15.648438 11.28125 -11.796875 C 11.414062 -7.941406 11.5625 -4.085938 11.71875 -0.234375 L 4.3125 0.078125 C 3.539062 -17.753906 3.128906 -35.613281 3.078125 -53.5 L 10.484375 -53.5 C 10.484375 -49.75 10.507812 -45.972656 10.5625 -42.171875 C 10.613281 -38.367188 10.691406 -34.59375 10.796875 -30.84375 C 11.617188 -30.9375 12.460938 -31.0625 13.328125 -31.21875 C 14.203125 -31.375 15.078125 -31.503906 15.953125 -31.609375 C 16.617188 -31.710938 17.3125 -31.816406 18.03125 -31.921875 C 18.757812 -32.023438 19.457031 -32.097656 20.125 -32.140625 C 20.632812 -32.191406 21.125 -32.242188 21.59375 -32.296875 Z M 21.890625 -52.109375 "/></g></g><g style="fill:#d0aeae;fill-opacity:0.6;"><g transform="translate(168.176598, 60.261374)"><path style="stroke:none" d="M 12.796875 -7.9375 L 21.8125 -7.859375 L 21.734375 -0.46875 L 12.796875 -0.546875 C 12.179688 -0.546875 11.59375 -0.546875 11.03125 -0.546875 L 11.03125 -0.46875 L 3.625 -0.3125 L 3.078125 -53.96875 L 7.25 -53.96875 C 9.613281 -54.019531 11.960938 -54.054688 14.296875 -54.078125 C 16.640625 -54.109375 18.992188 -54.125 21.359375 -54.125 L 21.28125 -46.71875 C 19.476562 -46.71875 17.691406 -46.71875 15.921875 -46.71875 C 14.148438 -46.71875 12.363281 -46.691406 10.5625 -46.640625 L 10.71875 -31.140625 C 11.488281 -31.191406 12.257812 -31.242188 13.03125 -31.296875 C 14.007812 -31.347656 14.957031 -31.398438 15.875 -31.453125 C 16.800781 -31.503906 17.78125 -31.53125 18.8125 -31.53125 L 18.734375 -24.125 C 17.859375 -24.125 16.984375 -24.097656 16.109375 -24.046875 C 15.234375 -23.992188 14.382812 -23.945312 13.5625 -23.90625 C 12.539062 -23.851562 11.617188 -23.773438 10.796875 -23.671875 L 10.953125 -7.9375 C 11.566406 -7.9375 12.179688 -7.9375 12.796875 -7.9375 Z M 12.796875 -7.9375 "/></g></g><g style="fill:#0f619d;fill-opacity:1;"><g transform="translate(164.769144, 56.853922)"><path style="stroke:none" d="M 12.796875 -7.9375 L 21.8125 -7.859375 L 21.734375 -0.46875 L 12.796875 -0.546875 C 12.179688 -0.546875 11.59375 -0.546875 11.03125 -0.546875 L 11.03125 -0.46875 L 3.625 -0.3125 L 3.078125 -53.96875 L 7.25 -53.96875 C 9.613281 -54.019531 11.960938 -54.054688 14.296875 -54.078125 C 16.640625 -54.109375 18.992188 -54.125 21.359375 -54.125 L 21.28125 -46.71875 C 19.476562 -46.71875 17.691406 -46.71875 15.921875 -46.71875 C 14.148438 -46.71875 12.363281 -46.691406 10.5625 -46.640625 L 10.71875 -31.140625 C 11.488281 -31.191406 12.257812 -31.242188 13.03125 -31.296875 C 14.007812 -31.347656 14.957031 -31.398438 15.875 -31.453125 C 16.800781 -31.503906 17.78125 -31.53125 18.8125 -31.53125 L 18.734375 -24.125 C 17.859375 -24.125 16.984375 -24.097656 16.109375 -24.046875 C 15.234375 -23.992188 14.382812 -23.945312 13.5625 -23.90625 C 12.539062 -23.851562 11.617188 -23.773438 10.796875 -23.671875 L 10.953125 -7.9375 C 11.566406 -7.9375 12.179688 -7.9375 12.796875 -7.9375 Z M 12.796875 -7.9375 "/></g></g><g style="fill:#d0aeae;fill-opacity:0.6;"><g transform="translate(3.014684, 146.236727)"><path style="stroke:none" d="M 25.359375 -40.015625 C 25.515625 -38.929688 25.59375 -37.800781 25.59375 -36.625 C 25.644531 -34.3125 25.363281 -32.070312 24.75 -29.90625 L 24.515625 -29.140625 L 24.203125 -28.21875 L 24.046875 -27.828125 L 23.828125 -27.375 C 23.773438 -27.21875 23.707031 -27.070312 23.625 -26.9375 C 23.550781 -26.8125 23.488281 -26.671875 23.4375 -26.515625 C 22.875 -25.441406 22.179688 -24.441406 21.359375 -23.515625 C 20.535156 -22.585938 19.671875 -21.765625 18.765625 -21.046875 C 17.867188 -20.328125 16.929688 -19.6875 15.953125 -19.125 C 15.078125 -18.601562 14.175781 -18.132812 13.25 -17.71875 C 12.332031 -17.3125 11.410156 -16.957031 10.484375 -16.65625 C 10.484375 -13.875 10.492188 -11.082031 10.515625 -8.28125 C 10.546875 -5.488281 10.585938 -2.703125 10.640625 0.078125 L 3.234375 0.234375 C 3.078125 -8.910156 3.023438 -18.046875 3.078125 -27.171875 C 3.128906 -36.296875 3.285156 -45.429688 3.546875 -54.578125 L 8.09375 -54.5 C 10.40625 -54.757812 12.613281 -54.476562 14.71875 -53.65625 C 15.90625 -53.25 17.015625 -52.6875 18.046875 -51.96875 C 19.066406 -51.289062 19.988281 -50.492188 20.8125 -49.578125 C 21.6875 -48.703125 22.429688 -47.75 23.046875 -46.71875 C 23.203125 -46.40625 23.359375 -46.117188 23.515625 -45.859375 C 23.671875 -45.609375 23.800781 -45.328125 23.90625 -45.015625 C 24 -44.765625 24.109375 -44.5 24.234375 -44.21875 C 24.367188 -43.9375 24.488281 -43.640625 24.59375 -43.328125 C 24.695312 -43.066406 24.773438 -42.796875 24.828125 -42.515625 C 24.878906 -42.234375 24.957031 -41.960938 25.0625 -41.703125 C 25.101562 -41.398438 25.148438 -41.101562 25.203125 -40.8125 C 25.253906 -40.53125 25.304688 -40.265625 25.359375 -40.015625 Z M 17.65625 -31.921875 C 18.0625 -33.410156 18.238281 -34.953125 18.1875 -36.546875 C 18.1875 -37.421875 18.140625 -38.191406 18.046875 -38.859375 C 18.046875 -39.054688 18.019531 -39.242188 17.96875 -39.421875 C 17.914062 -39.609375 17.863281 -39.804688 17.8125 -40.015625 C 17.757812 -40.171875 17.71875 -40.335938 17.6875 -40.515625 C 17.664062 -40.691406 17.601562 -40.859375 17.5 -41.015625 C 17.445312 -41.171875 17.394531 -41.335938 17.34375 -41.515625 C 17.289062 -41.691406 17.238281 -41.859375 17.1875 -42.015625 C 17.082031 -42.171875 16.992188 -42.320312 16.921875 -42.46875 C 16.847656 -42.625 16.757812 -42.753906 16.65625 -42.859375 C 16.34375 -43.484375 15.957031 -44.023438 15.5 -44.484375 C 14.976562 -44.992188 14.4375 -45.457031 13.875 -45.875 C 13.363281 -46.226562 12.800781 -46.507812 12.1875 -46.71875 C 11.71875 -46.925781 11.253906 -47.054688 10.796875 -47.109375 C 10.691406 -43.347656 10.613281 -39.601562 10.5625 -35.875 C 10.507812 -32.15625 10.484375 -28.421875 10.484375 -24.671875 C 11.566406 -25.128906 12.554688 -25.664062 13.453125 -26.28125 C 14.347656 -26.90625 15.109375 -27.601562 15.734375 -28.375 C 16.191406 -28.882812 16.578125 -29.421875 16.890625 -29.984375 C 16.929688 -30.085938 16.960938 -30.175781 16.984375 -30.25 C 17.015625 -30.332031 17.054688 -30.398438 17.109375 -30.453125 L 17.265625 -30.921875 L 17.421875 -31.375 Z M 17.65625 -31.921875 "/></g></g><g style="fill:#3d976e;fill-opacity:1;"><g transform="translate(-0.39277, 142.829274)"><path style="stroke:none" d="M 25.359375 -40.015625 C 25.515625 -38.929688 25.59375 -37.800781 25.59375 -36.625 C 25.644531 -34.3125 25.363281 -32.070312 24.75 -29.90625 L 24.515625 -29.140625 L 24.203125 -28.21875 L 24.046875 -27.828125 L 23.828125 -27.375 C 23.773438 -27.21875 23.707031 -27.070312 23.625 -26.9375 C 23.550781 -26.8125 23.488281 -26.671875 23.4375 -26.515625 C 22.875 -25.441406 22.179688 -24.441406 21.359375 -23.515625 C 20.535156 -22.585938 19.671875 -21.765625 18.765625 -21.046875 C 17.867188 -20.328125 16.929688 -19.6875 15.953125 -19.125 C 15.078125 -18.601562 14.175781 -18.132812 13.25 -17.71875 C 12.332031 -17.3125 11.410156 -16.957031 10.484375 -16.65625 C 10.484375 -13.875 10.492188 -11.082031 10.515625 -8.28125 C 10.546875 -5.488281 10.585938 -2.703125 10.640625 0.078125 L 3.234375 0.234375 C 3.078125 -8.910156 3.023438 -18.046875 3.078125 -27.171875 C 3.128906 -36.296875 3.285156 -45.429688 3.546875 -54.578125 L 8.09375 -54.5 C 10.40625 -54.757812 12.613281 -54.476562 14.71875 -53.65625 C 15.90625 -53.25 17.015625 -52.6875 18.046875 -51.96875 C 19.066406 -51.289062 19.988281 -50.492188 20.8125 -49.578125 C 21.6875 -48.703125 22.429688 -47.75 23.046875 -46.71875 C 23.203125 -46.40625 23.359375 -46.117188 23.515625 -45.859375 C 23.671875 -45.609375 23.800781 -45.328125 23.90625 -45.015625 C 24 -44.765625 24.109375 -44.5 24.234375 -44.21875 C 24.367188 -43.9375 24.488281 -43.640625 24.59375 -43.328125 C 24.695312 -43.066406 24.773438 -42.796875 24.828125 -42.515625 C 24.878906 -42.234375 24.957031 -41.960938 25.0625 -41.703125 C 25.101562 -41.398438 25.148438 -41.101562 25.203125 -40.8125 C 25.253906 -40.53125 25.304688 -40.265625 25.359375 -40.015625 Z M 17.65625 -31.921875 C 18.0625 -33.410156 18.238281 -34.953125 18.1875 -36.546875 C 18.1875 -37.421875 18.140625 -38.191406 18.046875 -38.859375 C 18.046875 -39.054688 18.019531 -39.242188 17.96875 -39.421875 C 17.914062 -39.609375 17.863281 -39.804688 17.8125 -40.015625 C 17.757812 -40.171875 17.71875 -40.335938 17.6875 -40.515625 C 17.664062 -40.691406 17.601562 -40.859375 17.5 -41.015625 C 17.445312 -41.171875 17.394531 -41.335938 17.34375 -41.515625 C 17.289062 -41.691406 17.238281 -41.859375 17.1875 -42.015625 C 17.082031 -42.171875 16.992188 -42.320312 16.921875 -42.46875 C 16.847656 -42.625 16.757812 -42.753906 16.65625 -42.859375 C 16.34375 -43.484375 15.957031 -44.023438 15.5 -44.484375 C 14.976562 -44.992188 14.4375 -45.457031 13.875 -45.875 C 13.363281 -46.226562 12.800781 -46.507812 12.1875 -46.71875 C 11.71875 -46.925781 11.253906 -47.054688 10.796875 -47.109375 C 10.691406 -43.347656 10.613281 -39.601562 10.5625 -35.875 C 10.507812 -32.15625 10.484375 -28.421875 10.484375 -24.671875 C 11.566406 -25.128906 12.554688 -25.664062 13.453125 -26.28125 C 14.347656 -26.90625 15.109375 -27.601562 15.734375 -28.375 C 16.191406 -28.882812 16.578125 -29.421875 16.890625 -29.984375 C 16.929688 -30.085938 16.960938 -30.175781 16.984375 -30.25 C 17.015625 -30.332031 17.054688 -30.398438 17.109375 -30.453125 L 17.265625 -30.921875 L 17.421875 -31.375 Z M 17.65625 -31.921875 "/></g></g><g style="fill:#d0aeae;fill-opacity:0.6;"><g transform="translate(31.933011, 146.236727)"><path style="stroke:none" d="M 13.484375 -8.484375 C 15.179688 -8.429688 16.890625 -8.351562 18.609375 -8.25 C 20.335938 -8.144531 22.050781 -7.988281 23.75 -7.78125 L 22.890625 -0.390625 C 21.296875 -0.585938 19.691406 -0.738281 18.078125 -0.84375 C 16.460938 -0.945312 14.832031 -1.050781 13.1875 -1.15625 C 11.539062 -1.207031 9.878906 -1.257812 8.203125 -1.3125 C 6.535156 -1.363281 4.851562 -1.441406 3.15625 -1.546875 L 3.625 -8.9375 C 3.625 -8.9375 3.632812 -8.9375 3.65625 -8.9375 C 3.6875 -8.9375 3.703125 -8.9375 3.703125 -8.9375 C 3.859375 -12.070312 4.007812 -15.207031 4.15625 -18.34375 C 4.3125 -21.476562 4.46875 -24.613281 4.625 -27.75 C 4.882812 -32.125 5.15625 -36.476562 5.4375 -40.8125 C 5.71875 -45.15625 6.039062 -49.515625 6.40625 -53.890625 L 13.796875 -53.265625 C 13.441406 -48.953125 13.117188 -44.632812 12.828125 -40.3125 C 12.546875 -36 12.28125 -31.6875 12.03125 -27.375 C 11.875 -24.238281 11.71875 -21.113281 11.5625 -18 C 11.40625 -14.894531 11.25 -11.773438 11.09375 -8.640625 C 11.507812 -8.585938 11.921875 -8.5625 12.328125 -8.5625 C 12.742188 -8.5625 13.128906 -8.535156 13.484375 -8.484375 Z M 13.484375 -8.484375 "/></g></g><g style="fill:#0f619d;fill-opacity:1;"><g transform="translate(28.525558, 142.829274)"><path style="stroke:none" d="M 13.484375 -8.484375 C 15.179688 -8.429688 16.890625 -8.351562 18.609375 -8.25 C 20.335938 -8.144531 22.050781 -7.988281 23.75 -7.78125 L 22.890625 -0.390625 C 21.296875 -0.585938 19.691406 -0.738281 18.078125 -0.84375 C 16.460938 -0.945312 14.832031 -1.050781 13.1875 -1.15625 C 11.539062 -1.207031 9.878906 -1.257812 8.203125 -1.3125 C 6.535156 -1.363281 4.851562 -1.441406 3.15625 -1.546875 L 3.625 -8.9375 C 3.625 -8.9375 3.632812 -8.9375 3.65625 -8.9375 C 3.6875 -8.9375 3.703125 -8.9375 3.703125 -8.9375 C 3.859375 -12.070312 4.007812 -15.207031 4.15625 -18.34375 C 4.3125 -21.476562 4.46875 -24.613281 4.625 -27.75 C 4.882812 -32.125 5.15625 -36.476562 5.4375 -40.8125 C 5.71875 -45.15625 6.039062 -49.515625 6.40625 -53.890625 L 13.796875 -53.265625 C 13.441406 -48.953125 13.117188 -44.632812 12.828125 -40.3125 C 12.546875 -36 12.28125 -31.6875 12.03125 -27.375 C 11.875 -24.238281 11.71875 -21.113281 11.5625 -18 C 11.40625 -14.894531 11.25 -11.773438 11.09375 -8.640625 C 11.507812 -8.585938 11.921875 -8.5625 12.328125 -8.5625 C 12.742188 -8.5625 13.128906 -8.535156 13.484375 -8.484375 Z M 13.484375 -8.484375 "/></g></g><g style="fill:#d0aeae;fill-opacity:0.6;"><g transform="translate(59.076179, 146.236727)"><path style="stroke:none" d="M 35.46875 1 L 28.21875 2.3125 L 24.984375 -15.109375 C 24.054688 -15.160156 23.101562 -15.171875 22.125 -15.140625 C 21.144531 -15.117188 20.144531 -15.109375 19.125 -15.109375 C 18.144531 -15.109375 17.140625 -15.109375 16.109375 -15.109375 C 15.085938 -15.109375 14.0625 -15.132812 13.03125 -15.1875 L 9.015625 -2.234375 L 1.921875 -4.390625 L 17.96875 -56.125 L 25.125 -55.65625 Z M 19.046875 -22.515625 C 19.765625 -22.515625 20.507812 -22.523438 21.28125 -22.546875 C 22.050781 -22.578125 22.847656 -22.566406 23.671875 -22.515625 L 20.578125 -39.46875 L 15.265625 -22.515625 C 16.492188 -22.515625 17.753906 -22.515625 19.046875 -22.515625 Z M 19.046875 -22.515625 "/></g></g><g style="fill:#a2b8d3;fill-opacity:1;"><g transform="translate(55.668725, 142.829274)"><path style="stroke:none" d="M 35.46875 1 L 28.21875 2.3125 L 24.984375 -15.109375 C 24.054688 -15.160156 23.101562 -15.171875 22.125 -15.140625 C 21.144531 -15.117188 20.144531 -15.109375 19.125 -15.109375 C 18.144531 -15.109375 17.140625 -15.109375 16.109375 -15.109375 C 15.085938 -15.109375 14.0625 -15.132812 13.03125 -15.1875 L 9.015625 -2.234375 L 1.921875 -4.390625 L 17.96875 -56.125 L 25.125 -55.65625 Z M 19.046875 -22.515625 C 19.765625 -22.515625 20.507812 -22.523438 21.28125 -22.546875 C 22.050781 -22.578125 22.847656 -22.566406 23.671875 -22.515625 L 20.578125 -39.46875 L 15.265625 -22.515625 C 16.492188 -22.515625 17.753906 -22.515625 19.046875 -22.515625 Z M 19.046875 -22.515625 "/></g></g><g style="fill:#d0aeae;fill-opacity:0.6;"><g transform="translate(96.624428, 146.236727)"><path style="stroke:none" d="M 31.21875 -53.421875 C 31.320312 -50.546875 31.375 -47.691406 31.375 -44.859375 C 31.375 -42.035156 31.375 -39.210938 31.375 -36.390625 C 31.375 -33.554688 31.359375 -30.710938 31.328125 -27.859375 C 31.304688 -25.015625 31.296875 -22.175781 31.296875 -19.34375 L 31.21875 -17.265625 C 31.21875 -16.910156 31.21875 -16.550781 31.21875 -16.1875 C 31.21875 -15.832031 31.21875 -15.445312 31.21875 -15.03125 C 31.164062 -14.257812 31.113281 -13.488281 31.0625 -12.71875 C 31.007812 -11.945312 30.910156 -11.125 30.765625 -10.25 C 30.710938 -10.039062 30.660156 -9.832031 30.609375 -9.625 C 30.554688 -9.425781 30.503906 -9.222656 30.453125 -9.015625 L 30.296875 -8.40625 L 30.0625 -7.703125 C 30.007812 -7.503906 29.929688 -7.300781 29.828125 -7.09375 C 29.734375 -6.882812 29.660156 -6.65625 29.609375 -6.40625 L 29.21875 -5.78125 C 29.113281 -5.570312 29.007812 -5.367188 28.90625 -5.171875 L 28.53125 -4.546875 L 28.0625 -3.9375 L 27.59375 -3.3125 L 27.140625 -2.703125 C 26.984375 -2.597656 26.773438 -2.414062 26.515625 -2.15625 L 26.28125 -1.921875 C 26.238281 -1.867188 26.113281 -1.769531 25.90625 -1.625 C 25.59375 -1.414062 25.304688 -1.234375 25.046875 -1.078125 C 24.796875 -0.921875 24.539062 -0.789062 24.28125 -0.6875 C 23.820312 -0.488281 23.347656 -0.3125 22.859375 -0.15625 C 22.367188 0 21.894531 0.128906 21.4375 0.234375 C 20.5625 0.390625 19.632812 0.492188 18.65625 0.546875 C 17.78125 0.546875 16.867188 0.46875 15.921875 0.3125 C 14.972656 0.15625 14.035156 -0.101562 13.109375 -0.46875 C 12.078125 -0.820312 11.175781 -1.304688 10.40625 -1.921875 C 9.476562 -2.585938 8.707031 -3.382812 8.09375 -4.3125 C 7.476562 -5.238281 7.015625 -6.269531 6.703125 -7.40625 C 6.546875 -7.914062 6.441406 -8.425781 6.390625 -8.9375 C 6.347656 -9.457031 6.328125 -9.945312 6.328125 -10.40625 L 13.71875 -10.40625 C 13.71875 -9.945312 13.769531 -9.585938 13.875 -9.328125 C 13.976562 -9.015625 14.082031 -8.734375 14.1875 -8.484375 C 14.394531 -8.273438 14.597656 -8.066406 14.796875 -7.859375 C 15.054688 -7.660156 15.390625 -7.484375 15.796875 -7.328125 C 16.617188 -7.015625 17.546875 -6.859375 18.578125 -6.859375 C 19.046875 -6.910156 19.507812 -6.960938 19.96875 -7.015625 C 20.425781 -7.117188 20.835938 -7.25 21.203125 -7.40625 C 21.359375 -7.507812 21.4375 -7.5625 21.4375 -7.5625 L 21.59375 -7.703125 L 21.734375 -7.859375 C 21.835938 -7.960938 21.914062 -8.039062 21.96875 -8.09375 L 22.046875 -8.171875 L 22.125 -8.328125 L 22.359375 -8.5625 L 22.515625 -8.859375 C 22.710938 -9.222656 22.890625 -9.648438 23.046875 -10.140625 C 23.203125 -10.628906 23.332031 -11.128906 23.4375 -11.640625 C 23.644531 -12.773438 23.757812 -13.992188 23.78125 -15.296875 C 23.8125 -16.609375 23.851562 -17.984375 23.90625 -19.421875 C 23.90625 -19.890625 23.90625 -20.34375 23.90625 -20.78125 C 23.90625 -21.21875 23.90625 -21.664062 23.90625 -22.125 C 22.925781 -21.457031 21.921875 -20.914062 20.890625 -20.5 C 19.296875 -19.882812 17.648438 -19.679688 15.953125 -19.890625 C 14.984375 -19.992188 14.113281 -20.195312 13.34375 -20.5 C 12.570312 -20.8125 11.847656 -21.222656 11.171875 -21.734375 C 10.503906 -22.203125 9.914062 -22.703125 9.40625 -23.234375 C 8.894531 -23.773438 8.40625 -24.332031 7.9375 -24.90625 C 7.113281 -25.976562 6.421875 -27.117188 5.859375 -28.328125 C 5.296875 -29.535156 4.832031 -30.757812 4.46875 -32 C 4.113281 -33.226562 3.832031 -34.457031 3.625 -35.6875 C 3.414062 -36.925781 3.285156 -38.160156 3.234375 -39.390625 C 3.078125 -41.753906 3.035156 -44.066406 3.109375 -46.328125 C 3.191406 -48.585938 3.207031 -50.773438 3.15625 -52.890625 L 10.5625 -53.046875 C 10.613281 -50.679688 10.597656 -48.40625 10.515625 -46.21875 C 10.441406 -44.03125 10.484375 -41.910156 10.640625 -39.859375 C 10.691406 -38.878906 10.789062 -37.898438 10.9375 -36.921875 C 11.09375 -35.953125 11.300781 -35.03125 11.5625 -34.15625 C 12.125 -32.300781 12.894531 -30.679688 13.875 -29.296875 C 14.382812 -28.628906 14.898438 -28.113281 15.421875 -27.75 C 15.628906 -27.59375 15.859375 -27.46875 16.109375 -27.375 C 16.210938 -27.375 16.316406 -27.359375 16.421875 -27.328125 C 16.523438 -27.304688 16.628906 -27.269531 16.734375 -27.21875 C 17.296875 -27.164062 17.832031 -27.242188 18.34375 -27.453125 C 18.914062 -27.648438 19.484375 -28.007812 20.046875 -28.53125 C 20.503906 -28.9375 20.96875 -29.472656 21.4375 -30.140625 C 21.789062 -30.804688 22.148438 -31.628906 22.515625 -32.609375 C 23.179688 -34.304688 23.664062 -36.128906 23.96875 -38.078125 C 23.96875 -40.648438 23.96875 -43.195312 23.96875 -45.71875 C 23.96875 -48.238281 23.921875 -50.726562 23.828125 -53.1875 Z M 31.21875 -53.421875 "/></g></g><g style="fill:#f5aba9;fill-opacity:1;"><g transform="translate(93.216975, 142.829274)"><path style="stroke:none" d="M 31.21875 -53.421875 C 31.320312 -50.546875 31.375 -47.691406 31.375 -44.859375 C 31.375 -42.035156 31.375 -39.210938 31.375 -36.390625 C 31.375 -33.554688 31.359375 -30.710938 31.328125 -27.859375 C 31.304688 -25.015625 31.296875 -22.175781 31.296875 -19.34375 L 31.21875 -17.265625 C 31.21875 -16.910156 31.21875 -16.550781 31.21875 -16.1875 C 31.21875 -15.832031 31.21875 -15.445312 31.21875 -15.03125 C 31.164062 -14.257812 31.113281 -13.488281 31.0625 -12.71875 C 31.007812 -11.945312 30.910156 -11.125 30.765625 -10.25 C 30.710938 -10.039062 30.660156 -9.832031 30.609375 -9.625 C 30.554688 -9.425781 30.503906 -9.222656 30.453125 -9.015625 L 30.296875 -8.40625 L 30.0625 -7.703125 C 30.007812 -7.503906 29.929688 -7.300781 29.828125 -7.09375 C 29.734375 -6.882812 29.660156 -6.65625 29.609375 -6.40625 L 29.21875 -5.78125 C 29.113281 -5.570312 29.007812 -5.367188 28.90625 -5.171875 L 28.53125 -4.546875 L 28.0625 -3.9375 L 27.59375 -3.3125 L 27.140625 -2.703125 C 26.984375 -2.597656 26.773438 -2.414062 26.515625 -2.15625 L 26.28125 -1.921875 C 26.238281 -1.867188 26.113281 -1.769531 25.90625 -1.625 C 25.59375 -1.414062 25.304688 -1.234375 25.046875 -1.078125 C 24.796875 -0.921875 24.539062 -0.789062 24.28125 -0.6875 C 23.820312 -0.488281 23.347656 -0.3125 22.859375 -0.15625 C 22.367188 0 21.894531 0.128906 21.4375 0.234375 C 20.5625 0.390625 19.632812 0.492188 18.65625 0.546875 C 17.78125 0.546875 16.867188 0.46875 15.921875 0.3125 C 14.972656 0.15625 14.035156 -0.101562 13.109375 -0.46875 C 12.078125 -0.820312 11.175781 -1.304688 10.40625 -1.921875 C 9.476562 -2.585938 8.707031 -3.382812 8.09375 -4.3125 C 7.476562 -5.238281 7.015625 -6.269531 6.703125 -7.40625 C 6.546875 -7.914062 6.441406 -8.425781 6.390625 -8.9375 C 6.347656 -9.457031 6.328125 -9.945312 6.328125 -10.40625 L 13.71875 -10.40625 C 13.71875 -9.945312 13.769531 -9.585938 13.875 -9.328125 C 13.976562 -9.015625 14.082031 -8.734375 14.1875 -8.484375 C 14.394531 -8.273438 14.597656 -8.066406 14.796875 -7.859375 C 15.054688 -7.660156 15.390625 -7.484375 15.796875 -7.328125 C 16.617188 -7.015625 17.546875 -6.859375 18.578125 -6.859375 C 19.046875 -6.910156 19.507812 -6.960938 19.96875 -7.015625 C 20.425781 -7.117188 20.835938 -7.25 21.203125 -7.40625 C 21.359375 -7.507812 21.4375 -7.5625 21.4375 -7.5625 L 21.59375 -7.703125 L 21.734375 -7.859375 C 21.835938 -7.960938 21.914062 -8.039062 21.96875 -8.09375 L 22.046875 -8.171875 L 22.125 -8.328125 L 22.359375 -8.5625 L 22.515625 -8.859375 C 22.710938 -9.222656 22.890625 -9.648438 23.046875 -10.140625 C 23.203125 -10.628906 23.332031 -11.128906 23.4375 -11.640625 C 23.644531 -12.773438 23.757812 -13.992188 23.78125 -15.296875 C 23.8125 -16.609375 23.851562 -17.984375 23.90625 -19.421875 C 23.90625 -19.890625 23.90625 -20.34375 23.90625 -20.78125 C 23.90625 -21.21875 23.90625 -21.664062 23.90625 -22.125 C 22.925781 -21.457031 21.921875 -20.914062 20.890625 -20.5 C 19.296875 -19.882812 17.648438 -19.679688 15.953125 -19.890625 C 14.984375 -19.992188 14.113281 -20.195312 13.34375 -20.5 C 12.570312 -20.8125 11.847656 -21.222656 11.171875 -21.734375 C 10.503906 -22.203125 9.914062 -22.703125 9.40625 -23.234375 C 8.894531 -23.773438 8.40625 -24.332031 7.9375 -24.90625 C 7.113281 -25.976562 6.421875 -27.117188 5.859375 -28.328125 C 5.296875 -29.535156 4.832031 -30.757812 4.46875 -32 C 4.113281 -33.226562 3.832031 -34.457031 3.625 -35.6875 C 3.414062 -36.925781 3.285156 -38.160156 3.234375 -39.390625 C 3.078125 -41.753906 3.035156 -44.066406 3.109375 -46.328125 C 3.191406 -48.585938 3.207031 -50.773438 3.15625 -52.890625 L 10.5625 -53.046875 C 10.613281 -50.679688 10.597656 -48.40625 10.515625 -46.21875 C 10.441406 -44.03125 10.484375 -41.910156 10.640625 -39.859375 C 10.691406 -38.878906 10.789062 -37.898438 10.9375 -36.921875 C 11.09375 -35.953125 11.300781 -35.03125 11.5625 -34.15625 C 12.125 -32.300781 12.894531 -30.679688 13.875 -29.296875 C 14.382812 -28.628906 14.898438 -28.113281 15.421875 -27.75 C 15.628906 -27.59375 15.859375 -27.46875 16.109375 -27.375 C 16.210938 -27.375 16.316406 -27.359375 16.421875 -27.328125 C 16.523438 -27.304688 16.628906 -27.269531 16.734375 -27.21875 C 17.296875 -27.164062 17.832031 -27.242188 18.34375 -27.453125 C 18.914062 -27.648438 19.484375 -28.007812 20.046875 -28.53125 C 20.503906 -28.9375 20.96875 -29.472656 21.4375 -30.140625 C 21.789062 -30.804688 22.148438 -31.628906 22.515625 -32.609375 C 23.179688 -34.304688 23.664062 -36.128906 23.96875 -38.078125 C 23.96875 -40.648438 23.96875 -43.195312 23.96875 -45.71875 C 23.96875 -48.238281 23.921875 -50.726562 23.828125 -53.1875 Z M 31.21875 -53.421875 "/></g></g><g style="fill:#d0aeae;fill-opacity:0.6;"><g transform="translate(131.324023, 146.236727)"><path style="stroke:none" d="M 21.890625 -52.109375 L 29.296875 -51.96875 L 28.671875 -6.09375 L 21.203125 -6.171875 L 21.515625 -24.90625 C 21.253906 -24.851562 21.070312 -24.828125 20.96875 -24.828125 C 20.351562 -24.722656 19.710938 -24.628906 19.046875 -24.546875 C 18.378906 -24.472656 17.707031 -24.382812 17.03125 -24.28125 C 16.007812 -24.125 14.992188 -23.96875 13.984375 -23.8125 C 12.984375 -23.664062 11.972656 -23.515625 10.953125 -23.359375 C 11.046875 -19.503906 11.15625 -15.648438 11.28125 -11.796875 C 11.414062 -7.941406 11.5625 -4.085938 11.71875 -0.234375 L 4.3125 0.078125 C 3.539062 -17.753906 3.128906 -35.613281 3.078125 -53.5 L 10.484375 -53.5 C 10.484375 -49.75 10.507812 -45.972656 10.5625 -42.171875 C 10.613281 -38.367188 10.691406 -34.59375 10.796875 -30.84375 C 11.617188 -30.9375 12.460938 -31.0625 13.328125 -31.21875 C 14.203125 -31.375 15.078125 -31.503906 15.953125 -31.609375 C 16.617188 -31.710938 17.3125 -31.816406 18.03125 -31.921875 C 18.757812 -32.023438 19.457031 -32.097656 20.125 -32.140625 C 20.632812 -32.191406 21.125 -32.242188 21.59375 -32.296875 Z M 21.890625 -52.109375 "/></g></g><g style="fill:#ffc91f;fill-opacity:1;"><g transform="translate(127.91657, 142.829274)"><path style="stroke:none" d="M 21.890625 -52.109375 L 29.296875 -51.96875 L 28.671875 -6.09375 L 21.203125 -6.171875 L 21.515625 -24.90625 C 21.253906 -24.851562 21.070312 -24.828125 20.96875 -24.828125 C 20.351562 -24.722656 19.710938 -24.628906 19.046875 -24.546875 C 18.378906 -24.472656 17.707031 -24.382812 17.03125 -24.28125 C 16.007812 -24.125 14.992188 -23.96875 13.984375 -23.8125 C 12.984375 -23.664062 11.972656 -23.515625 10.953125 -23.359375 C 11.046875 -19.503906 11.15625 -15.648438 11.28125 -11.796875 C 11.414062 -7.941406 11.5625 -4.085938 11.71875 -0.234375 L 4.3125 0.078125 C 3.539062 -17.753906 3.128906 -35.613281 3.078125 -53.5 L 10.484375 -53.5 C 10.484375 -49.75 10.507812 -45.972656 10.5625 -42.171875 C 10.613281 -38.367188 10.691406 -34.59375 10.796875 -30.84375 C 11.617188 -30.9375 12.460938 -31.0625 13.328125 -31.21875 C 14.203125 -31.375 15.078125 -31.503906 15.953125 -31.609375 C 16.617188 -31.710938 17.3125 -31.816406 18.03125 -31.921875 C 18.757812 -32.023438 19.457031 -32.097656 20.125 -32.140625 C 20.632812 -32.191406 21.125 -32.242188 21.59375 -32.296875 Z M 21.890625 -52.109375 "/></g></g><g style="fill:#d0aeae;fill-opacity:0.6;"><g transform="translate(163.9426, 146.236727)"><path style="stroke:none" d="M 38.859375 -37.234375 C 40.453125 -31.785156 40.707031 -26.207031 39.625 -20.5 C 39.113281 -17.675781 38.289062 -15.003906 37.15625 -12.484375 C 36.539062 -11.148438 35.832031 -9.863281 35.03125 -8.625 C 34.238281 -7.394531 33.300781 -6.21875 32.21875 -5.09375 C 31.65625 -4.570312 31.066406 -4.054688 30.453125 -3.546875 C 29.835938 -3.035156 29.171875 -2.570312 28.453125 -2.15625 C 26.960938 -1.28125 25.394531 -0.691406 23.75 -0.390625 C 22.050781 -0.078125 20.378906 -0.0507812 18.734375 -0.3125 C 17.140625 -0.5625 15.597656 -1.046875 14.109375 -1.765625 C 12.722656 -2.390625 11.382812 -3.265625 10.09375 -4.390625 C 8.96875 -5.367188 7.914062 -6.5 6.9375 -7.78125 C 6.0625 -9.019531 5.316406 -10.316406 4.703125 -11.671875 C 4.085938 -13.035156 3.597656 -14.410156 3.234375 -15.796875 C 2.878906 -17.191406 2.597656 -18.59375 2.390625 -20 C 2.179688 -21.414062 2.078125 -22.84375 2.078125 -24.28125 C 2.078125 -25.664062 2.140625 -27.039062 2.265625 -28.40625 C 2.398438 -29.769531 2.570312 -31.117188 2.78125 -32.453125 C 3.03125 -33.796875 3.320312 -35.144531 3.65625 -36.5 C 3.988281 -37.863281 4.441406 -39.210938 5.015625 -40.546875 C 5.578125 -41.890625 6.226562 -43.1875 6.96875 -44.4375 C 7.71875 -45.695312 8.609375 -46.894531 9.640625 -48.03125 L 15.109375 -43.09375 C 13.828125 -41.65625 12.75 -39.882812 11.875 -37.78125 C 11.457031 -36.75 11.109375 -35.679688 10.828125 -34.578125 C 10.546875 -33.472656 10.300781 -32.351562 10.09375 -31.21875 C 9.6875 -28.90625 9.484375 -26.617188 9.484375 -24.359375 C 9.484375 -22.097656 9.789062 -19.914062 10.40625 -17.8125 C 10.96875 -15.65625 11.816406 -13.753906 12.953125 -12.109375 C 13.566406 -11.285156 14.234375 -10.5625 14.953125 -9.9375 C 15.722656 -9.320312 16.492188 -8.8125 17.265625 -8.40625 C 19.015625 -7.582031 20.710938 -7.320312 22.359375 -7.625 C 24.003906 -7.9375 25.519531 -8.835938 26.90625 -10.328125 C 28.289062 -11.660156 29.445312 -13.382812 30.375 -15.5 C 31.300781 -17.5 31.96875 -19.628906 32.375 -21.890625 C 33.195312 -26.410156 32.96875 -30.859375 31.6875 -35.234375 C 31.632812 -35.492188 31.566406 -35.75 31.484375 -36 C 31.410156 -36.257812 31.320312 -36.519531 31.21875 -36.78125 L 30.921875 -37.546875 L 30.609375 -38.3125 C 30.347656 -38.925781 30.113281 -39.414062 29.90625 -39.78125 C 29.8125 -39.988281 29.695312 -40.207031 29.5625 -40.4375 C 29.4375 -40.664062 29.296875 -40.882812 29.140625 -41.09375 C 28.578125 -41.914062 27.960938 -42.632812 27.296875 -43.25 C 26.671875 -43.8125 25.972656 -44.273438 25.203125 -44.640625 C 25.109375 -44.691406 25.007812 -44.726562 24.90625 -44.75 C 24.800781 -44.78125 24.695312 -44.796875 24.59375 -44.796875 C 24.539062 -44.847656 24.460938 -44.882812 24.359375 -44.90625 C 24.253906 -44.9375 24.148438 -44.953125 24.046875 -44.953125 C 23.484375 -45.046875 23 -45.117188 22.59375 -45.171875 C 21.5625 -45.222656 20.554688 -45.195312 19.578125 -45.09375 C 18.648438 -44.945312 17.773438 -44.691406 16.953125 -44.328125 C 16.179688 -44.015625 15.566406 -43.601562 15.109375 -43.09375 L 9.640625 -48.03125 C 10.253906 -48.75 10.929688 -49.363281 11.671875 -49.875 C 12.421875 -50.394531 13.179688 -50.804688 13.953125 -51.109375 C 14.722656 -51.472656 15.492188 -51.753906 16.265625 -51.953125 C 17.035156 -52.160156 17.804688 -52.316406 18.578125 -52.421875 C 20.117188 -52.628906 21.660156 -52.65625 23.203125 -52.5 C 23.867188 -52.445312 24.640625 -52.34375 25.515625 -52.1875 C 25.878906 -52.132812 26.289062 -52.035156 26.75 -51.890625 C 26.957031 -51.835938 27.160156 -51.769531 27.359375 -51.6875 C 27.566406 -51.613281 27.773438 -51.550781 27.984375 -51.5 C 29.578125 -50.832031 30.988281 -49.929688 32.21875 -48.796875 C 33.351562 -47.773438 34.382812 -46.566406 35.3125 -45.171875 C 35.769531 -44.453125 36.15625 -43.8125 36.46875 -43.25 C 36.675781 -42.882812 36.851562 -42.535156 37 -42.203125 C 37.15625 -41.867188 37.285156 -41.550781 37.390625 -41.25 L 37.859375 -40.25 L 38.15625 -39.234375 C 38.3125 -38.929688 38.441406 -38.613281 38.546875 -38.28125 C 38.648438 -37.945312 38.753906 -37.597656 38.859375 -37.234375 Z M 38.859375 -37.234375 "/></g></g><g style="fill:#3d976e;fill-opacity:1;"><g transform="translate(160.535146, 142.829274)"><path style="stroke:none" d="M 38.859375 -37.234375 C 40.453125 -31.785156 40.707031 -26.207031 39.625 -20.5 C 39.113281 -17.675781 38.289062 -15.003906 37.15625 -12.484375 C 36.539062 -11.148438 35.832031 -9.863281 35.03125 -8.625 C 34.238281 -7.394531 33.300781 -6.21875 32.21875 -5.09375 C 31.65625 -4.570312 31.066406 -4.054688 30.453125 -3.546875 C 29.835938 -3.035156 29.171875 -2.570312 28.453125 -2.15625 C 26.960938 -1.28125 25.394531 -0.691406 23.75 -0.390625 C 22.050781 -0.078125 20.378906 -0.0507812 18.734375 -0.3125 C 17.140625 -0.5625 15.597656 -1.046875 14.109375 -1.765625 C 12.722656 -2.390625 11.382812 -3.265625 10.09375 -4.390625 C 8.96875 -5.367188 7.914062 -6.5 6.9375 -7.78125 C 6.0625 -9.019531 5.316406 -10.316406 4.703125 -11.671875 C 4.085938 -13.035156 3.597656 -14.410156 3.234375 -15.796875 C 2.878906 -17.191406 2.597656 -18.59375 2.390625 -20 C 2.179688 -21.414062 2.078125 -22.84375 2.078125 -24.28125 C 2.078125 -25.664062 2.140625 -27.039062 2.265625 -28.40625 C 2.398438 -29.769531 2.570312 -31.117188 2.78125 -32.453125 C 3.03125 -33.796875 3.320312 -35.144531 3.65625 -36.5 C 3.988281 -37.863281 4.441406 -39.210938 5.015625 -40.546875 C 5.578125 -41.890625 6.226562 -43.1875 6.96875 -44.4375 C 7.71875 -45.695312 8.609375 -46.894531 9.640625 -48.03125 L 15.109375 -43.09375 C 13.828125 -41.65625 12.75 -39.882812 11.875 -37.78125 C 11.457031 -36.75 11.109375 -35.679688 10.828125 -34.578125 C 10.546875 -33.472656 10.300781 -32.351562 10.09375 -31.21875 C 9.6875 -28.90625 9.484375 -26.617188 9.484375 -24.359375 C 9.484375 -22.097656 9.789062 -19.914062 10.40625 -17.8125 C 10.96875 -15.65625 11.816406 -13.753906 12.953125 -12.109375 C 13.566406 -11.285156 14.234375 -10.5625 14.953125 -9.9375 C 15.722656 -9.320312 16.492188 -8.8125 17.265625 -8.40625 C 19.015625 -7.582031 20.710938 -7.320312 22.359375 -7.625 C 24.003906 -7.9375 25.519531 -8.835938 26.90625 -10.328125 C 28.289062 -11.660156 29.445312 -13.382812 30.375 -15.5 C 31.300781 -17.5 31.96875 -19.628906 32.375 -21.890625 C 33.195312 -26.410156 32.96875 -30.859375 31.6875 -35.234375 C 31.632812 -35.492188 31.566406 -35.75 31.484375 -36 C 31.410156 -36.257812 31.320312 -36.519531 31.21875 -36.78125 L 30.921875 -37.546875 L 30.609375 -38.3125 C 30.347656 -38.925781 30.113281 -39.414062 29.90625 -39.78125 C 29.8125 -39.988281 29.695312 -40.207031 29.5625 -40.4375 C 29.4375 -40.664062 29.296875 -40.882812 29.140625 -41.09375 C 28.578125 -41.914062 27.960938 -42.632812 27.296875 -43.25 C 26.671875 -43.8125 25.972656 -44.273438 25.203125 -44.640625 C 25.109375 -44.691406 25.007812 -44.726562 24.90625 -44.75 C 24.800781 -44.78125 24.695312 -44.796875 24.59375 -44.796875 C 24.539062 -44.847656 24.460938 -44.882812 24.359375 -44.90625 C 24.253906 -44.9375 24.148438 -44.953125 24.046875 -44.953125 C 23.484375 -45.046875 23 -45.117188 22.59375 -45.171875 C 21.5625 -45.222656 20.554688 -45.195312 19.578125 -45.09375 C 18.648438 -44.945312 17.773438 -44.691406 16.953125 -44.328125 C 16.179688 -44.015625 15.566406 -43.601562 15.109375 -43.09375 L 9.640625 -48.03125 C 10.253906 -48.75 10.929688 -49.363281 11.671875 -49.875 C 12.421875 -50.394531 13.179688 -50.804688 13.953125 -51.109375 C 14.722656 -51.472656 15.492188 -51.753906 16.265625 -51.953125 C 17.035156 -52.160156 17.804688 -52.316406 18.578125 -52.421875 C 20.117188 -52.628906 21.660156 -52.65625 23.203125 -52.5 C 23.867188 -52.445312 24.640625 -52.34375 25.515625 -52.1875 C 25.878906 -52.132812 26.289062 -52.035156 26.75 -51.890625 C 26.957031 -51.835938 27.160156 -51.769531 27.359375 -51.6875 C 27.566406 -51.613281 27.773438 -51.550781 27.984375 -51.5 C 29.578125 -50.832031 30.988281 -49.929688 32.21875 -48.796875 C 33.351562 -47.773438 34.382812 -46.566406 35.3125 -45.171875 C 35.769531 -44.453125 36.15625 -43.8125 36.46875 -43.25 C 36.675781 -42.882812 36.851562 -42.535156 37 -42.203125 C 37.15625 -41.867188 37.285156 -41.550781 37.390625 -41.25 L 37.859375 -40.25 L 38.15625 -39.234375 C 38.3125 -38.929688 38.441406 -38.613281 38.546875 -38.28125 C 38.648438 -37.945312 38.753906 -37.597656 38.859375 -37.234375 Z M 38.859375 -37.234375 "/></g></g><g style="fill:#d0aeae;fill-opacity:0.6;"><g transform="translate(206.426514, 146.236727)"><path style="stroke:none" d="M 33.765625 -53.65625 C 33.921875 -49.132812 34.023438 -44.570312 34.078125 -39.96875 C 34.128906 -35.375 33.921875 -30.765625 33.453125 -26.140625 C 33.347656 -24.953125 33.234375 -23.789062 33.109375 -22.65625 C 32.984375 -21.53125 32.84375 -20.378906 32.6875 -19.203125 C 32.476562 -18.015625 32.242188 -16.816406 31.984375 -15.609375 C 31.734375 -14.398438 31.378906 -13.179688 30.921875 -11.953125 C 30.503906 -10.765625 29.960938 -9.554688 29.296875 -8.328125 C 28.679688 -7.140625 27.859375 -5.984375 26.828125 -4.859375 C 26.566406 -4.597656 26.296875 -4.335938 26.015625 -4.078125 C 25.734375 -3.828125 25.460938 -3.570312 25.203125 -3.3125 C 24.640625 -2.851562 24.023438 -2.441406 23.359375 -2.078125 C 22.691406 -1.671875 21.957031 -1.320312 21.15625 -1.03125 C 20.363281 -0.75 19.53125 -0.5625 18.65625 -0.46875 C 16.851562 -0.257812 15.128906 -0.539062 13.484375 -1.3125 C 12.710938 -1.664062 12.003906 -2.085938 11.359375 -2.578125 C 10.722656 -3.066406 10.148438 -3.570312 9.640625 -4.09375 C 8.609375 -5.164062 7.757812 -6.304688 7.09375 -7.515625 C 6.425781 -8.722656 5.859375 -9.941406 5.390625 -11.171875 C 4.929688 -12.359375 4.570312 -13.617188 4.3125 -14.953125 C 4.164062 -15.566406 4.039062 -16.210938 3.9375 -16.890625 L 3.859375 -17.8125 L 3.78125 -18.65625 C 3.675781 -19.84375 3.582031 -21.015625 3.5 -22.171875 C 3.425781 -23.328125 3.363281 -24.46875 3.3125 -25.59375 C 3.050781 -30.21875 2.984375 -34.816406 3.109375 -39.390625 C 3.242188 -43.960938 3.414062 -48.515625 3.625 -53.046875 L 11.03125 -52.65625 C 10.820312 -48.132812 10.664062 -43.648438 10.5625 -39.203125 C 10.457031 -34.753906 10.507812 -30.347656 10.71875 -25.984375 C 10.71875 -24.847656 10.753906 -23.738281 10.828125 -22.65625 C 10.910156 -21.582031 11 -20.476562 11.09375 -19.34375 L 11.171875 -18.578125 L 11.328125 -17.890625 C 11.378906 -17.367188 11.457031 -16.878906 11.5625 -16.421875 C 11.769531 -15.492188 12.023438 -14.59375 12.328125 -13.71875 C 13.003906 -11.875 13.878906 -10.382812 14.953125 -9.25 C 15.421875 -8.738281 15.9375 -8.351562 16.5 -8.09375 C 16.800781 -7.9375 17.054688 -7.859375 17.265625 -7.859375 C 17.421875 -7.804688 17.65625 -7.804688 17.96875 -7.859375 C 18.476562 -7.910156 19.015625 -8.117188 19.578125 -8.484375 C 19.941406 -8.679688 20.25 -8.882812 20.5 -9.09375 C 20.65625 -9.195312 20.8125 -9.328125 20.96875 -9.484375 C 21.125 -9.640625 21.253906 -9.769531 21.359375 -9.875 C 21.660156 -10.175781 21.925781 -10.492188 22.15625 -10.828125 C 22.394531 -11.160156 22.613281 -11.535156 22.8125 -11.953125 C 23.019531 -12.304688 23.226562 -12.6875 23.4375 -13.09375 C 23.644531 -13.507812 23.820312 -13.953125 23.96875 -14.421875 C 24.28125 -15.335938 24.539062 -16.285156 24.75 -17.265625 C 24.957031 -18.242188 25.160156 -19.273438 25.359375 -20.359375 C 25.515625 -21.378906 25.65625 -22.441406 25.78125 -23.546875 C 25.914062 -24.648438 26.035156 -25.742188 26.140625 -26.828125 C 26.546875 -31.140625 26.722656 -35.519531 26.671875 -39.96875 C 26.617188 -44.414062 26.515625 -48.875 26.359375 -53.34375 Z M 33.765625 -53.65625 "/></g></g><g style="fill:#ef5d3b;fill-opacity:1;"><g transform="translate(203.019061, 142.829274)"><path style="stroke:none" d="M 33.765625 -53.65625 C 33.921875 -49.132812 34.023438 -44.570312 34.078125 -39.96875 C 34.128906 -35.375 33.921875 -30.765625 33.453125 -26.140625 C 33.347656 -24.953125 33.234375 -23.789062 33.109375 -22.65625 C 32.984375 -21.53125 32.84375 -20.378906 32.6875 -19.203125 C 32.476562 -18.015625 32.242188 -16.816406 31.984375 -15.609375 C 31.734375 -14.398438 31.378906 -13.179688 30.921875 -11.953125 C 30.503906 -10.765625 29.960938 -9.554688 29.296875 -8.328125 C 28.679688 -7.140625 27.859375 -5.984375 26.828125 -4.859375 C 26.566406 -4.597656 26.296875 -4.335938 26.015625 -4.078125 C 25.734375 -3.828125 25.460938 -3.570312 25.203125 -3.3125 C 24.640625 -2.851562 24.023438 -2.441406 23.359375 -2.078125 C 22.691406 -1.671875 21.957031 -1.320312 21.15625 -1.03125 C 20.363281 -0.75 19.53125 -0.5625 18.65625 -0.46875 C 16.851562 -0.257812 15.128906 -0.539062 13.484375 -1.3125 C 12.710938 -1.664062 12.003906 -2.085938 11.359375 -2.578125 C 10.722656 -3.066406 10.148438 -3.570312 9.640625 -4.09375 C 8.609375 -5.164062 7.757812 -6.304688 7.09375 -7.515625 C 6.425781 -8.722656 5.859375 -9.941406 5.390625 -11.171875 C 4.929688 -12.359375 4.570312 -13.617188 4.3125 -14.953125 C 4.164062 -15.566406 4.039062 -16.210938 3.9375 -16.890625 L 3.859375 -17.8125 L 3.78125 -18.65625 C 3.675781 -19.84375 3.582031 -21.015625 3.5 -22.171875 C 3.425781 -23.328125 3.363281 -24.46875 3.3125 -25.59375 C 3.050781 -30.21875 2.984375 -34.816406 3.109375 -39.390625 C 3.242188 -43.960938 3.414062 -48.515625 3.625 -53.046875 L 11.03125 -52.65625 C 10.820312 -48.132812 10.664062 -43.648438 10.5625 -39.203125 C 10.457031 -34.753906 10.507812 -30.347656 10.71875 -25.984375 C 10.71875 -24.847656 10.753906 -23.738281 10.828125 -22.65625 C 10.910156 -21.582031 11 -20.476562 11.09375 -19.34375 L 11.171875 -18.578125 L 11.328125 -17.890625 C 11.378906 -17.367188 11.457031 -16.878906 11.5625 -16.421875 C 11.769531 -15.492188 12.023438 -14.59375 12.328125 -13.71875 C 13.003906 -11.875 13.878906 -10.382812 14.953125 -9.25 C 15.421875 -8.738281 15.9375 -8.351562 16.5 -8.09375 C 16.800781 -7.9375 17.054688 -7.859375 17.265625 -7.859375 C 17.421875 -7.804688 17.65625 -7.804688 17.96875 -7.859375 C 18.476562 -7.910156 19.015625 -8.117188 19.578125 -8.484375 C 19.941406 -8.679688 20.25 -8.882812 20.5 -9.09375 C 20.65625 -9.195312 20.8125 -9.328125 20.96875 -9.484375 C 21.125 -9.640625 21.253906 -9.769531 21.359375 -9.875 C 21.660156 -10.175781 21.925781 -10.492188 22.15625 -10.828125 C 22.394531 -11.160156 22.613281 -11.535156 22.8125 -11.953125 C 23.019531 -12.304688 23.226562 -12.6875 23.4375 -13.09375 C 23.644531 -13.507812 23.820312 -13.953125 23.96875 -14.421875 C 24.28125 -15.335938 24.539062 -16.285156 24.75 -17.265625 C 24.957031 -18.242188 25.160156 -19.273438 25.359375 -20.359375 C 25.515625 -21.378906 25.65625 -22.441406 25.78125 -23.546875 C 25.914062 -24.648438 26.035156 -25.742188 26.140625 -26.828125 C 26.546875 -31.140625 26.722656 -35.519531 26.671875 -39.96875 C 26.617188 -44.414062 26.515625 -48.875 26.359375 -53.34375 Z M 33.765625 -53.65625 "/></g></g><g style="fill:#d0aeae;fill-opacity:0.6;"><g transform="translate(243.590945, 146.236727)"><path style="stroke:none" d="M 28.296875 -34.3125 L 21.28125 -36.78125 C 21.84375 -38.269531 22.070312 -39.628906 21.96875 -40.859375 C 21.863281 -42.140625 21.476562 -43.242188 20.8125 -44.171875 C 20.507812 -44.585938 20.097656 -45 19.578125 -45.40625 C 19.117188 -45.71875 18.609375 -45.972656 18.046875 -46.171875 C 17.472656 -46.328125 16.957031 -46.40625 16.5 -46.40625 C 15.988281 -46.351562 15.472656 -46.226562 14.953125 -46.03125 C 13.773438 -45.613281 12.828125 -44.890625 12.109375 -43.859375 C 11.390625 -42.890625 10.925781 -41.707031 10.71875 -40.3125 C 10.5625 -38.925781 10.664062 -37.515625 11.03125 -36.078125 C 11.382812 -34.691406 12 -33.304688 12.875 -31.921875 C 13.644531 -30.628906 14.644531 -29.316406 15.875 -27.984375 C 16.5 -27.367188 17.15625 -26.726562 17.84375 -26.0625 C 18.539062 -25.394531 19.25 -24.675781 19.96875 -23.90625 C 20.320312 -23.488281 20.664062 -23.070312 21 -22.65625 C 21.34375 -22.25 21.691406 -21.816406 22.046875 -21.359375 C 22.765625 -20.328125 23.359375 -19.296875 23.828125 -18.265625 C 24.335938 -17.085938 24.722656 -15.859375 24.984375 -14.578125 C 25.128906 -13.234375 25.128906 -11.921875 24.984375 -10.640625 C 24.773438 -9.253906 24.363281 -7.96875 23.75 -6.78125 C 23.125 -5.5 22.273438 -4.367188 21.203125 -3.390625 C 18.992188 -1.390625 16.375 -0.460938 13.34375 -0.609375 C 11.894531 -0.660156 10.53125 -1 9.25 -1.625 C 8.019531 -2.1875 6.890625 -2.929688 5.859375 -3.859375 C 4.929688 -4.785156 4.132812 -5.757812 3.46875 -6.78125 C 2.800781 -7.8125 2.257812 -8.863281 1.84375 -9.9375 L 8.71875 -12.640625 C 9.332031 -11.203125 10.078125 -10.070312 10.953125 -9.25 C 11.828125 -8.476562 12.75 -8.066406 13.71875 -8.015625 C 14.695312 -7.960938 15.546875 -8.269531 16.265625 -8.9375 C 17.035156 -9.601562 17.5 -10.503906 17.65625 -11.640625 C 17.707031 -12.203125 17.707031 -12.796875 17.65625 -13.421875 C 17.5 -14.035156 17.316406 -14.625 17.109375 -15.1875 C 16.804688 -15.800781 16.445312 -16.414062 16.03125 -17.03125 C 15.570312 -17.65625 15.0625 -18.273438 14.5 -18.890625 C 13.875 -19.503906 13.226562 -20.144531 12.5625 -20.8125 C 11.894531 -21.476562 11.226562 -22.171875 10.5625 -22.890625 C 9.84375 -23.660156 9.132812 -24.46875 8.4375 -25.3125 C 7.75 -26.164062 7.117188 -27.054688 6.546875 -27.984375 C 5.984375 -28.960938 5.46875 -29.960938 5 -30.984375 C 4.539062 -32.015625 4.160156 -33.097656 3.859375 -34.234375 C 3.234375 -36.597656 3.078125 -38.960938 3.390625 -41.328125 C 3.546875 -42.554688 3.851562 -43.757812 4.3125 -44.9375 C 4.78125 -46.125 5.398438 -47.234375 6.171875 -48.265625 C 7.765625 -50.421875 9.796875 -51.988281 12.265625 -52.96875 C 13.546875 -53.476562 14.878906 -53.757812 16.265625 -53.8125 C 16.984375 -53.8125 17.675781 -53.757812 18.34375 -53.65625 C 18.5 -53.65625 18.664062 -53.640625 18.84375 -53.609375 C 19.03125 -53.585938 19.195312 -53.550781 19.34375 -53.5 L 20.359375 -53.1875 C 21.640625 -52.78125 22.820312 -52.191406 23.90625 -51.421875 C 24.414062 -51.015625 24.914062 -50.578125 25.40625 -50.109375 C 25.894531 -49.648438 26.34375 -49.160156 26.75 -48.640625 C 27.519531 -47.566406 28.125 -46.398438 28.5625 -45.140625 C 29 -43.878906 29.269531 -42.609375 29.375 -41.328125 C 29.425781 -40.085938 29.347656 -38.863281 29.140625 -37.65625 C 28.929688 -36.445312 28.648438 -35.332031 28.296875 -34.3125 Z M 28.296875 -34.3125 "/></g></g><g style="fill:#ffc91f;fill-opacity:1;"><g transform="translate(240.183492, 142.829274)"><path style="stroke:none" d="M 28.296875 -34.3125 L 21.28125 -36.78125 C 21.84375 -38.269531 22.070312 -39.628906 21.96875 -40.859375 C 21.863281 -42.140625 21.476562 -43.242188 20.8125 -44.171875 C 20.507812 -44.585938 20.097656 -45 19.578125 -45.40625 C 19.117188 -45.71875 18.609375 -45.972656 18.046875 -46.171875 C 17.472656 -46.328125 16.957031 -46.40625 16.5 -46.40625 C 15.988281 -46.351562 15.472656 -46.226562 14.953125 -46.03125 C 13.773438 -45.613281 12.828125 -44.890625 12.109375 -43.859375 C 11.390625 -42.890625 10.925781 -41.707031 10.71875 -40.3125 C 10.5625 -38.925781 10.664062 -37.515625 11.03125 -36.078125 C 11.382812 -34.691406 12 -33.304688 12.875 -31.921875 C 13.644531 -30.628906 14.644531 -29.316406 15.875 -27.984375 C 16.5 -27.367188 17.15625 -26.726562 17.84375 -26.0625 C 18.539062 -25.394531 19.25 -24.675781 19.96875 -23.90625 C 20.320312 -23.488281 20.664062 -23.070312 21 -22.65625 C 21.34375 -22.25 21.691406 -21.816406 22.046875 -21.359375 C 22.765625 -20.328125 23.359375 -19.296875 23.828125 -18.265625 C 24.335938 -17.085938 24.722656 -15.859375 24.984375 -14.578125 C 25.128906 -13.234375 25.128906 -11.921875 24.984375 -10.640625 C 24.773438 -9.253906 24.363281 -7.96875 23.75 -6.78125 C 23.125 -5.5 22.273438 -4.367188 21.203125 -3.390625 C 18.992188 -1.390625 16.375 -0.460938 13.34375 -0.609375 C 11.894531 -0.660156 10.53125 -1 9.25 -1.625 C 8.019531 -2.1875 6.890625 -2.929688 5.859375 -3.859375 C 4.929688 -4.785156 4.132812 -5.757812 3.46875 -6.78125 C 2.800781 -7.8125 2.257812 -8.863281 1.84375 -9.9375 L 8.71875 -12.640625 C 9.332031 -11.203125 10.078125 -10.070312 10.953125 -9.25 C 11.828125 -8.476562 12.75 -8.066406 13.71875 -8.015625 C 14.695312 -7.960938 15.546875 -8.269531 16.265625 -8.9375 C 17.035156 -9.601562 17.5 -10.503906 17.65625 -11.640625 C 17.707031 -12.203125 17.707031 -12.796875 17.65625 -13.421875 C 17.5 -14.035156 17.316406 -14.625 17.109375 -15.1875 C 16.804688 -15.800781 16.445312 -16.414062 16.03125 -17.03125 C 15.570312 -17.65625 15.0625 -18.273438 14.5 -18.890625 C 13.875 -19.503906 13.226562 -20.144531 12.5625 -20.8125 C 11.894531 -21.476562 11.226562 -22.171875 10.5625 -22.890625 C 9.84375 -23.660156 9.132812 -24.46875 8.4375 -25.3125 C 7.75 -26.164062 7.117188 -27.054688 6.546875 -27.984375 C 5.984375 -28.960938 5.46875 -29.960938 5 -30.984375 C 4.539062 -32.015625 4.160156 -33.097656 3.859375 -34.234375 C 3.234375 -36.597656 3.078125 -38.960938 3.390625 -41.328125 C 3.546875 -42.554688 3.851562 -43.757812 4.3125 -44.9375 C 4.78125 -46.125 5.398438 -47.234375 6.171875 -48.265625 C 7.765625 -50.421875 9.796875 -51.988281 12.265625 -52.96875 C 13.546875 -53.476562 14.878906 -53.757812 16.265625 -53.8125 C 16.984375 -53.8125 17.675781 -53.757812 18.34375 -53.65625 C 18.5 -53.65625 18.664062 -53.640625 18.84375 -53.609375 C 19.03125 -53.585938 19.195312 -53.550781 19.34375 -53.5 L 20.359375 -53.1875 C 21.640625 -52.78125 22.820312 -52.191406 23.90625 -51.421875 C 24.414062 -51.015625 24.914062 -50.578125 25.40625 -50.109375 C 25.894531 -49.648438 26.34375 -49.160156 26.75 -48.640625 C 27.519531 -47.566406 28.125 -46.398438 28.5625 -45.140625 C 29 -43.878906 29.269531 -42.609375 29.375 -41.328125 C 29.425781 -40.085938 29.347656 -38.863281 29.140625 -37.65625 C 28.929688 -36.445312 28.648438 -35.332031 28.296875 -34.3125 Z M 28.296875 -34.3125 "/></g></g><g style="fill:#d0aeae;fill-opacity:0.6;"><g transform="translate(276.359453, 146.236727)"><path style="stroke:none" d="M 12.796875 -7.9375 L 21.8125 -7.859375 L 21.734375 -0.46875 L 12.796875 -0.546875 C 12.179688 -0.546875 11.59375 -0.546875 11.03125 -0.546875 L 11.03125 -0.46875 L 3.625 -0.3125 L 3.078125 -53.96875 L 7.25 -53.96875 C 9.613281 -54.019531 11.960938 -54.054688 14.296875 -54.078125 C 16.640625 -54.109375 18.992188 -54.125 21.359375 -54.125 L 21.28125 -46.71875 C 19.476562 -46.71875 17.691406 -46.71875 15.921875 -46.71875 C 14.148438 -46.71875 12.363281 -46.691406 10.5625 -46.640625 L 10.71875 -31.140625 C 11.488281 -31.191406 12.257812 -31.242188 13.03125 -31.296875 C 14.007812 -31.347656 14.957031 -31.398438 15.875 -31.453125 C 16.800781 -31.503906 17.78125 -31.53125 18.8125 -31.53125 L 18.734375 -24.125 C 17.859375 -24.125 16.984375 -24.097656 16.109375 -24.046875 C 15.234375 -23.992188 14.382812 -23.945312 13.5625 -23.90625 C 12.539062 -23.851562 11.617188 -23.773438 10.796875 -23.671875 L 10.953125 -7.9375 C 11.566406 -7.9375 12.179688 -7.9375 12.796875 -7.9375 Z M 12.796875 -7.9375 "/></g></g><g style="fill:#3d976e;fill-opacity:1;"><g transform="translate(272.951999, 142.829274)"><path style="stroke:none" d="M 12.796875 -7.9375 L 21.8125 -7.859375 L 21.734375 -0.46875 L 12.796875 -0.546875 C 12.179688 -0.546875 11.59375 -0.546875 11.03125 -0.546875 L 11.03125 -0.46875 L 3.625 -0.3125 L 3.078125 -53.96875 L 7.25 -53.96875 C 9.613281 -54.019531 11.960938 -54.054688 14.296875 -54.078125 C 16.640625 -54.109375 18.992188 -54.125 21.359375 -54.125 L 21.28125 -46.71875 C 19.476562 -46.71875 17.691406 -46.71875 15.921875 -46.71875 C 14.148438 -46.71875 12.363281 -46.691406 10.5625 -46.640625 L 10.71875 -31.140625 C 11.488281 -31.191406 12.257812 -31.242188 13.03125 -31.296875 C 14.007812 -31.347656 14.957031 -31.398438 15.875 -31.453125 C 16.800781 -31.503906 17.78125 -31.53125 18.8125 -31.53125 L 18.734375 -24.125 C 17.859375 -24.125 16.984375 -24.097656 16.109375 -24.046875 C 15.234375 -23.992188 14.382812 -23.945312 13.5625 -23.90625 C 12.539062 -23.851562 11.617188 -23.773438 10.796875 -23.671875 L 10.953125 -7.9375 C 11.566406 -7.9375 12.179688 -7.9375 12.796875 -7.9375 Z M 12.796875 -7.9375 "/></g></g><g style="fill:#808080;fill-opacity:1;"><g transform="translate(16.404871, 83.826801)"><path style="stroke:none" d="M 19.890625 0 L 16.890625 -13.71875 L 11.109375 1.140625 L 5.296875 -13.71875 L 2.328125 0 L 0.28125 0 L 4.796875 -20.546875 L 11.109375 -4.046875 L 17.4375 -20.546875 L 21.90625 0 Z M 19.890625 0 "/></g></g><g style="fill:#808080;fill-opacity:1;"><g transform="translate(38.596173, 83.826801)"><path style="stroke:none" d=""/></g></g><g style="fill:#808080;fill-opacity:1;"><g transform="translate(46.248344, 83.826801)"><path style="stroke:none" d="M 5.25 -7.078125 L 12.25 -7.078125 L 8.765625 -15.953125 Z M 17.203125 0 L 15.046875 0 L 12.984375 -5.25 L 4.5 -5.25 L 2.4375 0 L 0.28125 0 L 8.765625 -20.609375 Z M 17.203125 0 "/></g></g><g style="fill:#808080;fill-opacity:1;"><g transform="translate(63.734977, 83.826801)"><path style="stroke:none" d=""/></g></g><g style="fill:#808080;fill-opacity:1;"><g transform="translate(71.387148, 83.826801)"><path style="stroke:none" d="M 4.109375 -9.53125 L 8.59375 -9.53125 C 9.707031 -9.53125 10.625 -9.90625 11.34375 -10.65625 C 12.070312 -11.425781 12.4375 -12.378906 12.4375 -13.515625 C 12.4375 -14.628906 12.085938 -15.554688 11.390625 -16.296875 C 10.691406 -17.015625 9.757812 -17.375 8.59375 -17.375 L 4.109375 -17.375 Z M 14.421875 -13.46875 C 14.421875 -11.78125 13.828125 -10.378906 12.640625 -9.265625 C 11.578125 -8.285156 10.300781 -7.75 8.8125 -7.65625 L 14.734375 0 L 12.078125 0 L 6.4375 -7.625 L 4.109375 -7.625 L 4.109375 0 L 2.125 0 L 2.125 -19.28125 L 8.3125 -19.28125 C 10.03125 -19.28125 11.472656 -18.738281 12.640625 -17.65625 C 13.828125 -16.519531 14.421875 -15.125 14.421875 -13.46875 Z M 14.421875 -13.46875 "/></g></g><g style="fill:#808080;fill-opacity:1;"><g transform="translate(86.804859, 83.826801)"><path style="stroke:none" d=""/></g></g><g style="fill:#808080;fill-opacity:1;"><g transform="translate(94.457029, 83.826801)"><path style="stroke:none" d="M 4.109375 -1.984375 L 11 -1.984375 L 11 0 L 2.125 0 L 2.125 -19.28125 L 4.109375 -19.28125 Z M 4.109375 -1.984375 "/></g></g><g style="fill:#808080;fill-opacity:1;"><g transform="translate(106.020315, 83.826801)"><path style="stroke:none" d=""/></g></g><g style="fill:#808080;fill-opacity:1;"><g transform="translate(113.672486, 83.826801)"><path style="stroke:none" d="M 14.703125 -5.390625 C 14.703125 -4.585938 14.523438 -3.832031 14.171875 -3.125 C 13.816406 -2.40625 13.332031 -1.816406 12.71875 -1.359375 C 11.550781 -0.453125 9.984375 0 8.015625 0 L 2.125 0 L 2.125 -19.28125 L 7.34375 -19.28125 C 10.15625 -19.28125 11.988281 -18.410156 12.84375 -16.671875 C 13.144531 -16.046875 13.296875 -15.410156 13.296875 -14.765625 C 13.296875 -14.117188 13.25 -13.617188 13.15625 -13.265625 C 13.039062 -12.890625 12.890625 -12.53125 12.703125 -12.1875 C 12.265625 -11.445312 11.707031 -10.925781 11.03125 -10.625 C 12.15625 -10.320312 13.050781 -9.71875 13.71875 -8.8125 C 14.375 -7.882812 14.703125 -6.742188 14.703125 -5.390625 Z M 11.3125 -14.453125 C 11.3125 -16.398438 9.988281 -17.375 7.34375 -17.375 L 4.109375 -17.375 L 4.109375 -11.359375 L 7.90625 -11.359375 C 8.925781 -11.359375 9.75 -11.613281 10.375 -12.125 C 11 -12.632812 11.3125 -13.410156 11.3125 -14.453125 Z M 12.71875 -5.75 C 12.71875 -6.320312 12.617188 -6.820312 12.421875 -7.25 C 12.191406 -7.6875 11.90625 -8.066406 11.5625 -8.390625 C 10.8125 -9.046875 9.925781 -9.375 8.90625 -9.375 L 4.109375 -9.375 L 4.109375 -1.90625 L 8.59375 -1.90625 C 9.800781 -1.90625 10.789062 -2.253906 11.5625 -2.953125 C 12.332031 -3.671875 12.71875 -4.601562 12.71875 -5.75 Z M 12.71875 -5.75 "/></g></g><g style="fill:#808080;fill-opacity:1;"><g transform="translate(128.948492, 83.826801)"><path style="stroke:none" d=""/></g></g><g style="fill:#808080;fill-opacity:1;"><g transform="translate(136.600663, 83.826801)"><path style="stroke:none" d="M 19.109375 -9.6875 C 19.109375 -11.863281 18.332031 -13.726562 16.78125 -15.28125 C 15.226562 -16.820312 13.359375 -17.59375 11.171875 -17.59375 C 8.992188 -17.59375 7.128906 -16.820312 5.578125 -15.28125 C 4.035156 -13.726562 3.265625 -11.863281 3.265625 -9.6875 C 3.265625 -7.5 4.035156 -5.628906 5.578125 -4.078125 C 7.128906 -2.523438 8.992188 -1.75 11.171875 -1.75 C 13.359375 -1.75 15.226562 -2.523438 16.78125 -4.078125 C 18.332031 -5.628906 19.109375 -7.5 19.109375 -9.6875 Z M 21.09375 -9.6875 C 21.09375 -8.332031 20.835938 -7.050781 20.328125 -5.84375 C 19.796875 -4.632812 19.085938 -3.582031 18.203125 -2.6875 C 17.296875 -1.78125 16.234375 -1.070312 15.015625 -0.5625 C 13.804688 -0.03125 12.523438 0.234375 11.171875 0.234375 C 9.804688 0.234375 8.53125 -0.03125 7.34375 -0.5625 C 6.132812 -1.070312 5.082031 -1.78125 4.1875 -2.6875 C 3.28125 -3.582031 2.570312 -4.632812 2.0625 -5.84375 C 1.539062 -7.050781 1.28125 -8.332031 1.28125 -9.6875 C 1.28125 -11.050781 1.539062 -12.335938 2.0625 -13.546875 C 2.570312 -14.753906 3.28125 -15.800781 4.1875 -16.6875 C 5.082031 -17.582031 6.132812 -18.289062 7.34375 -18.8125 C 8.53125 -19.320312 9.804688 -19.578125 11.171875 -19.578125 C 12.523438 -19.578125 13.804688 -19.320312 15.015625 -18.8125 C 16.234375 -18.289062 17.296875 -17.582031 18.203125 -16.6875 C 19.085938 -15.800781 19.796875 -14.753906 20.328125 -13.546875 C 20.835938 -12.335938 21.09375 -11.050781 21.09375 -9.6875 Z M 21.09375 -9.6875 "/></g></g><g style="fill:#808080;fill-opacity:1;"><g transform="translate(158.962014, 83.826801)"><path style="stroke:none" d=""/></g></g><g style="fill:#808080;fill-opacity:1;"><g transform="translate(166.614185, 83.826801)"><path style="stroke:none" d="M 4.109375 -9.53125 L 8.59375 -9.53125 C 9.707031 -9.53125 10.625 -9.90625 11.34375 -10.65625 C 12.070312 -11.425781 12.4375 -12.378906 12.4375 -13.515625 C 12.4375 -14.628906 12.085938 -15.554688 11.390625 -16.296875 C 10.691406 -17.015625 9.757812 -17.375 8.59375 -17.375 L 4.109375 -17.375 Z M 14.421875 -13.46875 C 14.421875 -11.78125 13.828125 -10.378906 12.640625 -9.265625 C 11.578125 -8.285156 10.300781 -7.75 8.8125 -7.65625 L 14.734375 0 L 12.078125 0 L 6.4375 -7.625 L 4.109375 -7.625 L 4.109375 0 L 2.125 0 L 2.125 -19.28125 L 8.3125 -19.28125 C 10.03125 -19.28125 11.472656 -18.738281 12.640625 -17.65625 C 13.828125 -16.519531 14.421875 -15.125 14.421875 -13.46875 Z M 14.421875 -13.46875 "/></g></g><g style="fill:#808080;fill-opacity:1;"><g transform="translate(182.031905, 83.826801)"><path style="stroke:none" d=""/></g></g><g style="fill:#808080;fill-opacity:1;"><g transform="translate(189.684067, 83.826801)"><path style="stroke:none" d="M 19.109375 -9.6875 C 19.109375 -11.863281 18.332031 -13.726562 16.78125 -15.28125 C 15.226562 -16.820312 13.359375 -17.59375 11.171875 -17.59375 C 8.992188 -17.59375 7.128906 -16.820312 5.578125 -15.28125 C 4.035156 -13.726562 3.265625 -11.863281 3.265625 -9.6875 C 3.265625 -7.5 4.035156 -5.628906 5.578125 -4.078125 C 7.128906 -2.523438 8.992188 -1.75 11.171875 -1.75 C 13.359375 -1.75 15.226562 -2.523438 16.78125 -4.078125 C 18.332031 -5.628906 19.109375 -7.5 19.109375 -9.6875 Z M 21.09375 -9.6875 C 21.09375 -8.332031 20.835938 -7.050781 20.328125 -5.84375 C 19.796875 -4.632812 19.085938 -3.582031 18.203125 -2.6875 C 17.296875 -1.78125 16.234375 -1.070312 15.015625 -0.5625 C 13.804688 -0.03125 12.523438 0.234375 11.171875 0.234375 C 9.804688 0.234375 8.53125 -0.03125 7.34375 -0.5625 C 6.132812 -1.070312 5.082031 -1.78125 4.1875 -2.6875 C 3.28125 -3.582031 2.570312 -4.632812 2.0625 -5.84375 C 1.539062 -7.050781 1.28125 -8.332031 1.28125 -9.6875 C 1.28125 -11.050781 1.539062 -12.335938 2.0625 -13.546875 C 2.570312 -14.753906 3.28125 -15.800781 4.1875 -16.6875 C 5.082031 -17.582031 6.132812 -18.289062 7.34375 -18.8125 C 8.53125 -19.320312 9.804688 -19.578125 11.171875 -19.578125 C 12.523438 -19.578125 13.804688 -19.320312 15.015625 -18.8125 C 16.234375 -18.289062 17.296875 -17.582031 18.203125 -16.6875 C 19.085938 -15.800781 19.796875 -14.753906 20.328125 -13.546875 C 20.835938 -12.335938 21.09375 -11.050781 21.09375 -9.6875 Z M 21.09375 -9.6875 "/></g></g><g style="fill:#808080;fill-opacity:1;"><g transform="translate(212.045408, 83.826801)"><path style="stroke:none" d=""/></g></g><g style="fill:#808080;fill-opacity:1;"><g transform="translate(219.697589, 83.826801)"><path style="stroke:none" d="M 16.078125 -6.375 C 16.078125 -4.300781 15.394531 -2.660156 14.03125 -1.453125 C 12.75 -0.316406 11.039062 0.25 8.90625 0.25 C 6.75 0.25 5.023438 -0.316406 3.734375 -1.453125 C 2.378906 -2.660156 1.703125 -4.300781 1.703125 -6.375 L 1.703125 -19.28125 L 3.6875 -19.28125 L 3.6875 -6.09375 C 3.6875 -4.632812 4.210938 -3.519531 5.265625 -2.75 C 6.171875 -2.070312 7.382812 -1.734375 8.90625 -1.734375 C 11.257812 -1.734375 12.84375 -2.523438 13.65625 -4.109375 C 13.945312 -4.660156 14.09375 -5.320312 14.09375 -6.09375 L 14.09375 -19.28125 L 16.078125 -19.28125 Z M 16.078125 -6.375 "/></g></g><g style="fill:#808080;fill-opacity:1;"><g transform="translate(237.467629, 83.826801)"><path style="stroke:none" d=""/></g></g><g style="fill:#808080;fill-opacity:1;"><g transform="translate(245.119791, 83.826801)"><path style="stroke:none" d="M 21.140625 -9.015625 L 20.953125 -7.828125 C 20.535156 -5.484375 19.390625 -3.554688 17.515625 -2.046875 C 15.640625 -0.523438 13.535156 0.234375 11.203125 0.234375 C 9.835938 0.234375 8.550781 -0.03125 7.34375 -0.5625 C 6.132812 -1.070312 5.082031 -1.78125 4.1875 -2.6875 C 3.28125 -3.582031 2.570312 -4.632812 2.0625 -5.84375 C 1.539062 -7.050781 1.28125 -8.34375 1.28125 -9.71875 C 1.28125 -11.082031 1.539062 -12.367188 2.0625 -13.578125 C 2.570312 -14.785156 3.28125 -15.84375 4.1875 -16.75 C 5.082031 -17.632812 6.132812 -18.34375 7.34375 -18.875 C 8.550781 -19.382812 9.769531 -19.640625 11 -19.640625 C 13.300781 -19.640625 15.332031 -18.988281 17.09375 -17.6875 C 18.863281 -16.382812 20.070312 -14.664062 20.71875 -12.53125 L 18.625 -12.53125 C 18.019531 -14.09375 17.046875 -15.335938 15.703125 -16.265625 C 14.335938 -17.191406 12.835938 -17.65625 11.203125 -17.65625 C 9.003906 -17.65625 7.128906 -16.878906 5.578125 -15.328125 C 4.035156 -13.785156 3.265625 -11.914062 3.265625 -9.71875 C 3.265625 -7.550781 4.035156 -5.679688 5.578125 -4.109375 C 7.109375 -2.535156 8.984375 -1.75 11.203125 -1.75 C 12.929688 -1.75 14.515625 -2.253906 15.953125 -3.265625 C 17.367188 -4.285156 18.363281 -5.625 18.9375 -7.28125 L 11.109375 -7.28125 L 11.109375 -9.015625 Z M 21.140625 -9.015625 "/></g></g><g style="fill:#808080;fill-opacity:1;"><g transform="translate(267.53784, 83.826801)"><path style="stroke:none" d=""/></g></g><g style="fill:#808080;fill-opacity:1;"><g transform="translate(275.190002, 83.826801)"><path style="stroke:none" d="M 4.109375 0 L 2.125 0 L 2.125 -19.28125 L 4.109375 -19.28125 L 4.109375 -10.59375 L 12.875 -10.59375 L 12.875 -19.28125 L 14.859375 -19.28125 L 14.859375 0 L 12.875 0 L 12.875 -8.609375 L 4.109375 -8.609375 Z M 4.109375 0 "/></g></g></g></svg>